# Blender 4.0.2
# www.blender.org
mtllib enemy211.mtl
o Cube
v 0.442678 0.842786 2.459942
v 0.271887 1.181293 1.862295
v -0.231369 1.016597 2.331920
v -0.874033 0.850961 1.585146
v -0.370777 1.015657 1.115521
v -0.843857 0.511203 0.964991
v 1.145580 0.330179 1.968731
v 1.175755 -0.009579 1.348576
v 0.974789 0.668687 1.371084
v 0.332124 0.503051 0.624310
v 0.533091 -0.175215 0.601802
v -0.140956 -0.001404 0.473780
v 0.311747 -0.337104 3.503867
v 0.110781 0.341162 3.526376
v -0.533091 0.175215 2.778199
v -0.332124 -0.503051 2.755690
v -1.145580 -0.330179 1.411269
v -0.974789 -0.668687 2.008916
v -1.175755 0.009579 2.031425
v 0.571743 -1.693923 2.241971
v 0.874033 -0.850961 1.794854
v 0.843857 -0.511203 2.415009
v 0.541568 -1.354165 2.862126
v -0.442678 -0.842786 0.920058
v 0.231369 -1.016597 1.048080
v -0.271887 -1.181293 1.517705
v -0.271227 -1.181775 1.517244
v -0.975449 -0.668205 2.009377
v -1.146240 -0.329698 1.411731
v -0.442018 -0.843267 0.919597
v -1.145863 -0.330969 1.411688
v -1.176038 0.008789 2.031844
v -0.873749 0.851751 1.584727
v -0.843574 0.511993 0.964571
v -0.371381 1.015502 1.114819
v -0.874636 0.850805 1.584445
v -0.230765 1.016752 2.332622
v 0.272491 1.181449 1.862996
v 0.572347 -1.693768 2.242672
v -0.101700 -1.519957 2.114651
v -0.272491 -1.181449 1.517004
v 0.230765 -1.016752 1.047379
v 0.874636 -0.850805 1.795556
v 0.532487 -0.175371 0.601100
v 0.331521 0.502895 0.623609
v 0.975392 0.668842 1.371786
v 1.176359 -0.009424 1.349277
v -0.975392 -0.668842 2.008214
v -0.331521 -0.502895 2.756392
v -0.532487 0.175371 2.778900
v -1.176359 0.009424 2.030723
v 0.843574 -0.511993 2.415429
v 0.873749 -0.851751 1.795273
v 1.176038 -0.008789 1.348157
v 1.145863 0.330969 1.968312
v 1.146240 0.329698 1.968270
v 0.975449 0.668205 1.370623
v 0.271227 1.181775 1.862756
v 0.442018 0.843267 2.460403
v 0.533374 -0.174425 0.601382
v 0.231085 -1.017387 1.048499
v -0.442962 -0.843576 0.920478
v -0.140673 -0.000614 0.473361
v 0.311087 -0.336622 3.504328
v -0.332785 -0.502569 2.756152
v -0.131818 -1.180835 2.733643
v 0.542229 -1.354647 2.861665
v 0.844518 -0.511684 2.414548
v 0.814342 -0.171926 3.034703
v 0.442962 0.843576 2.459523
v -0.231085 1.017387 2.331501
v -0.533374 0.174425 2.778618
v 0.110497 0.340372 3.526795
v 0.613753 0.505068 3.057169
v -0.844518 0.511684 0.965452
v -0.371437 1.016139 1.115982
v 0.332785 0.502569 0.623849
v -0.140296 -0.001885 0.473318
v -0.230481 1.017543 2.332202
v -0.874353 0.851596 1.584025
v -1.176642 0.008633 2.031142
v -0.532771 0.174580 2.779319
v 0.976052 0.668361 1.371324
v 0.332181 0.502414 0.623147
v -0.372041 1.015983 1.115281
v 0.271830 1.181930 1.863458
v -0.140012 -0.001095 0.472899
v -0.442301 -0.844057 0.920016
v -1.146523 -0.330488 1.412150
v -0.844234 0.512474 0.965033
v -0.332181 -0.502414 2.756853
v -0.976052 -0.668361 2.008676
v -0.271830 -1.181930 1.516542
v -0.101039 -1.520438 2.114189
v -0.131215 -1.180680 2.734344
v 0.874353 -0.851596 1.795975
v 0.230481 -1.017543 1.047798
v 0.532771 -0.174580 0.600681
v 1.176642 -0.008633 1.348858
v 0.844234 -0.512474 2.414967
v 1.146523 0.330488 1.967850
v 0.442301 0.844057 2.459984
v 0.613093 0.505550 3.057631
v 0.814059 -0.172716 3.035122
v 0.254527 -0.351851 3.437377
v 0.727607 0.152603 3.587908
v 0.053560 0.326415 3.459886
v 0.253867 -0.351370 3.437839
v 0.757122 -0.186673 2.968214
v 0.726947 0.153085 3.588369
v 0.053277 0.325624 3.460305
v 0.727324 0.151813 3.588327
v 0.556533 0.490321 2.990680
v 0.555872 0.490802 2.991141
v 0.726664 0.152295 3.588788
v 0.756839 -0.187464 2.968633
v 0.590186 -1.642495 2.214693
v 0.560011 -1.302737 2.834848
v 0.086930 -1.807192 2.684318
v 0.590789 -1.642340 2.215394
v 0.087534 -1.807036 2.685019
v -0.083257 -1.468529 2.087373
v 0.560671 -1.303218 2.834387
v -0.113376 -1.129407 2.706365
v 0.087591 -1.807673 2.683856
v -0.082597 -1.469010 2.086911
v 0.088194 -1.807518 2.684558
v -0.112772 -1.129252 2.707067
vn 0.6433 0.1658 0.7475
vn -0.7036 0.5131 0.4917
vn 0.3020 0.8422 -0.4467
vn 0.7036 -0.5131 -0.4917
vn -0.3020 -0.8422 0.4467
vn -0.6433 -0.1658 -0.7475
vn 0.1396 0.8782 0.4575
vn -0.6032 0.6867 -0.4056
vn 0.9520 0.2857 -0.1102
vn 0.2092 0.0943 -0.9733
vn -0.7110 -0.2327 0.6635
vn -0.9520 -0.2857 0.1102
vn 0.9524 -0.2456 0.1809
vn -0.1396 -0.8782 -0.4575
vn -0.6684 -0.7127 -0.2127
vn -0.9524 0.2456 -0.1809
vn -0.2839 0.9583 0.0318
vn 0.4942 -0.8356 -0.2400
vn 0.7110 0.2327 -0.6635
vn 0.6684 0.7127 0.2127
vn 0.0426 -0.4800 -0.8762
vn -0.2092 -0.0943 0.9733
vn -0.2413 0.4783 -0.8444
vn -0.6793 -0.6571 0.3269
vn 0.8850 0.2492 0.3932
vn 0.6032 -0.6867 0.4056
vn 0.2840 -0.9583 -0.0318
vn -0.7111 -0.2327 0.6635
vn 0.7111 0.2327 -0.6635
vn -0.0426 0.4800 0.8762
vn 0.2413 -0.4783 0.8444
vn 0.2839 -0.9583 -0.0318
vn -0.2840 0.9583 0.0318
vt 0.875000 0.687559
vt 0.875000 0.687441
vt 0.875000 0.687441
vt 0.812441 0.687559
vt 0.812559 0.687441
vt 0.812559 0.687559
vt 0.562441 0.312559
vt 0.562559 0.312441
vt 0.562559 0.312559
vt 0.437441 0.687559
vt 0.437559 0.687441
vt 0.437559 0.687559
vt 0.562441 0.812559
vt 0.562559 0.812441
vt 0.562559 0.812559
vt 0.562441 0.562559
vt 0.562559 0.562441
vt 0.562559 0.562559
vt 0.687441 0.687559
vt 0.687559 0.687441
vt 0.687559 0.687559
vt 0.437441 0.187559
vt 0.437559 0.187441
vt 0.437559 0.187559
vt 0.625000 0.312559
vt 0.625000 0.312441
vt 0.625000 0.312441
vt 0.625000 0.187559
vt 0.625000 0.187441
vt 0.625000 0.187441
vt 0.312441 0.562559
vt 0.312559 0.562441
vt 0.312559 0.562559
vt 0.437441 0.562559
vt 0.437559 0.562441
vt 0.437559 0.562559
vt 0.500000 0.062559
vt 0.500000 0.062441
vt 0.500000 0.062441
vt 0.437441 0.312559
vt 0.437559 0.312441
vt 0.437559 0.312559
vt 0.437441 0.437559
vt 0.437559 0.437441
vt 0.437559 0.437559
vt 0.562441 1.000000
vt 0.562559 1.000000
vt 0.562559 1.000000
vt 0.437441 0.937559
vt 0.437559 0.937441
vt 0.437559 0.937559
vt 0.812559 0.625000
vt 0.812441 0.625000
vt 0.812441 0.625000
vt 0.187441 0.687559
vt 0.187559 0.687441
vt 0.187559 0.687559
vt 0.312441 0.687559
vt 0.312559 0.687441
vt 0.312559 0.687559
vt 0.437441 0.812559
vt 0.437559 0.812441
vt 0.437559 0.812559
vt 0.562441 0.687559
vt 0.562559 0.687441
vt 0.562559 0.687559
vt 0.562441 0.437559
vt 0.562559 0.437441
vt 0.562559 0.437559
vt 0.187441 0.562559
vt 0.187559 0.562441
vt 0.187559 0.562559
vt 0.562441 0.062559
vt 0.562559 0.062441
vt 0.562559 0.062559
vt 0.562441 0.187559
vt 0.562559 0.187441
vt 0.562559 0.187559
vt 0.750000 0.562559
vt 0.750000 0.562441
vt 0.812441 0.562559
vt 0.812559 0.562441
vt 0.812559 0.562559
vt 0.562559 0.125000
vt 0.562441 0.125000
vt 0.562441 0.125000
vt 0.562441 0.937559
vt 0.562559 0.937441
vt 0.562559 0.937559
vt 0.437441 0.062559
vt 0.437559 0.062441
vt 0.437559 0.062559
vt 0.625000 0.437441
vt 0.562441 0.500000
vt 0.562441 0.437441
vt 0.312441 0.500000
vt 0.375000 0.562559
vt 0.625000 0.812559
vt 0.562441 0.750000
vt 0.375000 0.687441
vt 0.312441 0.750000
vt 0.312441 0.687441
vt 0.562441 0.187441
vt 0.125000 0.562559
vt 0.187559 0.500000
vt 0.562441 1.000000
vt 0.625000 1.000000
vt 0.187559 0.750000
vt 0.125000 0.687441
vt 0.125000 0.625000
vt 0.125000 0.687559
vt 0.187441 0.500000
vt 0.250000 0.562559
vt 0.437441 0.437441
vt 0.500000 0.062559
vt 0.437441 0.000000
vt 0.500000 0.000000
vt 0.437441 0.687441
vt 0.437441 0.187441
vt 0.625000 0.875000
vt 0.625000 0.937559
vt 0.687559 0.562441
vt 0.187441 0.750000
vt 0.250000 0.687441
vt 0.250000 0.750000
vt 0.625000 0.125000
vt 0.562441 0.375000
vt 0.625000 0.375000
vt 0.312441 0.562441
vt 0.625000 0.250000
vt 0.625000 0.187559
vt 0.812559 0.625000
vt 0.562441 0.000000
vt 0.625000 0.062559
vt 0.500000 0.062559
vt 0.625000 0.062441
vt 0.562441 0.062441
vt 0.562559 0.125000
vt 0.562441 0.937441
vt 0.625000 0.937441
vt 0.312559 0.750000
vt 0.625000 0.437559
vt 0.437559 0.000000
vt 0.562441 0.687441
vt 0.625000 0.812441
vt 0.687559 0.562559
vt 0.187441 0.687441
vt 0.812441 0.687441
vt 0.437441 0.312441
vt 0.562441 0.312441
vt 0.437441 0.562441
vt 0.562441 0.562441
vt 0.187441 0.562441
vt 0.437441 0.062441
vt 0.437441 0.812441
vt 0.562441 0.812441
vt 0.687441 0.562559
vt 0.687441 0.562441
vt 0.625000 0.312559
vt 0.812441 0.562441
vt 0.562559 0.000000
vt 0.875000 0.687559
vt 0.687441 0.687441
vt 0.562441 1.000000
vt 0.437441 0.937441
vt 0.187559 0.625000
vt 0.250000 0.500000
vt 0.562441 0.875000
vt 0.125000 0.562441
vt 0.312559 0.500000
s 0
usemtl Material
f 67/1/1 118/2/1 23/3/1
f 68/4/1 52/5/1 100/6/1
f 15/7/2 82/8/2 50/9/2
f 84/10/3 10/11/3 77/12/3
f 8/13/4 99/14/4 47/15/4
f 2/16/3 86/17/3 38/18/3
f 101/19/1 7/20/1 56/21/1
f 92/22/5 18/23/5 28/24/5
f 14/25/2 111/26/2 73/27/2
f 64/28/5 105/29/5 13/30/5
f 6/31/6 90/32/6 34/33/6
f 35/34/3 76/35/3 5/36/3
f 40/37/6 126/38/6 94/39/6
f 51/40/2 32/41/2 19/42/2
f 80/43/2 4/44/2 33/45/2
f 20/46/4 120/47/4 39/48/4
f 97/49/4 25/50/4 61/51/4
f 104/52/4 109/53/4 69/54/4
f 88/55/6 24/56/6 30/57/6
f 78/58/6 63/59/6 87/60/6
f 44/61/4 60/62/4 11/63/4
f 57/64/3 46/65/3 83/66/3
f 71/67/2 37/68/2 79/69/2
f 31/70/6 29/71/6 17/72/6
f 119/73/5 127/74/5 121/75/5
f 65/76/5 49/77/5 91/78/5
f 74/79/3 114/80/3 103/80/3
f 106/81/1 115/82/1 112/83/1
f 95/84/2 124/85/2 66/86/2
f 53/87/4 43/88/4 96/89/4
f 41/90/5 27/91/5 26/92/5
f 1/93/7 2/94/7 3/95/7
f 4/96/8 5/97/8 6/31/8
f 7/98/9 8/13/9 9/99/9
f 10/100/10 11/101/10 12/102/10
f 14/25/11 16/103/11 13/30/11
f 17/72/12 18/104/12 19/105/12
f 21/106/13 23/107/13 20/46/13
f 24/56/14 25/108/14 26/109/14
f 28/110/15 30/57/15 27/111/15
f 32/112/16 34/113/16 31/70/16
f 36/114/17 38/18/17 35/34/17
f 40/115/18 42/116/18 43/117/18
f 45/118/19 47/15/19 44/61/19
f 49/77/11 51/40/11 48/119/11
f 53/87/13 55/120/13 52/121/13
f 57/64/20 59/122/20 56/21/20
f 61/123/21 63/124/21 60/125/21
f 65/86/22 67/126/22 69/126/22
f 71/127/7 73/27/7 74/128/7
f 76/35/23 78/58/23 75/129/23
f 80/43/2 82/8/2 79/69/2
f 84/10/3 86/17/3 83/66/3
f 88/55/6 90/32/6 87/60/6
f 92/22/24 94/39/24 95/84/24
f 97/49/4 99/14/4 96/89/4
f 101/19/25 103/80/25 104/52/25
f 105/29/22 106/30/22 107/130/22
f 108/131/26 109/126/26 110/28/26
f 111/26/7 112/27/7 113/128/7
f 114/80/9 115/82/9 116/132/9
f 117/133/26 118/134/26 119/73/26
f 120/117/14 121/115/14 122/135/14
f 123/136/22 124/86/22 125/137/22
f 126/38/12 127/74/12 128/138/12
f 24/56/20 27/111/20 30/57/20
f 17/72/13 32/112/13 31/70/13
f 5/36/27 36/114/27 35/34/27
f 21/139/2 39/48/2 43/88/2
f 11/63/28 45/118/28 44/61/28
f 19/42/29 48/119/29 51/40/29
f 22/140/16 53/87/16 52/121/16
f 7/20/15 57/64/15 56/21/15
f 12/102/30 60/141/30 63/59/30
f 13/30/3 65/76/3 64/28/3
f 1/93/21 71/67/21 70/142/21
f 6/31/31 76/35/31 75/129/31
f 29/71/20 18/104/20 17/72/20
f 34/33/13 4/96/13 6/31/13
f 38/18/32 3/95/32 2/16/32
f 42/116/17 26/92/17 25/143/17
f 47/15/11 9/144/11 8/13/11
f 50/9/19 16/103/19 15/7/19
f 55/145/16 8/13/16 7/98/16
f 59/122/15 2/16/15 1/146/15
f 62/147/30 25/108/30 24/56/30
f 68/4/6 23/3/6 22/148/6
f 73/27/4 15/7/4 14/25/4
f 78/58/31 10/11/31 12/102/31
f 37/68/4 80/43/4 79/69/4
f 82/8/4 51/40/4 50/9/4
f 33/45/4 81/149/4 80/43/4
f 79/69/4 72/150/4 71/67/4
f 46/65/5 84/10/5 83/66/5
f 86/17/5 35/34/5 38/18/5
f 77/12/5 85/151/5 84/10/5
f 83/66/5 58/152/5 57/64/5
f 63/59/1 88/55/1 87/60/1
f 90/32/1 31/70/1 34/33/1
f 30/57/1 89/153/1 88/55/1
f 87/60/1 75/129/1 78/58/1
f 49/77/3 92/22/3 91/78/3
f 94/39/20 41/90/20 40/37/20
f 28/24/3 93/154/3 92/22/3
f 91/78/19 66/86/19 65/76/19
f 43/88/2 97/49/2 96/89/2
f 99/14/2 44/61/2 47/15/2
f 61/51/2 98/155/2 97/49/2
f 96/89/2 54/156/2 53/87/2
f 52/5/6 101/19/6 100/6/6
f 103/80/15 70/157/15 74/79/15
f 56/21/6 102/158/6 101/19/6
f 100/6/16 69/54/16 68/4/16
f 106/30/23 108/131/23 110/28/23
f 112/27/21 107/159/21 106/25/21
f 115/82/15 113/79/15 112/83/15
f 116/132/16 110/160/16 109/53/16
f 105/29/19 14/25/19 13/30/19
f 74/128/32 111/26/32 113/128/32
f 109/126/17 64/28/17 69/126/17
f 114/80/11 104/52/11 103/80/11
f 117/133/33 121/75/33 120/161/33
f 123/136/23 119/73/23 118/134/23
f 127/74/20 122/135/20 121/75/20
f 128/138/19 125/137/19 124/85/19
f 126/38/13 95/84/13 94/39/13
f 67/126/21 124/85/21 123/126/21
f 120/117/30 40/37/30 39/117/30
f 118/107/16 20/46/16 23/107/16
f 70/157/1 59/122/1 1/146/1
f 67/1/1 123/162/1 118/2/1
f 68/4/1 22/148/1 52/5/1
f 15/7/2 72/150/2 82/8/2
f 84/10/3 45/118/3 10/11/3
f 8/13/4 54/156/4 99/14/4
f 2/16/3 58/152/3 86/17/3
f 101/19/1 55/163/1 7/20/1
f 92/22/5 48/119/5 18/23/5
f 14/25/2 107/159/2 111/26/2
f 64/28/5 108/131/5 105/29/5
f 6/31/6 75/129/6 90/32/6
f 35/34/3 85/151/3 76/35/3
f 40/37/6 122/135/6 126/38/6
f 51/40/2 81/149/2 32/41/2
f 80/43/2 36/114/2 4/44/2
f 20/46/4 117/164/4 120/47/4
f 97/49/4 42/165/4 25/50/4
f 104/52/4 116/132/4 109/53/4
f 88/55/6 62/147/6 24/56/6
f 78/58/6 12/102/6 63/59/6
f 44/61/4 98/155/4 60/62/4
f 57/64/3 9/144/3 46/65/3
f 71/67/2 3/95/2 37/68/2
f 31/70/6 89/153/6 29/71/6
f 119/73/5 125/137/5 127/74/5
f 65/76/5 16/103/5 49/77/5
f 74/79/3 113/79/3 114/80/3
f 106/81/1 110/160/1 115/82/1
f 95/84/2 128/138/2 124/85/2
f 53/87/4 21/139/4 43/88/4
f 41/90/5 93/154/5 27/91/5
f 14/25/11 15/7/11 16/103/11
f 21/106/13 22/107/13 23/107/13
f 28/110/15 29/166/15 30/57/15
f 32/112/16 33/167/16 34/113/16
f 36/114/17 37/68/17 38/18/17
f 43/117/21 39/117/21 40/115/21
f 40/115/14 41/90/14 42/116/14
f 45/118/19 46/65/19 47/15/19
f 49/77/11 50/9/11 51/40/11
f 53/87/13 54/168/13 55/120/13
f 57/64/20 58/152/20 59/122/20
f 61/123/21 62/147/21 63/124/21
f 69/126/32 64/126/32 65/86/32
f 65/86/22 66/86/22 67/126/22
f 67/126/13 68/126/13 69/126/13
f 74/128/7 70/128/7 71/127/7
f 71/127/2 72/150/2 73/27/2
f 76/35/23 77/12/23 78/58/23
f 80/43/2 81/149/2 82/8/2
f 84/10/3 85/151/3 86/17/3
f 88/55/6 89/153/6 90/32/6
f 95/84/11 91/78/11 92/22/11
f 92/22/15 93/154/15 94/39/15
f 97/49/4 98/155/4 99/14/4
f 104/52/13 100/6/13 101/19/13
f 101/19/20 102/158/20 103/80/20
f 24/56/20 26/109/20 27/111/20
f 17/72/13 19/105/13 32/112/13
f 5/36/32 4/44/32 36/114/32
f 21/139/2 20/46/2 39/48/2
f 11/63/11 10/11/11 45/118/11
f 19/42/19 18/23/19 48/119/19
f 22/140/16 21/139/16 53/87/16
f 7/20/15 9/144/15 57/64/15
f 12/102/30 11/101/30 60/141/30
f 13/30/3 16/103/3 65/76/3
f 1/93/21 3/95/21 71/67/21
f 6/31/31 5/36/31 76/35/31
f 29/71/20 28/169/20 18/104/20
f 34/33/13 33/170/13 4/96/13
f 38/18/27 37/68/27 3/95/27
f 42/116/33 41/90/33 26/92/33
f 47/15/28 46/65/28 9/144/28
f 50/9/29 49/77/29 16/103/29
f 55/145/16 54/156/16 8/13/16
f 59/122/15 58/152/15 2/16/15
f 62/147/30 61/123/30 25/108/30
f 68/4/6 67/1/6 23/3/6
f 73/27/4 72/150/4 15/7/4
f 78/58/31 77/12/31 10/11/31
f 37/68/4 36/114/4 80/43/4
f 82/8/4 81/149/4 51/40/4
f 33/45/4 32/41/4 81/149/4
f 79/69/4 82/8/4 72/150/4
f 46/65/5 45/118/5 84/10/5
f 86/17/5 85/151/5 35/34/5
f 77/12/5 76/35/5 85/151/5
f 83/66/5 86/17/5 58/152/5
f 63/59/1 62/147/1 88/55/1
f 90/32/1 89/153/1 31/70/1
f 30/57/1 29/71/1 89/153/1
f 87/60/1 90/32/1 75/129/1
f 49/77/3 48/119/3 92/22/3
f 94/39/20 93/154/20 41/90/20
f 28/24/3 27/91/3 93/154/3
f 91/78/29 95/84/29 66/86/29
f 43/88/2 42/165/2 97/49/2
f 99/14/2 98/155/2 44/61/2
f 61/51/2 60/62/2 98/155/2
f 96/89/2 99/14/2 54/156/2
f 52/5/6 55/163/6 101/19/6
f 103/80/15 102/158/15 70/157/15
f 56/21/6 59/122/6 102/158/6
f 100/6/16 104/52/16 69/54/16
f 106/30/23 105/29/23 108/131/23
f 112/27/21 111/26/21 107/159/21
f 115/82/15 114/80/15 113/79/15
f 116/132/16 115/82/16 110/160/16
f 105/29/19 107/159/19 14/25/19
f 74/128/32 73/27/32 111/26/32
f 109/126/17 108/131/17 64/28/17
f 114/80/11 116/132/11 104/52/11
f 117/133/17 119/73/17 121/75/17
f 123/136/23 125/137/23 119/73/23
f 127/74/20 126/38/20 122/135/20
f 128/138/29 127/74/29 125/137/29
f 126/38/13 128/138/13 95/84/13
f 67/126/21 66/86/21 124/85/21
f 120/117/30 122/135/30 40/37/30
f 118/107/16 117/164/16 20/46/16
f 70/157/1 102/158/1 59/122/1
