# Blender 4.0.2
# www.blender.org
mtllib enemy214.mtl
o Cube
v 0.660915 0.795995 2.344711
v 0.491166 1.120453 1.739028
v 0.018212 1.081259 2.264116
v -0.717364 0.987596 1.594579
v -0.244410 1.026789 1.069492
v -0.811619 0.608491 1.004380
v 1.208335 0.132871 1.836063
v 1.114080 -0.246233 1.245864
v 1.038586 0.457329 1.230380
v 0.303010 0.363666 0.560844
v 0.378504 -0.339897 0.576327
v -0.264199 -0.054632 0.495732
v 0.433947 -0.269826 3.489951
v 0.358454 0.433736 3.474467
v -0.378504 0.339897 2.803673
v -0.303010 -0.363666 2.819156
v -1.208335 -0.132871 1.543937
v -1.038586 -0.457329 2.149620
v -1.114080 0.246233 2.134136
v 0.319903 -1.730351 2.325992
v 0.717364 -0.987596 1.785421
v 0.811619 -0.608491 2.375620
v 0.414158 -1.351247 2.916191
v -0.660915 -0.795995 1.035289
v -0.018212 -1.081259 1.115885
v -0.491166 -1.120453 1.640972
v -0.490652 -1.121075 1.640494
v -1.039101 -0.456706 2.150098
v -1.208849 -0.132248 1.544415
v -0.660401 -0.796617 1.034811
v -1.208707 -0.133568 1.544444
v -1.114453 0.245537 2.134643
v -0.716992 0.988292 1.594072
v -0.811246 0.609188 1.003873
v -0.245100 1.026701 1.068863
v -0.718055 0.987508 1.593950
v 0.018903 1.081347 2.264744
v 0.491857 1.120540 1.739657
v 0.320594 -1.730263 2.326621
v -0.322109 -1.444998 2.246026
v -0.491857 -1.120540 1.640343
v -0.018903 -1.081347 1.115256
v 0.718055 -0.987508 1.786050
v 0.377813 -0.339985 0.575698
v 0.302319 0.363578 0.560215
v 1.039277 0.457417 1.231009
v 1.114771 -0.246145 1.246493
v -1.039277 -0.457417 2.148991
v -0.302319 -0.363578 2.819785
v -0.377813 0.339985 2.804302
v -1.114771 0.246145 2.133507
v 0.811246 -0.609188 2.376127
v 0.716992 -0.988292 1.785928
v 1.114453 -0.245537 1.245357
v 1.208707 0.133568 1.835556
v 1.208849 0.132248 1.835585
v 1.039101 0.456706 1.229902
v 0.490652 1.121075 1.739506
v 0.660401 0.796617 2.345189
v 0.378877 -0.339200 0.575820
v -0.018584 -1.081956 1.116391
v -0.661287 -0.796691 1.035796
v -0.263826 -0.053936 0.495225
v 0.433433 -0.269203 3.490428
v -0.303525 -0.363043 2.819634
v -0.228031 -1.066605 2.835118
v 0.414672 -1.351870 2.915713
v 0.812133 -0.609114 2.375142
v 0.906388 -0.230010 2.965341
v 0.661287 0.796691 2.344204
v 0.018584 1.081956 2.263609
v -0.378877 0.339200 2.804180
v 0.358081 0.433040 3.474974
v 0.831036 0.472233 2.949887
v -0.812133 0.609114 1.004858
v -0.244924 1.027412 1.069970
v 0.303525 0.363043 0.560366
v -0.263685 -0.055255 0.495254
v 0.019275 1.082044 2.264238
v -0.717682 0.988204 1.593443
v -1.115144 0.245449 2.134014
v -0.378186 0.339288 2.804809
v 1.039791 0.456794 1.230531
v 0.302834 0.362955 0.559737
v -0.245615 1.027324 1.069341
v 0.491343 1.121163 1.740135
v -0.263312 -0.054558 0.494747
v -0.660773 -0.797314 1.035318
v -1.209222 -0.132945 1.544922
v -0.811761 0.609811 1.004351
v -0.302834 -0.362955 2.820263
v -1.039791 -0.456794 2.149469
v -0.491343 -1.121163 1.639865
v -0.321595 -1.445621 2.245548
v -0.227340 -1.066517 2.835747
v 0.717682 -0.988204 1.786557
v -0.019275 -1.082044 1.115762
v 0.378186 -0.339288 0.575192
v 1.115144 -0.245449 1.245986
v 0.811761 -0.609811 2.375649
v 1.209222 0.132945 1.835078
v 0.660773 0.797314 2.344682
v 0.830522 0.472856 2.950364
v 0.906015 -0.230706 2.965848
v 0.368455 -0.278165 3.430338
v 0.935664 0.140132 3.495450
v 0.292961 0.425397 3.414854
v 0.367941 -0.277543 3.430816
v 0.840895 -0.238349 2.905728
v 0.935150 0.140755 3.495927
v 0.292588 0.424700 3.415361
v 0.935292 0.139436 3.495956
v 0.765543 0.463894 2.890274
v 0.765029 0.464516 2.890752
v 0.934777 0.140059 3.496434
v 0.840523 -0.239046 2.906235
v 0.344152 -1.685036 2.293013
v 0.438407 -1.305932 2.883211
v -0.128803 -1.724230 2.818100
v 0.344843 -1.684948 2.293641
v -0.128112 -1.724142 2.818729
v -0.297860 -1.399684 2.213046
v 0.438921 -1.306555 2.882734
v -0.203782 -1.021290 2.802138
v -0.128289 -1.724852 2.817622
v -0.297346 -1.400307 2.212568
v -0.127598 -1.724764 2.818251
v -0.203091 -1.021202 2.802767
vn 0.7363 0.0938 0.6702
vn -0.5479 0.6637 0.5091
vn 0.3971 0.7421 -0.5401
vn 0.5479 -0.6637 -0.5091
vn -0.3971 -0.7421 0.5401
vn -0.7363 -0.0938 -0.6702
vn 0.3380 0.8658 0.3691
vn -0.5122 0.7575 -0.4048
vn 0.9707 0.0993 -0.2188
vn 0.1205 -0.0089 -0.9927
vn -0.6682 -0.0554 0.7419
vn -0.9707 -0.0993 0.2188
vn 0.9081 -0.4030 0.1139
vn -0.3380 -0.8658 -0.3691
vn -0.8014 -0.5910 -0.0920
vn -0.9081 0.4030 -0.1139
vn -0.1067 0.9941 -0.0219
vn 0.3125 -0.9255 -0.2139
vn 0.6682 0.0554 -0.7419
vn 0.8014 0.5910 0.0920
vn -0.1332 -0.5356 -0.8339
vn -0.1205 0.0089 0.9927
vn -0.2398 0.4584 -0.8558
vn -0.7464 -0.4994 0.4400
vn 0.9509 0.1084 0.2898
vn 0.5122 -0.7575 0.4048
vn 0.1067 -0.9941 0.0219
vn 0.1332 0.5356 0.8339
vn 0.2398 -0.4584 0.8558
vn 0.9081 -0.4031 0.1139
vn -0.9081 0.4031 -0.1139
vt 0.875000 0.687559
vt 0.875000 0.687441
vt 0.875000 0.687441
vt 0.812441 0.687559
vt 0.812559 0.687441
vt 0.812559 0.687559
vt 0.562441 0.312559
vt 0.562559 0.312441
vt 0.562559 0.312559
vt 0.437441 0.687559
vt 0.437559 0.687441
vt 0.437559 0.687559
vt 0.562441 0.812559
vt 0.562559 0.812441
vt 0.562559 0.812559
vt 0.562441 0.562559
vt 0.562559 0.562441
vt 0.562559 0.562559
vt 0.687441 0.687559
vt 0.687559 0.687441
vt 0.687559 0.687559
vt 0.437441 0.187559
vt 0.437559 0.187441
vt 0.437559 0.187559
vt 0.625000 0.312559
vt 0.625000 0.312441
vt 0.625000 0.312441
vt 0.625000 0.187559
vt 0.625000 0.187441
vt 0.625000 0.187441
vt 0.312441 0.562559
vt 0.312559 0.562441
vt 0.312559 0.562559
vt 0.437441 0.562559
vt 0.437559 0.562441
vt 0.437559 0.562559
vt 0.500000 0.062559
vt 0.500000 0.062441
vt 0.500000 0.062441
vt 0.437441 0.312559
vt 0.437559 0.312441
vt 0.437559 0.312559
vt 0.437441 0.437559
vt 0.437559 0.437441
vt 0.437559 0.437559
vt 0.562441 1.000000
vt 0.562559 1.000000
vt 0.562559 1.000000
vt 0.437441 0.937559
vt 0.437559 0.937441
vt 0.437559 0.937559
vt 0.812559 0.625000
vt 0.812441 0.625000
vt 0.812441 0.625000
vt 0.187441 0.687559
vt 0.187559 0.687441
vt 0.187559 0.687559
vt 0.312441 0.687559
vt 0.312559 0.687441
vt 0.312559 0.687559
vt 0.437441 0.812559
vt 0.437559 0.812441
vt 0.437559 0.812559
vt 0.562441 0.687559
vt 0.562559 0.687441
vt 0.562559 0.687559
vt 0.562441 0.437559
vt 0.562559 0.437441
vt 0.562559 0.437559
vt 0.187441 0.562559
vt 0.187559 0.562441
vt 0.187559 0.562559
vt 0.562441 0.062559
vt 0.562559 0.062441
vt 0.562559 0.062559
vt 0.562441 0.187559
vt 0.562559 0.187441
vt 0.562559 0.187559
vt 0.750000 0.562559
vt 0.750000 0.562441
vt 0.812441 0.562559
vt 0.812559 0.562441
vt 0.812559 0.562559
vt 0.562559 0.125000
vt 0.562441 0.125000
vt 0.562441 0.125000
vt 0.562441 0.937559
vt 0.562559 0.937441
vt 0.562559 0.937559
vt 0.437441 0.062559
vt 0.437559 0.062441
vt 0.437559 0.062559
vt 0.625000 0.437441
vt 0.562441 0.500000
vt 0.562441 0.437441
vt 0.312441 0.500000
vt 0.375000 0.562559
vt 0.625000 0.812559
vt 0.562441 0.750000
vt 0.375000 0.687441
vt 0.312441 0.750000
vt 0.312441 0.687441
vt 0.562441 0.187441
vt 0.125000 0.562559
vt 0.187559 0.500000
vt 0.562441 1.000000
vt 0.625000 1.000000
vt 0.187559 0.750000
vt 0.125000 0.687441
vt 0.125000 0.625000
vt 0.125000 0.687559
vt 0.187441 0.500000
vt 0.250000 0.562559
vt 0.437441 0.437441
vt 0.500000 0.062559
vt 0.437441 0.000000
vt 0.500000 0.000000
vt 0.437441 0.687441
vt 0.437441 0.187441
vt 0.625000 0.875000
vt 0.625000 0.937559
vt 0.687559 0.562441
vt 0.187441 0.750000
vt 0.250000 0.687441
vt 0.250000 0.750000
vt 0.625000 0.125000
vt 0.562441 0.375000
vt 0.625000 0.375000
vt 0.312441 0.562441
vt 0.625000 0.250000
vt 0.625000 0.187559
vt 0.812559 0.625000
vt 0.562441 0.000000
vt 0.625000 0.062559
vt 0.500000 0.062559
vt 0.625000 0.062441
vt 0.562441 0.062441
vt 0.562559 0.125000
vt 0.562441 0.937441
vt 0.625000 0.937441
vt 0.312559 0.750000
vt 0.625000 0.437559
vt 0.437559 0.000000
vt 0.562441 0.687441
vt 0.625000 0.812441
vt 0.687559 0.562559
vt 0.187441 0.687441
vt 0.812441 0.687441
vt 0.437441 0.312441
vt 0.562441 0.312441
vt 0.437441 0.562441
vt 0.562441 0.562441
vt 0.187441 0.562441
vt 0.437441 0.062441
vt 0.437441 0.812441
vt 0.562441 0.812441
vt 0.687441 0.562559
vt 0.687441 0.562441
vt 0.625000 0.312559
vt 0.812441 0.562441
vt 0.562559 0.000000
vt 0.875000 0.687559
vt 0.687441 0.687441
vt 0.562441 1.000000
vt 0.437441 0.937441
vt 0.187559 0.625000
vt 0.250000 0.500000
vt 0.562441 0.875000
vt 0.125000 0.562441
vt 0.312559 0.500000
s 0
usemtl Material
f 67/1/1 118/2/1 23/3/1
f 68/4/1 52/5/1 100/6/1
f 15/7/2 82/8/2 50/9/2
f 84/10/3 10/11/3 77/12/3
f 8/13/4 99/14/4 47/15/4
f 2/16/3 86/17/3 38/18/3
f 101/19/1 7/20/1 56/21/1
f 92/22/5 18/23/5 28/24/5
f 14/25/2 111/26/2 73/27/2
f 64/28/5 105/29/5 13/30/5
f 6/31/6 90/32/6 34/33/6
f 35/34/3 76/35/3 5/36/3
f 40/37/6 126/38/6 94/39/6
f 51/40/2 32/41/2 19/42/2
f 80/43/2 4/44/2 33/45/2
f 20/46/4 120/47/4 39/48/4
f 97/49/4 25/50/4 61/51/4
f 104/52/4 109/53/4 69/54/4
f 88/55/6 24/56/6 30/57/6
f 78/58/6 63/59/6 87/60/6
f 44/61/4 60/62/4 11/63/4
f 57/64/3 46/65/3 83/66/3
f 71/67/2 37/68/2 79/69/2
f 31/70/6 29/71/6 17/72/6
f 119/73/5 127/74/5 121/75/5
f 65/76/5 49/77/5 91/78/5
f 74/79/3 114/80/3 103/80/3
f 106/81/1 115/82/1 112/83/1
f 95/84/2 124/85/2 66/86/2
f 53/87/4 43/88/4 96/89/4
f 41/90/5 27/91/5 26/92/5
f 1/93/7 2/94/7 3/95/7
f 4/96/8 5/97/8 6/31/8
f 7/98/9 8/13/9 9/99/9
f 10/100/10 11/101/10 12/102/10
f 14/25/11 16/103/11 13/30/11
f 17/72/12 18/104/12 19/105/12
f 21/106/13 23/107/13 20/46/13
f 24/56/14 25/108/14 26/109/14
f 28/110/15 30/57/15 27/111/15
f 32/112/16 34/113/16 31/70/16
f 36/114/17 38/18/17 35/34/17
f 40/115/18 42/116/18 43/117/18
f 45/118/19 47/15/19 44/61/19
f 49/77/11 51/40/11 48/119/11
f 53/87/13 55/120/13 52/121/13
f 57/64/20 59/122/20 56/21/20
f 61/123/21 63/124/21 60/125/21
f 65/86/22 67/126/22 69/126/22
f 71/127/7 73/27/7 74/128/7
f 76/35/23 78/58/23 75/129/23
f 80/43/2 82/8/2 79/69/2
f 84/10/3 86/17/3 83/66/3
f 88/55/6 90/32/6 87/60/6
f 92/22/24 94/39/24 95/84/24
f 97/49/4 99/14/4 96/89/4
f 101/19/25 103/80/25 104/52/25
f 105/29/22 106/30/22 107/130/22
f 108/131/26 109/126/26 110/28/26
f 111/26/7 112/27/7 113/128/7
f 114/80/9 115/82/9 116/132/9
f 117/133/26 118/134/26 119/73/26
f 120/117/14 121/115/14 122/135/14
f 123/136/22 124/86/22 125/137/22
f 126/38/12 127/74/12 128/138/12
f 24/56/20 27/111/20 30/57/20
f 17/72/13 32/112/13 31/70/13
f 5/36/27 36/114/27 35/34/27
f 21/139/2 39/48/2 43/88/2
f 11/63/11 45/118/11 44/61/11
f 19/42/19 48/119/19 51/40/19
f 22/140/16 53/87/16 52/121/16
f 7/20/15 57/64/15 56/21/15
f 12/102/28 60/141/28 63/59/28
f 13/30/3 65/76/3 64/28/3
f 1/93/21 71/67/21 70/142/21
f 6/31/29 76/35/29 75/129/29
f 29/71/20 18/104/20 17/72/20
f 34/33/30 4/96/30 6/31/30
f 38/18/27 3/95/27 2/16/27
f 42/116/17 26/92/17 25/143/17
f 47/15/11 9/144/11 8/13/11
f 50/9/19 16/103/19 15/7/19
f 55/145/31 8/13/31 7/98/31
f 59/122/15 2/16/15 1/146/15
f 62/147/28 25/108/28 24/56/28
f 68/4/6 23/3/6 22/148/6
f 73/27/4 15/7/4 14/25/4
f 78/58/29 10/11/29 12/102/29
f 37/68/4 80/43/4 79/69/4
f 82/8/4 51/40/4 50/9/4
f 33/45/4 81/149/4 80/43/4
f 79/69/4 72/150/4 71/67/4
f 46/65/5 84/10/5 83/66/5
f 86/17/5 35/34/5 38/18/5
f 77/12/5 85/151/5 84/10/5
f 83/66/5 58/152/5 57/64/5
f 63/59/1 88/55/1 87/60/1
f 90/32/1 31/70/1 34/33/1
f 30/57/1 89/153/1 88/55/1
f 87/60/1 75/129/1 78/58/1
f 49/77/3 92/22/3 91/78/3
f 94/39/20 41/90/20 40/37/20
f 28/24/3 93/154/3 92/22/3
f 91/78/19 66/86/19 65/76/19
f 43/88/2 97/49/2 96/89/2
f 99/14/2 44/61/2 47/15/2
f 61/51/2 98/155/2 97/49/2
f 96/89/2 54/156/2 53/87/2
f 52/5/6 101/19/6 100/6/6
f 103/80/15 70/157/15 74/79/15
f 56/21/6 102/158/6 101/19/6
f 100/6/31 69/54/31 68/4/31
f 106/30/23 108/131/23 110/28/23
f 112/27/21 107/159/21 106/25/21
f 115/82/15 113/79/15 112/83/15
f 116/132/31 110/160/31 109/53/31
f 105/29/19 14/25/19 13/30/19
f 74/128/27 111/26/27 113/128/27
f 109/126/17 64/28/17 69/126/17
f 114/80/11 104/52/11 103/80/11
f 117/133/17 121/75/17 120/161/17
f 123/136/23 119/73/23 118/134/23
f 127/74/20 122/135/20 121/75/20
f 128/138/19 125/137/19 124/85/19
f 126/38/13 95/84/13 94/39/13
f 67/126/21 124/85/21 123/126/21
f 120/117/28 40/37/28 39/117/28
f 118/107/16 20/46/16 23/107/16
f 70/157/1 59/122/1 1/146/1
f 67/1/1 123/162/1 118/2/1
f 68/4/1 22/148/1 52/5/1
f 15/7/2 72/150/2 82/8/2
f 84/10/3 45/118/3 10/11/3
f 8/13/4 54/156/4 99/14/4
f 2/16/3 58/152/3 86/17/3
f 101/19/1 55/163/1 7/20/1
f 92/22/5 48/119/5 18/23/5
f 14/25/2 107/159/2 111/26/2
f 64/28/5 108/131/5 105/29/5
f 6/31/6 75/129/6 90/32/6
f 35/34/3 85/151/3 76/35/3
f 40/37/6 122/135/6 126/38/6
f 51/40/2 81/149/2 32/41/2
f 80/43/2 36/114/2 4/44/2
f 20/46/4 117/164/4 120/47/4
f 97/49/4 42/165/4 25/50/4
f 104/52/4 116/132/4 109/53/4
f 88/55/6 62/147/6 24/56/6
f 78/58/6 12/102/6 63/59/6
f 44/61/4 98/155/4 60/62/4
f 57/64/3 9/144/3 46/65/3
f 71/67/2 3/95/2 37/68/2
f 31/70/6 89/153/6 29/71/6
f 119/73/5 125/137/5 127/74/5
f 65/76/5 16/103/5 49/77/5
f 74/79/3 113/79/3 114/80/3
f 106/81/1 110/160/1 115/82/1
f 95/84/2 128/138/2 124/85/2
f 53/87/4 21/139/4 43/88/4
f 41/90/5 93/154/5 27/91/5
f 14/25/11 15/7/11 16/103/11
f 21/106/13 22/107/13 23/107/13
f 28/110/15 29/166/15 30/57/15
f 32/112/16 33/167/16 34/113/16
f 36/114/17 37/68/17 38/18/17
f 43/117/21 39/117/21 40/115/21
f 40/115/14 41/90/14 42/116/14
f 45/118/19 46/65/19 47/15/19
f 49/77/11 50/9/11 51/40/11
f 53/87/13 54/168/13 55/120/13
f 57/64/20 58/152/20 59/122/20
f 61/123/21 62/147/21 63/124/21
f 69/126/27 64/126/27 65/86/27
f 65/86/22 66/86/22 67/126/22
f 67/126/13 68/126/13 69/126/13
f 74/128/7 70/128/7 71/127/7
f 71/127/2 72/150/2 73/27/2
f 76/35/23 77/12/23 78/58/23
f 80/43/2 81/149/2 82/8/2
f 84/10/3 85/151/3 86/17/3
f 88/55/6 89/153/6 90/32/6
f 95/84/11 91/78/11 92/22/11
f 92/22/15 93/154/15 94/39/15
f 97/49/4 98/155/4 99/14/4
f 104/52/13 100/6/13 101/19/13
f 101/19/20 102/158/20 103/80/20
f 24/56/20 26/109/20 27/111/20
f 17/72/30 19/105/30 32/112/30
f 5/36/27 4/44/27 36/114/27
f 21/139/2 20/46/2 39/48/2
f 11/63/11 10/11/11 45/118/11
f 19/42/19 18/23/19 48/119/19
f 22/140/31 21/139/31 53/87/31
f 7/20/15 9/144/15 57/64/15
f 12/102/28 11/101/28 60/141/28
f 13/30/3 16/103/3 65/76/3
f 1/93/21 3/95/21 71/67/21
f 6/31/29 5/36/29 76/35/29
f 29/71/20 28/169/20 18/104/20
f 34/33/13 33/170/13 4/96/13
f 38/18/27 37/68/27 3/95/27
f 42/116/17 41/90/17 26/92/17
f 47/15/11 46/65/11 9/144/11
f 50/9/19 49/77/19 16/103/19
f 55/145/16 54/156/16 8/13/16
f 59/122/15 58/152/15 2/16/15
f 62/147/28 61/123/28 25/108/28
f 68/4/6 67/1/6 23/3/6
f 73/27/4 72/150/4 15/7/4
f 78/58/29 77/12/29 10/11/29
f 37/68/4 36/114/4 80/43/4
f 82/8/4 81/149/4 51/40/4
f 33/45/4 32/41/4 81/149/4
f 79/69/4 82/8/4 72/150/4
f 46/65/5 45/118/5 84/10/5
f 86/17/5 85/151/5 35/34/5
f 77/12/5 76/35/5 85/151/5
f 83/66/5 86/17/5 58/152/5
f 63/59/1 62/147/1 88/55/1
f 90/32/1 89/153/1 31/70/1
f 30/57/1 29/71/1 89/153/1
f 87/60/1 90/32/1 75/129/1
f 49/77/3 48/119/3 92/22/3
f 94/39/20 93/154/20 41/90/20
f 28/24/3 27/91/3 93/154/3
f 91/78/19 95/84/19 66/86/19
f 43/88/2 42/165/2 97/49/2
f 99/14/2 98/155/2 44/61/2
f 61/51/2 60/62/2 98/155/2
f 96/89/2 99/14/2 54/156/2
f 52/5/6 55/163/6 101/19/6
f 103/80/15 102/158/15 70/157/15
f 56/21/6 59/122/6 102/158/6
f 100/6/16 104/52/16 69/54/16
f 106/30/23 105/29/23 108/131/23
f 112/27/21 111/26/21 107/159/21
f 115/82/15 114/80/15 113/79/15
f 116/132/16 115/82/16 110/160/16
f 105/29/19 107/159/19 14/25/19
f 74/128/27 73/27/27 111/26/27
f 109/126/17 108/131/17 64/28/17
f 114/80/11 116/132/11 104/52/11
f 117/133/17 119/73/17 121/75/17
f 123/136/23 125/137/23 119/73/23
f 127/74/20 126/38/20 122/135/20
f 128/138/19 127/74/19 125/137/19
f 126/38/13 128/138/13 95/84/13
f 67/126/21 66/86/21 124/85/21
f 120/117/28 122/135/28 40/37/28
f 118/107/16 117/164/16 20/46/16
f 70/157/1 102/158/1 59/122/1
