# Blender 4.0.2
# www.blender.org
mtllib enemy210.mtl
o Cube
v 0.423545 0.843978 2.469342
v 0.252363 1.184059 1.872701
v -0.252043 1.008376 2.337081
v -0.886109 0.838234 1.583996
v -0.381702 1.013917 1.119616
v -0.845777 0.503374 0.961758
v 1.138122 0.345655 1.980283
v 1.178453 0.010795 1.358044
v 0.966940 0.685736 1.383642
v 0.332874 0.515594 0.630557
v 0.544387 -0.159347 0.604959
v -0.131201 0.005051 0.472699
v 0.302383 -0.345132 3.503942
v 0.090870 0.329809 3.529540
v -0.544387 0.159347 2.775041
v -0.332874 -0.515594 2.749443
v -1.138122 -0.345655 1.399717
v -0.966940 -0.685736 1.996358
v -1.178453 -0.010795 2.021956
v 0.593215 -1.688858 2.234787
v 0.886109 -0.838234 1.796004
v 0.845777 -0.503374 2.418242
v 0.552884 -1.353998 2.857025
v -0.423545 -0.843978 0.910658
v 0.252043 -1.008376 1.042919
v -0.252363 -1.184059 1.507299
v -0.251692 -1.184527 1.506840
v -0.967611 -0.685268 1.996818
v -1.138793 -0.345187 1.400177
v -0.422874 -0.844446 0.910199
v -1.138396 -0.346452 1.400129
v -1.178727 -0.011592 2.022367
v -0.885834 0.839032 1.583585
v -0.845503 0.504171 0.961346
v -0.382298 1.013757 1.118909
v -0.886704 0.838074 1.583289
v -0.251447 1.008536 2.337788
v 0.252959 1.184219 1.873408
v 0.593811 -1.688698 2.235494
v -0.081777 -1.524300 2.103233
v -0.252959 -1.184219 1.506592
v 0.251447 -1.008536 1.042212
v 0.886704 -0.838074 1.796711
v 0.543792 -0.159507 0.604252
v 0.332279 0.515434 0.629850
v 0.967535 0.685896 1.384349
v 1.179048 0.010954 1.358752
v -0.967535 -0.685896 1.995651
v -0.332279 -0.515434 2.750150
v -0.543792 0.159507 2.775748
v -1.179048 -0.010954 2.021249
v 0.845503 -0.504171 2.418654
v 0.885834 -0.839032 1.796415
v 1.178727 0.011592 1.357633
v 1.138396 0.346452 1.979871
v 1.138793 0.345187 1.979823
v 0.967611 0.685268 1.383182
v 0.251692 1.184527 1.873160
v 0.422874 0.844446 2.469801
v 0.544662 -0.158550 0.604548
v 0.251768 -1.009174 1.043331
v -0.423819 -0.844775 0.911070
v -0.130926 0.005849 0.472287
v 0.301711 -0.344664 3.504402
v -0.333545 -0.515126 2.749902
v -0.122033 -1.190067 2.724305
v 0.553555 -1.354466 2.856566
v 0.846449 -0.503842 2.417783
v 0.806117 -0.168982 3.040022
v 0.423819 0.844775 2.468930
v -0.251768 1.009174 2.336669
v -0.544662 0.158550 2.775452
v 0.090595 0.329011 3.529952
v 0.595001 0.504694 3.065571
v -0.846449 0.503842 0.962217
v -0.382374 1.014385 1.120075
v 0.333545 0.515126 0.630098
v -0.130530 0.004583 0.472239
v -0.251173 1.009334 2.337377
v -0.886430 0.838872 1.582877
v -1.179323 -0.011752 2.021660
v -0.544066 0.158710 2.776159
v 0.968207 0.685428 1.383890
v 0.332950 0.514966 0.629390
v -0.382969 1.014225 1.119368
v 0.252288 1.184687 1.873868
v -0.130255 0.005381 0.471828
v -0.423148 -0.845243 0.910610
v -1.139067 -0.345984 1.400588
v -0.846174 0.504640 0.961806
v -0.332950 -0.514966 2.750610
v -0.968207 -0.685428 1.996110
v -0.252288 -1.184687 1.506133
v -0.081106 -1.524768 2.102774
v -0.121437 -1.189908 2.725012
v 0.886430 -0.838872 1.797123
v 0.251173 -1.009334 1.042623
v 0.544066 -0.158710 0.603841
v 1.179323 0.011752 1.358340
v 0.846174 -0.504640 2.418195
v 1.139067 0.345984 1.979412
v 0.423148 0.845243 2.469390
v 0.594330 0.505162 3.066031
v 0.805843 -0.169779 3.040433
v 0.245928 -0.360281 3.436891
v 0.710003 0.150262 3.594749
v 0.034415 0.314660 3.462489
v 0.245257 -0.359813 3.437350
v 0.749663 -0.184131 2.972970
v 0.709332 0.150730 3.595209
v 0.034140 0.313863 3.462900
v 0.709728 0.149464 3.595161
v 0.538547 0.489545 2.998520
v 0.537875 0.490013 2.998979
v 0.709057 0.149932 3.595620
v 0.749388 -0.184928 2.973382
v 0.611084 -1.636963 2.208017
v 0.570753 -1.302102 2.830256
v 0.106678 -1.812645 2.672397
v 0.611680 -1.636803 2.208724
v 0.107274 -1.812485 2.673105
v -0.063908 -1.472404 2.076463
v 0.571424 -1.302570 2.829796
v -0.104163 -1.138172 2.697535
v 0.107349 -1.813113 2.671938
v -0.063237 -1.472872 2.076004
v 0.107945 -1.812953 2.672645
v -0.103568 -1.138012 2.698243
vn 0.6347 0.1703 0.7538
vn -0.7152 0.4988 0.4895
vn 0.2926 0.8498 -0.4384
vn 0.7152 -0.4988 -0.4895
vn -0.2926 -0.8498 0.4384
vn -0.6347 -0.1703 -0.7538
vn 0.1224 0.8769 0.4647
vn -0.6104 0.6803 -0.4057
vn 0.9483 0.3010 -0.1005
vn 0.2155 0.1043 -0.9709
vn -0.7127 -0.2482 0.6561
vn -0.9483 -0.3010 0.1005
vn 0.9545 -0.2323 0.1869
vn -0.1224 -0.8769 -0.4647
vn -0.6557 -0.7213 -0.2230
vn -0.9545 0.2323 -0.1869
vn -0.2988 0.9536 0.0362
vn 0.5089 -0.8262 -0.2418
vn 0.7127 0.2482 -0.6561
vn 0.6557 0.7213 0.2230
vn 0.0570 -0.4731 -0.8792
vn -0.2155 -0.1043 0.9709
vn -0.2419 0.4805 -0.8430
vn -0.6717 -0.6697 0.3168
vn 0.8780 0.2599 0.4021
vn 0.6104 -0.6803 0.4057
vn 0.6557 0.7214 0.2230
vn 0.2989 -0.9536 -0.0362
vn -0.6557 -0.7214 -0.2230
vn -0.0570 0.4731 0.8792
vn 0.2418 -0.4805 0.8430
vn 0.2988 -0.9536 -0.0362
vn 0.2419 -0.4805 0.8430
vn -0.2418 0.4805 -0.8430
vn -0.2989 0.9536 0.0362
vt 0.875000 0.687559
vt 0.875000 0.687441
vt 0.875000 0.687441
vt 0.812441 0.687559
vt 0.812559 0.687441
vt 0.812559 0.687559
vt 0.562441 0.312559
vt 0.562559 0.312441
vt 0.562559 0.312559
vt 0.437441 0.687559
vt 0.437559 0.687441
vt 0.437559 0.687559
vt 0.562441 0.812559
vt 0.562559 0.812441
vt 0.562559 0.812559
vt 0.562441 0.562559
vt 0.562559 0.562441
vt 0.562559 0.562559
vt 0.687441 0.687559
vt 0.687559 0.687441
vt 0.687559 0.687559
vt 0.437441 0.187559
vt 0.437559 0.187441
vt 0.437559 0.187559
vt 0.625000 0.312559
vt 0.625000 0.312441
vt 0.625000 0.312441
vt 0.625000 0.187559
vt 0.625000 0.187441
vt 0.625000 0.187441
vt 0.312441 0.562559
vt 0.312559 0.562441
vt 0.312559 0.562559
vt 0.437441 0.562559
vt 0.437559 0.562441
vt 0.437559 0.562559
vt 0.500000 0.062559
vt 0.500000 0.062441
vt 0.500000 0.062441
vt 0.437441 0.312559
vt 0.437559 0.312441
vt 0.437559 0.312559
vt 0.437441 0.437559
vt 0.437559 0.437441
vt 0.437559 0.437559
vt 0.562441 1.000000
vt 0.562559 1.000000
vt 0.562559 1.000000
vt 0.437441 0.937559
vt 0.437559 0.937441
vt 0.437559 0.937559
vt 0.812559 0.625000
vt 0.812441 0.625000
vt 0.812441 0.625000
vt 0.187441 0.687559
vt 0.187559 0.687441
vt 0.187559 0.687559
vt 0.312441 0.687559
vt 0.312559 0.687441
vt 0.312559 0.687559
vt 0.437441 0.812559
vt 0.437559 0.812441
vt 0.437559 0.812559
vt 0.562441 0.687559
vt 0.562559 0.687441
vt 0.562559 0.687559
vt 0.562441 0.437559
vt 0.562559 0.437441
vt 0.562559 0.437559
vt 0.187441 0.562559
vt 0.187559 0.562441
vt 0.187559 0.562559
vt 0.562441 0.062559
vt 0.562559 0.062441
vt 0.562559 0.062559
vt 0.562441 0.187559
vt 0.562559 0.187441
vt 0.562559 0.187559
vt 0.750000 0.562559
vt 0.750000 0.562441
vt 0.812441 0.562559
vt 0.812559 0.562441
vt 0.812559 0.562559
vt 0.562559 0.125000
vt 0.562441 0.125000
vt 0.562441 0.125000
vt 0.562441 0.937559
vt 0.562559 0.937441
vt 0.562559 0.937559
vt 0.437441 0.062559
vt 0.437559 0.062441
vt 0.437559 0.062559
vt 0.625000 0.437441
vt 0.562441 0.500000
vt 0.562441 0.437441
vt 0.312441 0.500000
vt 0.375000 0.562559
vt 0.625000 0.812559
vt 0.562441 0.750000
vt 0.375000 0.687441
vt 0.312441 0.750000
vt 0.312441 0.687441
vt 0.562441 0.187441
vt 0.125000 0.562559
vt 0.187559 0.500000
vt 0.562441 1.000000
vt 0.625000 1.000000
vt 0.187559 0.750000
vt 0.125000 0.687441
vt 0.125000 0.625000
vt 0.125000 0.687559
vt 0.187441 0.500000
vt 0.250000 0.562559
vt 0.437441 0.437441
vt 0.500000 0.062559
vt 0.437441 0.000000
vt 0.500000 0.000000
vt 0.437441 0.687441
vt 0.437441 0.187441
vt 0.625000 0.875000
vt 0.625000 0.937559
vt 0.687559 0.562441
vt 0.187441 0.750000
vt 0.250000 0.687441
vt 0.250000 0.750000
vt 0.625000 0.125000
vt 0.562441 0.375000
vt 0.625000 0.375000
vt 0.312441 0.562441
vt 0.625000 0.250000
vt 0.625000 0.187559
vt 0.812559 0.625000
vt 0.562441 0.000000
vt 0.625000 0.062559
vt 0.500000 0.062559
vt 0.625000 0.062441
vt 0.562441 0.062441
vt 0.562559 0.125000
vt 0.562441 0.937441
vt 0.625000 0.937441
vt 0.312559 0.750000
vt 0.625000 0.437559
vt 0.437559 0.000000
vt 0.562441 0.687441
vt 0.625000 0.812441
vt 0.687559 0.562559
vt 0.187441 0.687441
vt 0.812441 0.687441
vt 0.437441 0.312441
vt 0.562441 0.312441
vt 0.437441 0.562441
vt 0.562441 0.562441
vt 0.187441 0.562441
vt 0.437441 0.062441
vt 0.437441 0.812441
vt 0.562441 0.812441
vt 0.687441 0.562559
vt 0.687441 0.562441
vt 0.625000 0.312559
vt 0.812441 0.562441
vt 0.562559 0.000000
vt 0.875000 0.687559
vt 0.687441 0.687441
vt 0.562441 1.000000
vt 0.437441 0.937441
vt 0.187559 0.625000
vt 0.250000 0.500000
vt 0.562441 0.875000
vt 0.125000 0.562441
vt 0.312559 0.500000
s 0
usemtl Material
f 67/1/1 118/2/1 23/3/1
f 68/4/1 52/5/1 100/6/1
f 15/7/2 82/8/2 50/9/2
f 84/10/3 10/11/3 77/12/3
f 8/13/4 99/14/4 47/15/4
f 2/16/3 86/17/3 38/18/3
f 101/19/1 7/20/1 56/21/1
f 92/22/5 18/23/5 28/24/5
f 14/25/2 111/26/2 73/27/2
f 64/28/5 105/29/5 13/30/5
f 6/31/6 90/32/6 34/33/6
f 35/34/3 76/35/3 5/36/3
f 40/37/6 126/38/6 94/39/6
f 51/40/2 32/41/2 19/42/2
f 80/43/2 4/44/2 33/45/2
f 20/46/4 120/47/4 39/48/4
f 97/49/4 25/50/4 61/51/4
f 104/52/4 109/53/4 69/54/4
f 88/55/6 24/56/6 30/57/6
f 78/58/6 63/59/6 87/60/6
f 44/61/4 60/62/4 11/63/4
f 57/64/3 46/65/3 83/66/3
f 71/67/2 37/68/2 79/69/2
f 31/70/6 29/71/6 17/72/6
f 119/73/5 127/74/5 121/75/5
f 65/76/5 49/77/5 91/78/5
f 74/79/3 114/80/3 103/80/3
f 106/81/1 115/82/1 112/83/1
f 95/84/2 124/85/2 66/86/2
f 53/87/4 43/88/4 96/89/4
f 41/90/5 27/91/5 26/92/5
f 1/93/7 2/94/7 3/95/7
f 4/96/8 5/97/8 6/31/8
f 7/98/9 8/13/9 9/99/9
f 10/100/10 11/101/10 12/102/10
f 14/25/11 16/103/11 13/30/11
f 17/72/12 18/104/12 19/105/12
f 21/106/13 23/107/13 20/46/13
f 24/56/14 25/108/14 26/109/14
f 28/110/15 30/57/15 27/111/15
f 32/112/16 34/113/16 31/70/16
f 36/114/17 38/18/17 35/34/17
f 40/115/18 42/116/18 43/117/18
f 45/118/19 47/15/19 44/61/19
f 49/77/11 51/40/11 48/119/11
f 53/87/13 55/120/13 52/121/13
f 57/64/20 59/122/20 56/21/20
f 61/123/21 63/124/21 60/125/21
f 65/86/22 67/126/22 69/126/22
f 71/127/7 73/27/7 74/128/7
f 76/35/23 78/58/23 75/129/23
f 80/43/2 82/8/2 79/69/2
f 84/10/3 86/17/3 83/66/3
f 88/55/6 90/32/6 87/60/6
f 92/22/24 94/39/24 95/84/24
f 97/49/4 99/14/4 96/89/4
f 101/19/25 103/80/25 104/52/25
f 105/29/22 106/30/22 107/130/22
f 108/131/26 109/126/26 110/28/26
f 111/26/7 112/27/7 113/128/7
f 114/80/9 115/82/9 116/132/9
f 117/133/26 118/134/26 119/73/26
f 120/117/14 121/115/14 122/135/14
f 123/136/22 124/86/22 125/137/22
f 126/38/12 127/74/12 128/138/12
f 24/56/27 27/111/27 30/57/27
f 17/72/13 32/112/13 31/70/13
f 5/36/28 36/114/28 35/34/28
f 21/139/2 39/48/2 43/88/2
f 11/63/11 45/118/11 44/61/11
f 19/42/19 48/119/19 51/40/19
f 22/140/16 53/87/16 52/121/16
f 7/20/29 57/64/29 56/21/29
f 12/102/30 60/141/30 63/59/30
f 13/30/3 65/76/3 64/28/3
f 1/93/21 71/67/21 70/142/21
f 6/31/31 76/35/31 75/129/31
f 29/71/20 18/104/20 17/72/20
f 34/33/13 4/96/13 6/31/13
f 38/18/32 3/95/32 2/16/32
f 42/116/17 26/92/17 25/143/17
f 47/15/11 9/144/11 8/13/11
f 50/9/19 16/103/19 15/7/19
f 55/145/16 8/13/16 7/98/16
f 59/122/15 2/16/15 1/146/15
f 62/147/30 25/108/30 24/56/30
f 68/4/6 23/3/6 22/148/6
f 73/27/4 15/7/4 14/25/4
f 78/58/33 10/11/33 12/102/33
f 37/68/4 80/43/4 79/69/4
f 82/8/4 51/40/4 50/9/4
f 33/45/4 81/149/4 80/43/4
f 79/69/4 72/150/4 71/67/4
f 46/65/5 84/10/5 83/66/5
f 86/17/5 35/34/5 38/18/5
f 77/12/5 85/151/5 84/10/5
f 83/66/5 58/152/5 57/64/5
f 63/59/1 88/55/1 87/60/1
f 90/32/1 31/70/1 34/33/1
f 30/57/1 89/153/1 88/55/1
f 87/60/1 75/129/1 78/58/1
f 49/77/3 92/22/3 91/78/3
f 94/39/20 41/90/20 40/37/20
f 28/24/3 93/154/3 92/22/3
f 91/78/19 66/86/19 65/76/19
f 43/88/2 97/49/2 96/89/2
f 99/14/2 44/61/2 47/15/2
f 61/51/2 98/155/2 97/49/2
f 96/89/2 54/156/2 53/87/2
f 52/5/6 101/19/6 100/6/6
f 103/80/15 70/157/15 74/79/15
f 56/21/6 102/158/6 101/19/6
f 100/6/16 69/54/16 68/4/16
f 106/30/34 108/131/34 110/28/34
f 112/27/21 107/159/21 106/25/21
f 115/82/15 113/79/15 112/83/15
f 116/132/16 110/160/16 109/53/16
f 105/29/19 14/25/19 13/30/19
f 74/128/32 111/26/32 113/128/32
f 109/126/17 64/28/17 69/126/17
f 114/80/11 104/52/11 103/80/11
f 117/133/35 121/75/35 120/161/35
f 123/136/23 119/73/23 118/134/23
f 127/74/20 122/135/20 121/75/20
f 128/138/19 125/137/19 124/85/19
f 126/38/13 95/84/13 94/39/13
f 67/126/21 124/85/21 123/126/21
f 120/117/30 40/37/30 39/117/30
f 118/107/16 20/46/16 23/107/16
f 70/157/1 59/122/1 1/146/1
f 67/1/1 123/162/1 118/2/1
f 68/4/1 22/148/1 52/5/1
f 15/7/2 72/150/2 82/8/2
f 84/10/3 45/118/3 10/11/3
f 8/13/4 54/156/4 99/14/4
f 2/16/3 58/152/3 86/17/3
f 101/19/1 55/163/1 7/20/1
f 92/22/5 48/119/5 18/23/5
f 14/25/2 107/159/2 111/26/2
f 64/28/5 108/131/5 105/29/5
f 6/31/6 75/129/6 90/32/6
f 35/34/3 85/151/3 76/35/3
f 40/37/6 122/135/6 126/38/6
f 51/40/2 81/149/2 32/41/2
f 80/43/2 36/114/2 4/44/2
f 20/46/4 117/164/4 120/47/4
f 97/49/4 42/165/4 25/50/4
f 104/52/4 116/132/4 109/53/4
f 88/55/6 62/147/6 24/56/6
f 78/58/6 12/102/6 63/59/6
f 44/61/4 98/155/4 60/62/4
f 57/64/3 9/144/3 46/65/3
f 71/67/2 3/95/2 37/68/2
f 31/70/6 89/153/6 29/71/6
f 119/73/5 125/137/5 127/74/5
f 65/76/5 16/103/5 49/77/5
f 74/79/3 113/79/3 114/80/3
f 106/81/1 110/160/1 115/82/1
f 95/84/2 128/138/2 124/85/2
f 53/87/4 21/139/4 43/88/4
f 41/90/5 93/154/5 27/91/5
f 14/25/11 15/7/11 16/103/11
f 21/106/13 22/107/13 23/107/13
f 28/110/15 29/166/15 30/57/15
f 32/112/16 33/167/16 34/113/16
f 36/114/17 37/68/17 38/18/17
f 43/117/21 39/117/21 40/115/21
f 40/115/14 41/90/14 42/116/14
f 45/118/19 46/65/19 47/15/19
f 49/77/11 50/9/11 51/40/11
f 53/87/13 54/168/13 55/120/13
f 57/64/20 58/152/20 59/122/20
f 61/123/21 62/147/21 63/124/21
f 69/126/32 64/126/32 65/86/32
f 65/86/22 66/86/22 67/126/22
f 67/126/13 68/126/13 69/126/13
f 74/128/7 70/128/7 71/127/7
f 71/127/2 72/150/2 73/27/2
f 76/35/23 77/12/23 78/58/23
f 80/43/2 81/149/2 82/8/2
f 84/10/3 85/151/3 86/17/3
f 88/55/6 89/153/6 90/32/6
f 95/84/11 91/78/11 92/22/11
f 92/22/15 93/154/15 94/39/15
f 97/49/4 98/155/4 99/14/4
f 104/52/13 100/6/13 101/19/13
f 101/19/20 102/158/20 103/80/20
f 24/56/20 26/109/20 27/111/20
f 17/72/13 19/105/13 32/112/13
f 5/36/32 4/44/32 36/114/32
f 21/139/2 20/46/2 39/48/2
f 11/63/11 10/11/11 45/118/11
f 19/42/19 18/23/19 48/119/19
f 22/140/16 21/139/16 53/87/16
f 7/20/15 9/144/15 57/64/15
f 12/102/30 11/101/30 60/141/30
f 13/30/3 16/103/3 65/76/3
f 1/93/21 3/95/21 71/67/21
f 6/31/33 5/36/33 76/35/33
f 29/71/27 28/169/27 18/104/27
f 34/33/13 33/170/13 4/96/13
f 38/18/28 37/68/28 3/95/28
f 42/116/35 41/90/35 26/92/35
f 47/15/11 46/65/11 9/144/11
f 50/9/19 49/77/19 16/103/19
f 55/145/16 54/156/16 8/13/16
f 59/122/29 58/152/29 2/16/29
f 62/147/30 61/123/30 25/108/30
f 68/4/6 67/1/6 23/3/6
f 73/27/4 72/150/4 15/7/4
f 78/58/31 77/12/31 10/11/31
f 37/68/4 36/114/4 80/43/4
f 82/8/4 81/149/4 51/40/4
f 33/45/4 32/41/4 81/149/4
f 79/69/4 82/8/4 72/150/4
f 46/65/5 45/118/5 84/10/5
f 86/17/5 85/151/5 35/34/5
f 77/12/5 76/35/5 85/151/5
f 83/66/5 86/17/5 58/152/5
f 63/59/1 62/147/1 88/55/1
f 90/32/1 89/153/1 31/70/1
f 30/57/1 29/71/1 89/153/1
f 87/60/1 90/32/1 75/129/1
f 49/77/3 48/119/3 92/22/3
f 94/39/27 93/154/27 41/90/27
f 28/24/3 27/91/3 93/154/3
f 91/78/19 95/84/19 66/86/19
f 43/88/2 42/165/2 97/49/2
f 99/14/2 98/155/2 44/61/2
f 61/51/2 60/62/2 98/155/2
f 96/89/2 99/14/2 54/156/2
f 52/5/6 55/163/6 101/19/6
f 103/80/29 102/158/29 70/157/29
f 56/21/6 59/122/6 102/158/6
f 100/6/16 104/52/16 69/54/16
f 106/30/23 105/29/23 108/131/23
f 112/27/21 111/26/21 107/159/21
f 115/82/29 114/80/29 113/79/29
f 116/132/16 115/82/16 110/160/16
f 105/29/19 107/159/19 14/25/19
f 74/128/32 73/27/32 111/26/32
f 109/126/17 108/131/17 64/28/17
f 114/80/11 116/132/11 104/52/11
f 117/133/17 119/73/17 121/75/17
f 123/136/34 125/137/34 119/73/34
f 127/74/27 126/38/27 122/135/27
f 128/138/19 127/74/19 125/137/19
f 126/38/13 128/138/13 95/84/13
f 67/126/21 66/86/21 124/85/21
f 120/117/30 122/135/30 40/37/30
f 118/107/16 117/164/16 20/46/16
f 70/157/1 102/158/1 59/122/1
