# Blender 4.0.2
# www.blender.org
mtllib enemy23.mtl
o Cube
v 0.922437 0.642050 2.175742
v 0.748099 0.961619 1.568765
v 0.362657 1.074484 2.151547
v -0.464544 1.128731 1.593944
v -0.079101 1.015867 1.011163
v -0.733518 0.750646 1.059489
v 1.212697 -0.166951 1.666438
v 0.943723 -0.545037 1.131982
v 1.038360 0.152619 1.059461
v 0.211159 0.206866 0.501858
v 0.116522 -0.490790 0.574379
v -0.443258 -0.058355 0.550184
v 0.617595 -0.261215 3.436792
v 0.712232 0.436441 3.364271
v -0.116522 0.490790 2.805621
v -0.211159 -0.206866 2.878142
v -1.212697 0.166951 1.713562
v -1.038360 -0.152619 2.320539
v -0.943723 0.545037 2.248018
v -0.015535 -1.713522 2.441358
v 0.464544 -1.128731 1.786056
v 0.733518 -0.750646 2.320511
v 0.253439 -1.335436 2.975814
v -0.922437 -0.642050 1.204258
v -0.362657 -1.074484 1.228453
v -0.748099 -0.961619 1.811235
v -0.747826 -0.962379 1.810756
v -1.038632 -0.151859 2.321017
v -1.212970 0.167711 1.714041
v -0.922164 -0.642809 1.203780
v -1.213147 0.166403 1.714177
v -0.944173 0.544489 2.248632
v -0.464094 1.129280 1.593330
v -0.733068 0.751194 1.058874
v -0.079878 1.015918 1.010639
v -0.465321 1.128782 1.593421
v 0.363434 1.074433 2.152071
v 0.748876 0.961569 1.569289
v -0.014758 -1.713573 2.441882
v -0.574538 -1.281138 2.417687
v -0.748876 -0.961569 1.810711
v -0.363434 -1.074433 1.227929
v 0.465321 -1.128782 1.786580
v 0.115745 -0.490739 0.573856
v 0.210382 0.206917 0.501335
v 1.039137 0.152568 1.059985
v 0.944500 -0.545088 1.132506
v -1.039137 -0.152568 2.320015
v -0.210382 -0.206917 2.878665
v -0.115745 0.490739 2.806145
v -0.944500 0.545088 2.247494
v 0.733068 -0.751194 2.321126
v 0.464094 -1.129280 1.786670
v 0.944173 -0.544489 1.131368
v 1.213147 -0.166403 1.665823
v 1.212970 -0.167711 1.665959
v 1.038632 0.151859 1.058983
v 0.747826 0.962379 1.569244
v 0.922164 0.642809 2.176220
v 0.116972 -0.490242 0.573765
v -0.363107 -1.075032 1.229067
v -0.922887 -0.642598 1.204873
v -0.442808 -0.057807 0.549570
v 0.617323 -0.260455 3.437270
v -0.211432 -0.206106 2.878620
v -0.306069 -0.903762 2.951141
v 0.253712 -1.336196 2.975336
v 0.733791 -0.751405 2.320033
v 1.002765 -0.373320 2.854489
v 0.922887 0.642598 2.175128
v 0.363107 1.075032 2.150933
v -0.116972 0.490242 2.806235
v 0.711782 0.435893 3.364886
v 1.097224 0.323028 2.782104
v -0.733791 0.751405 1.059967
v -0.079374 1.016626 1.011641
v 0.211432 0.206106 0.501380
v -0.442985 -0.059115 0.549706
v 0.363884 1.074982 2.151457
v -0.464871 1.129331 1.592806
v -0.944950 0.544540 2.248109
v -0.116195 0.490191 2.806759
v 1.039409 0.151808 1.059507
v 0.210655 0.206157 0.500856
v -0.080151 1.016677 1.011117
v 0.748603 0.962328 1.569768
v -0.442535 -0.058567 0.549092
v -0.922614 -0.643358 1.204394
v -1.213420 0.167163 1.714655
v -0.733341 0.751954 1.059353
v -0.210655 -0.206157 2.879144
v -1.039409 -0.151808 2.320493
v -0.748603 -0.962328 1.810233
v -0.574266 -1.281898 2.417209
v -0.305292 -0.903813 2.951664
v 0.464871 -1.129331 1.787194
v -0.363884 -1.074982 1.228544
v 0.116195 -0.490191 0.573241
v 0.944950 -0.544540 1.131891
v 0.733341 -0.751954 2.320647
v 1.213420 -0.167163 1.665345
v 0.922614 0.643358 2.175606
v 1.096952 0.323788 2.782582
v 1.002315 -0.373868 2.855103
v 0.543945 -0.256385 3.387145
v 1.198361 0.008836 3.338819
v 0.638581 0.441271 3.314625
v 0.543672 -0.255625 3.387624
v 0.929114 -0.368490 2.804842
v 1.198089 0.009596 3.339298
v 0.638131 0.440723 3.315239
v 1.197911 0.008288 3.339434
v 1.023574 0.327858 2.732457
v 1.023301 0.328618 2.732935
v 1.197639 0.009048 3.339912
v 0.928664 -0.369038 2.805456
v 0.013754 -1.677845 2.401379
v 0.282728 -1.299759 2.935835
v -0.371689 -1.564980 2.984161
v 0.014531 -1.677896 2.401903
v -0.370912 -1.565031 2.984684
v -0.545249 -1.245461 2.377708
v 0.283001 -1.300519 2.935356
v -0.276779 -0.868084 2.911162
v -0.371416 -1.565740 2.983682
v -0.544977 -1.246221 2.377230
v -0.370639 -1.565791 2.984206
v -0.276002 -0.868135 2.911685
vn 0.8280 -0.0543 0.5581
vn -0.2905 0.8098 0.5098
vn 0.4796 0.5842 -0.6547
vn 0.2905 -0.8098 -0.5098
vn -0.4796 -0.5842 0.6547
vn -0.8280 0.0543 -0.5581
vn 0.5872 0.7735 0.2386
vn -0.3689 0.8362 -0.4059
vn 0.9227 -0.1616 -0.3501
vn -0.0334 -0.0989 -0.9945
vn -0.5446 0.1595 0.8234
vn -0.9227 0.1616 0.3501
vn 0.7909 -0.6110 0.0342
vn -0.5872 -0.7735 -0.2386
vn -0.9246 -0.3747 0.0683
vn -0.7909 0.6110 -0.0342
vn 0.1337 0.9857 -0.1025
vn 0.0454 -0.9856 -0.1632
vn 0.5446 -0.1595 -0.8234
vn 0.9246 0.3747 -0.0683
vn -0.3800 -0.5342 -0.7551
vn 0.0334 0.0989 0.9945
vn -0.2463 0.4515 -0.8576
vn -0.7711 -0.2679 0.5776
vn 0.9811 -0.1171 0.1537
vn 0.3689 -0.8362 0.4059
vn -0.1337 -0.9857 0.1024
vn 0.3800 0.5342 0.7551
vn 0.2463 -0.4515 0.8576
vn -0.1337 -0.9857 0.1025
vn 0.1337 0.9857 -0.1024
vt 0.875000 0.687559
vt 0.875000 0.687441
vt 0.875000 0.687441
vt 0.812441 0.687559
vt 0.812559 0.687441
vt 0.812559 0.687559
vt 0.562441 0.312559
vt 0.562559 0.312441
vt 0.562559 0.312559
vt 0.437441 0.687559
vt 0.437559 0.687441
vt 0.437559 0.687559
vt 0.562441 0.812559
vt 0.562559 0.812441
vt 0.562559 0.812559
vt 0.562441 0.562559
vt 0.562559 0.562441
vt 0.562559 0.562559
vt 0.687441 0.687559
vt 0.687559 0.687441
vt 0.687559 0.687559
vt 0.437441 0.187559
vt 0.437559 0.187441
vt 0.437559 0.187559
vt 0.625000 0.312559
vt 0.625000 0.312441
vt 0.625000 0.312441
vt 0.625000 0.187559
vt 0.625000 0.187441
vt 0.625000 0.187441
vt 0.312441 0.562559
vt 0.312559 0.562441
vt 0.312559 0.562559
vt 0.437441 0.562559
vt 0.437559 0.562441
vt 0.437559 0.562559
vt 0.500000 0.062559
vt 0.500000 0.062441
vt 0.500000 0.062441
vt 0.437441 0.312559
vt 0.437559 0.312441
vt 0.437559 0.312559
vt 0.437441 0.437559
vt 0.437559 0.437441
vt 0.437559 0.437559
vt 0.562441 1.000000
vt 0.562559 1.000000
vt 0.562559 1.000000
vt 0.437441 0.937559
vt 0.437559 0.937441
vt 0.437559 0.937559
vt 0.812559 0.625000
vt 0.812441 0.625000
vt 0.812441 0.625000
vt 0.187441 0.687559
vt 0.187559 0.687441
vt 0.187559 0.687559
vt 0.312441 0.687559
vt 0.312559 0.687441
vt 0.312559 0.687559
vt 0.437441 0.812559
vt 0.437559 0.812441
vt 0.437559 0.812559
vt 0.562441 0.687559
vt 0.562559 0.687441
vt 0.562559 0.687559
vt 0.562441 0.437559
vt 0.562559 0.437441
vt 0.562559 0.437559
vt 0.187441 0.562559
vt 0.187559 0.562441
vt 0.187559 0.562559
vt 0.562441 0.062559
vt 0.562559 0.062441
vt 0.562559 0.062559
vt 0.562441 0.187559
vt 0.562559 0.187441
vt 0.562559 0.187559
vt 0.750000 0.562559
vt 0.750000 0.562441
vt 0.812441 0.562559
vt 0.812559 0.562441
vt 0.812559 0.562559
vt 0.562559 0.125000
vt 0.562441 0.125000
vt 0.562441 0.125000
vt 0.562441 0.937559
vt 0.562559 0.937441
vt 0.562559 0.937559
vt 0.437441 0.062559
vt 0.437559 0.062441
vt 0.437559 0.062559
vt 0.625000 0.437441
vt 0.562441 0.500000
vt 0.562441 0.437441
vt 0.312441 0.500000
vt 0.375000 0.562559
vt 0.625000 0.812559
vt 0.562441 0.750000
vt 0.375000 0.687441
vt 0.312441 0.750000
vt 0.312441 0.687441
vt 0.562441 0.187441
vt 0.125000 0.562559
vt 0.187559 0.500000
vt 0.562441 1.000000
vt 0.625000 1.000000
vt 0.187559 0.750000
vt 0.125000 0.687441
vt 0.125000 0.625000
vt 0.125000 0.687559
vt 0.187441 0.500000
vt 0.250000 0.562559
vt 0.437441 0.437441
vt 0.500000 0.062559
vt 0.437441 0.000000
vt 0.500000 0.000000
vt 0.437441 0.687441
vt 0.437441 0.187441
vt 0.625000 0.875000
vt 0.625000 0.937559
vt 0.687559 0.562441
vt 0.187441 0.750000
vt 0.250000 0.687441
vt 0.250000 0.750000
vt 0.625000 0.125000
vt 0.562441 0.375000
vt 0.625000 0.375000
vt 0.312441 0.562441
vt 0.625000 0.250000
vt 0.625000 0.187559
vt 0.812559 0.625000
vt 0.562441 0.000000
vt 0.625000 0.062559
vt 0.500000 0.062559
vt 0.625000 0.062441
vt 0.562441 0.062441
vt 0.562559 0.125000
vt 0.562441 0.937441
vt 0.625000 0.937441
vt 0.312559 0.750000
vt 0.625000 0.437559
vt 0.437559 0.000000
vt 0.562441 0.687441
vt 0.625000 0.812441
vt 0.687559 0.562559
vt 0.187441 0.687441
vt 0.812441 0.687441
vt 0.437441 0.312441
vt 0.562441 0.312441
vt 0.437441 0.562441
vt 0.562441 0.562441
vt 0.187441 0.562441
vt 0.437441 0.062441
vt 0.437441 0.812441
vt 0.562441 0.812441
vt 0.687441 0.562559
vt 0.687441 0.562441
vt 0.625000 0.312559
vt 0.812441 0.562441
vt 0.562559 0.000000
vt 0.875000 0.687559
vt 0.687441 0.687441
vt 0.562441 1.000000
vt 0.437441 0.937441
vt 0.187559 0.625000
vt 0.250000 0.500000
vt 0.562441 0.875000
vt 0.125000 0.562441
vt 0.312559 0.500000
s 0
usemtl Material
f 67/1/1 118/2/1 23/3/1
f 68/4/1 52/5/1 100/6/1
f 15/7/2 82/8/2 50/9/2
f 84/10/3 10/11/3 77/12/3
f 8/13/4 99/14/4 47/15/4
f 2/16/3 86/17/3 38/18/3
f 101/19/1 7/20/1 56/21/1
f 92/22/5 18/23/5 28/24/5
f 14/25/2 111/26/2 73/27/2
f 64/28/5 105/29/5 13/30/5
f 6/31/6 90/32/6 34/33/6
f 35/34/3 76/35/3 5/36/3
f 40/37/6 126/38/6 94/39/6
f 51/40/2 32/41/2 19/42/2
f 80/43/2 4/44/2 33/45/2
f 20/46/4 120/47/4 39/48/4
f 97/49/4 25/50/4 61/51/4
f 104/52/4 109/53/4 69/54/4
f 88/55/6 24/56/6 30/57/6
f 78/58/6 63/59/6 87/60/6
f 44/61/4 60/62/4 11/63/4
f 57/64/3 46/65/3 83/66/3
f 71/67/2 37/68/2 79/69/2
f 31/70/6 29/71/6 17/72/6
f 119/73/5 127/74/5 121/75/5
f 65/76/5 49/77/5 91/78/5
f 74/79/3 114/80/3 103/80/3
f 106/81/1 115/82/1 112/83/1
f 95/84/2 124/85/2 66/86/2
f 53/87/4 43/88/4 96/89/4
f 41/90/5 27/91/5 26/92/5
f 1/93/7 2/94/7 3/95/7
f 4/96/8 5/97/8 6/31/8
f 7/98/9 8/13/9 9/99/9
f 10/100/10 11/101/10 12/102/10
f 14/25/11 16/103/11 13/30/11
f 17/72/12 18/104/12 19/105/12
f 21/106/13 23/107/13 20/46/13
f 24/56/14 25/108/14 26/109/14
f 28/110/15 30/57/15 27/111/15
f 32/112/16 34/113/16 31/70/16
f 36/114/17 38/18/17 35/34/17
f 40/115/18 42/116/18 43/117/18
f 45/118/19 47/15/19 44/61/19
f 49/77/11 51/40/11 48/119/11
f 53/87/13 55/120/13 52/121/13
f 57/64/20 59/122/20 56/21/20
f 61/123/21 63/124/21 60/125/21
f 65/86/22 67/126/22 69/126/22
f 71/127/7 73/27/7 74/128/7
f 76/35/23 78/58/23 75/129/23
f 80/43/2 82/8/2 79/69/2
f 84/10/3 86/17/3 83/66/3
f 88/55/6 90/32/6 87/60/6
f 92/22/24 94/39/24 95/84/24
f 97/49/4 99/14/4 96/89/4
f 101/19/25 103/80/25 104/52/25
f 105/29/22 106/30/22 107/130/22
f 108/131/26 109/126/26 110/28/26
f 111/26/7 112/27/7 113/128/7
f 114/80/9 115/82/9 116/132/9
f 117/133/26 118/134/26 119/73/26
f 120/117/14 121/115/14 122/135/14
f 123/136/22 124/86/22 125/137/22
f 126/38/12 127/74/12 128/138/12
f 24/56/20 27/111/20 30/57/20
f 17/72/13 32/112/13 31/70/13
f 5/36/27 36/114/27 35/34/27
f 21/139/2 39/48/2 43/88/2
f 11/63/11 45/118/11 44/61/11
f 19/42/19 48/119/19 51/40/19
f 22/140/16 53/87/16 52/121/16
f 7/20/15 57/64/15 56/21/15
f 12/102/28 60/141/28 63/59/28
f 13/30/3 65/76/3 64/28/3
f 1/93/21 71/67/21 70/142/21
f 6/31/29 76/35/29 75/129/29
f 29/71/20 18/104/20 17/72/20
f 34/33/13 4/96/13 6/31/13
f 38/18/30 3/95/30 2/16/30
f 42/116/17 26/92/17 25/143/17
f 47/15/11 9/144/11 8/13/11
f 50/9/19 16/103/19 15/7/19
f 55/145/16 8/13/16 7/98/16
f 59/122/15 2/16/15 1/146/15
f 62/147/28 25/108/28 24/56/28
f 68/4/6 23/3/6 22/148/6
f 73/27/4 15/7/4 14/25/4
f 78/58/29 10/11/29 12/102/29
f 37/68/4 80/43/4 79/69/4
f 82/8/4 51/40/4 50/9/4
f 33/45/4 81/149/4 80/43/4
f 79/69/4 72/150/4 71/67/4
f 46/65/5 84/10/5 83/66/5
f 86/17/5 35/34/5 38/18/5
f 77/12/5 85/151/5 84/10/5
f 83/66/5 58/152/5 57/64/5
f 63/59/1 88/55/1 87/60/1
f 90/32/1 31/70/1 34/33/1
f 30/57/1 89/153/1 88/55/1
f 87/60/1 75/129/1 78/58/1
f 49/77/3 92/22/3 91/78/3
f 94/39/20 41/90/20 40/37/20
f 28/24/3 93/154/3 92/22/3
f 91/78/19 66/86/19 65/76/19
f 43/88/2 97/49/2 96/89/2
f 99/14/2 44/61/2 47/15/2
f 61/51/2 98/155/2 97/49/2
f 96/89/2 54/156/2 53/87/2
f 52/5/6 101/19/6 100/6/6
f 103/80/15 70/157/15 74/79/15
f 56/21/6 102/158/6 101/19/6
f 100/6/16 69/54/16 68/4/16
f 106/30/23 108/131/23 110/28/23
f 112/27/21 107/159/21 106/25/21
f 115/82/15 113/79/15 112/83/15
f 116/132/16 110/160/16 109/53/16
f 105/29/19 14/25/19 13/30/19
f 74/128/30 111/26/30 113/128/30
f 109/126/17 64/28/17 69/126/17
f 114/80/11 104/52/11 103/80/11
f 117/133/31 121/75/31 120/161/31
f 123/136/23 119/73/23 118/134/23
f 127/74/20 122/135/20 121/75/20
f 128/138/19 125/137/19 124/85/19
f 126/38/13 95/84/13 94/39/13
f 67/126/21 124/85/21 123/126/21
f 120/117/28 40/37/28 39/117/28
f 118/107/16 20/46/16 23/107/16
f 70/157/1 59/122/1 1/146/1
f 67/1/1 123/162/1 118/2/1
f 68/4/1 22/148/1 52/5/1
f 15/7/2 72/150/2 82/8/2
f 84/10/3 45/118/3 10/11/3
f 8/13/4 54/156/4 99/14/4
f 2/16/3 58/152/3 86/17/3
f 101/19/1 55/163/1 7/20/1
f 92/22/5 48/119/5 18/23/5
f 14/25/2 107/159/2 111/26/2
f 64/28/5 108/131/5 105/29/5
f 6/31/6 75/129/6 90/32/6
f 35/34/3 85/151/3 76/35/3
f 40/37/6 122/135/6 126/38/6
f 51/40/2 81/149/2 32/41/2
f 80/43/2 36/114/2 4/44/2
f 20/46/4 117/164/4 120/47/4
f 97/49/4 42/165/4 25/50/4
f 104/52/4 116/132/4 109/53/4
f 88/55/6 62/147/6 24/56/6
f 78/58/6 12/102/6 63/59/6
f 44/61/4 98/155/4 60/62/4
f 57/64/3 9/144/3 46/65/3
f 71/67/2 3/95/2 37/68/2
f 31/70/6 89/153/6 29/71/6
f 119/73/5 125/137/5 127/74/5
f 65/76/5 16/103/5 49/77/5
f 74/79/3 113/79/3 114/80/3
f 106/81/1 110/160/1 115/82/1
f 95/84/2 128/138/2 124/85/2
f 53/87/4 21/139/4 43/88/4
f 41/90/5 93/154/5 27/91/5
f 14/25/11 15/7/11 16/103/11
f 21/106/13 22/107/13 23/107/13
f 28/110/15 29/166/15 30/57/15
f 32/112/16 33/167/16 34/113/16
f 36/114/17 37/68/17 38/18/17
f 43/117/21 39/117/21 40/115/21
f 40/115/14 41/90/14 42/116/14
f 45/118/19 46/65/19 47/15/19
f 49/77/11 50/9/11 51/40/11
f 53/87/13 54/168/13 55/120/13
f 57/64/20 58/152/20 59/122/20
f 61/123/21 62/147/21 63/124/21
f 69/126/30 64/126/30 65/86/30
f 65/86/22 66/86/22 67/126/22
f 67/126/13 68/126/13 69/126/13
f 74/128/7 70/128/7 71/127/7
f 71/127/2 72/150/2 73/27/2
f 76/35/23 77/12/23 78/58/23
f 80/43/2 81/149/2 82/8/2
f 84/10/3 85/151/3 86/17/3
f 88/55/6 89/153/6 90/32/6
f 95/84/11 91/78/11 92/22/11
f 92/22/15 93/154/15 94/39/15
f 97/49/4 98/155/4 99/14/4
f 104/52/13 100/6/13 101/19/13
f 101/19/20 102/158/20 103/80/20
f 24/56/20 26/109/20 27/111/20
f 17/72/13 19/105/13 32/112/13
f 5/36/30 4/44/30 36/114/30
f 21/139/2 20/46/2 39/48/2
f 11/63/11 10/11/11 45/118/11
f 19/42/19 18/23/19 48/119/19
f 22/140/16 21/139/16 53/87/16
f 7/20/15 9/144/15 57/64/15
f 12/102/28 11/101/28 60/141/28
f 13/30/3 16/103/3 65/76/3
f 1/93/21 3/95/21 71/67/21
f 6/31/29 5/36/29 76/35/29
f 29/71/20 28/169/20 18/104/20
f 34/33/13 33/170/13 4/96/13
f 38/18/27 37/68/27 3/95/27
f 42/116/31 41/90/31 26/92/31
f 47/15/11 46/65/11 9/144/11
f 50/9/19 49/77/19 16/103/19
f 55/145/16 54/156/16 8/13/16
f 59/122/15 58/152/15 2/16/15
f 62/147/28 61/123/28 25/108/28
f 68/4/6 67/1/6 23/3/6
f 73/27/4 72/150/4 15/7/4
f 78/58/29 77/12/29 10/11/29
f 37/68/4 36/114/4 80/43/4
f 82/8/4 81/149/4 51/40/4
f 33/45/4 32/41/4 81/149/4
f 79/69/4 82/8/4 72/150/4
f 46/65/5 45/118/5 84/10/5
f 86/17/5 85/151/5 35/34/5
f 77/12/5 76/35/5 85/151/5
f 83/66/5 86/17/5 58/152/5
f 63/59/1 62/147/1 88/55/1
f 90/32/1 89/153/1 31/70/1
f 30/57/1 29/71/1 89/153/1
f 87/60/1 90/32/1 75/129/1
f 49/77/3 48/119/3 92/22/3
f 94/39/20 93/154/20 41/90/20
f 28/24/3 27/91/3 93/154/3
f 91/78/19 95/84/19 66/86/19
f 43/88/2 42/165/2 97/49/2
f 99/14/2 98/155/2 44/61/2
f 61/51/2 60/62/2 98/155/2
f 96/89/2 99/14/2 54/156/2
f 52/5/6 55/163/6 101/19/6
f 103/80/15 102/158/15 70/157/15
f 56/21/6 59/122/6 102/158/6
f 100/6/16 104/52/16 69/54/16
f 106/30/23 105/29/23 108/131/23
f 112/27/21 111/26/21 107/159/21
f 115/82/15 114/80/15 113/79/15
f 116/132/16 115/82/16 110/160/16
f 105/29/19 107/159/19 14/25/19
f 74/128/30 73/27/30 111/26/30
f 109/126/17 108/131/17 64/28/17
f 114/80/11 116/132/11 104/52/11
f 117/133/17 119/73/17 121/75/17
f 123/136/23 125/137/23 119/73/23
f 127/74/20 126/38/20 122/135/20
f 128/138/19 127/74/19 125/137/19
f 126/38/13 128/138/13 95/84/13
f 67/126/21 66/86/21 124/85/21
f 120/117/28 122/135/28 40/37/28
f 118/107/16 117/164/16 20/46/16
f 70/157/1 102/158/1 59/122/1
