# Blender 4.0.2
# www.blender.org
mtllib enemy215.mtl
o Cube
v 0.755866 0.754641 2.288537
v 0.584993 1.075532 1.681273
v 0.136165 1.091214 2.228307
v -0.635952 1.042032 1.596214
v -0.187124 1.026351 1.049180
v -0.789818 0.656186 1.023164
v 1.220828 0.033575 1.776678
v 1.066963 -0.352271 1.203628
v 1.049955 0.354467 1.169414
v 0.277838 0.305286 0.537321
v 0.294846 -0.401452 0.571535
v -0.324855 -0.064879 0.511305
v 0.495729 -0.256012 3.475959
v 0.478721 0.450726 3.441745
v -0.294846 0.401452 2.808465
v -0.277838 -0.305286 2.842679
v -1.220828 -0.033575 1.603322
v -1.049955 -0.354467 2.210586
v -1.066963 0.352271 2.176372
v 0.204132 -1.733089 2.365034
v 0.635952 -1.042032 1.783786
v 0.789818 -0.656186 2.356836
v 0.357997 -1.347243 2.938084
v -0.755866 -0.754641 1.091463
v -0.136165 -1.091214 1.151693
v -0.584993 -1.075532 1.698727
v -0.584556 -1.076209 1.698246
v -1.050392 -0.353790 2.211067
v -1.221265 -0.032898 1.603803
v -0.755429 -0.755318 1.090982
v -1.221233 -0.034223 1.603867
v -1.067368 0.351623 2.176917
v -0.635547 1.042680 1.595669
v -0.789413 0.656834 1.022619
v -0.187849 1.026305 1.048586
v -0.636677 1.041986 1.595620
v 0.136890 1.091260 2.228901
v 0.585718 1.075578 1.681867
v 0.204857 -1.733043 2.365628
v -0.414845 -1.396470 2.305398
v -0.585718 -1.075578 1.698134
v -0.136890 -1.091260 1.151099
v 0.636677 -1.041986 1.784380
v 0.294121 -0.401499 0.570941
v 0.277113 0.305240 0.536728
v 1.050680 0.354513 1.170008
v 1.067688 -0.352225 1.204222
v -1.050680 -0.354513 2.209992
v -0.277113 -0.305240 2.843273
v -0.294121 0.401499 2.809059
v -1.067688 0.352225 2.175779
v 0.789413 -0.656834 2.357381
v 0.635547 -1.042680 1.784331
v 1.067368 -0.351623 1.203083
v 1.221233 0.034223 1.776133
v 1.221265 0.032898 1.776197
v 1.050392 0.353790 1.168933
v 0.584556 1.076209 1.681754
v 0.755429 0.755318 2.289018
v 0.295251 -0.400804 0.570990
v -0.136569 -1.091861 1.152238
v -0.756271 -0.755288 1.092008
v -0.324450 -0.064231 0.510760
v 0.495292 -0.255335 3.476440
v -0.278275 -0.304609 2.843160
v -0.261267 -1.011347 2.877373
v 0.358434 -1.347920 2.937603
v 0.790254 -0.656863 2.356355
v 0.944120 -0.271016 2.929406
v 0.756271 0.755288 2.287992
v 0.136569 1.091861 2.227762
v -0.295251 0.400804 2.809010
v 0.478316 0.450078 3.442290
v 0.927144 0.434397 2.895256
v -0.790254 0.656863 1.023645
v -0.187561 1.027028 1.049661
v 0.278275 0.304609 0.536841
v -0.324419 -0.065557 0.510824
v 0.137295 1.091908 2.228356
v -0.636272 1.042634 1.595075
v -1.068093 0.351577 2.176323
v -0.294526 0.400851 2.809604
v 1.051117 0.353836 1.169527
v 0.277550 0.304562 0.536247
v -0.188286 1.026982 1.049067
v 0.585281 1.076256 1.682347
v -0.324014 -0.064909 0.510279
v -0.755834 -0.755966 1.091527
v -1.221670 -0.033546 1.604348
v -0.789850 0.657511 1.023100
v -0.277550 -0.304562 2.843753
v -1.051117 -0.353836 2.210473
v -0.585281 -1.076256 1.697653
v -0.414408 -1.397147 2.304917
v -0.260542 -1.011301 2.877967
v 0.636272 -1.042634 1.784925
v -0.137295 -1.091908 1.151644
v 0.294526 -0.400851 0.570396
v 1.068093 -0.351577 1.203677
v 0.789850 -0.657511 2.356900
v 1.221670 0.033546 1.775652
v 0.755834 0.755966 2.288473
v 0.926707 0.435074 2.895737
v 0.943715 -0.271664 2.929951
v 0.426983 -0.260391 3.419680
v 1.029676 0.109774 3.445696
v 0.409975 0.446347 3.385466
v 0.426546 -0.259714 3.420161
v 0.875374 -0.275395 2.873127
v 1.029239 0.110451 3.446177
v 0.409570 0.445699 3.386011
v 1.029271 0.109126 3.446241
v 0.858398 0.430018 2.838977
v 0.857961 0.430695 2.839458
v 1.028835 0.109803 3.446722
v 0.874969 -0.276043 2.873672
v 0.230476 -1.690929 2.329573
v 0.384342 -1.305082 2.902623
v -0.218352 -1.675247 2.876607
v 0.231202 -1.690883 2.330166
v -0.217626 -1.675201 2.877201
v -0.388500 -1.354310 2.269937
v 0.384779 -1.305759 2.902142
v -0.234923 -0.969186 2.841912
v -0.217915 -1.675925 2.876126
v -0.388063 -1.354987 2.269456
v -0.217190 -1.675879 2.876720
v -0.234197 -0.969140 2.842506
vn 0.7728 0.0492 0.6327
vn -0.4654 0.7217 0.5123
vn 0.4314 0.6904 -0.5807
vn 0.4654 -0.7217 -0.5123
vn -0.4314 -0.6904 0.5807
vn -0.7728 -0.0492 -0.6327
vn 0.4266 0.8437 0.3258
vn -0.4658 0.7869 -0.4048
vn 0.9640 0.0103 -0.2658
vn 0.0716 -0.0465 -0.9964
vn -0.6341 0.0222 0.7729
vn -0.9640 -0.0103 0.2658
vn 0.8756 -0.4755 0.0851
vn -0.4266 -0.8437 -0.3258
vn -0.8515 -0.5230 -0.0368
vn -0.8756 0.4755 -0.0851
vn -0.0240 0.9985 -0.0483
vn 0.2233 -0.9543 -0.1986
vn 0.6341 -0.0222 -0.7729
vn 0.8515 0.5230 0.0368
vn -0.2174 -0.5452 -0.8097
vn -0.0716 0.0465 0.9964
vn -0.2414 0.4534 -0.8580
vn -0.7636 -0.4217 0.4890
vn 0.9695 0.0351 0.2427
vn 0.4658 -0.7869 0.4048
vn 0.8515 0.5230 0.0367
vn 0.0240 -0.9985 0.0483
vn -0.8515 -0.5230 -0.0367
vn 0.2174 0.5451 0.8097
vn -0.2174 -0.5451 -0.8097
vn 0.2414 -0.4534 0.8580
vn -0.6341 0.0221 0.7729
vn 0.6341 -0.0221 -0.7729
vn 0.2174 0.5452 0.8097
vt 0.875000 0.687559
vt 0.875000 0.687441
vt 0.875000 0.687441
vt 0.812441 0.687559
vt 0.812559 0.687441
vt 0.812559 0.687559
vt 0.562441 0.312559
vt 0.562559 0.312441
vt 0.562559 0.312559
vt 0.437441 0.687559
vt 0.437559 0.687441
vt 0.437559 0.687559
vt 0.562441 0.812559
vt 0.562559 0.812441
vt 0.562559 0.812559
vt 0.562441 0.562559
vt 0.562559 0.562441
vt 0.562559 0.562559
vt 0.687441 0.687559
vt 0.687559 0.687441
vt 0.687559 0.687559
vt 0.437441 0.187559
vt 0.437559 0.187441
vt 0.437559 0.187559
vt 0.625000 0.312559
vt 0.625000 0.312441
vt 0.625000 0.312441
vt 0.625000 0.187559
vt 0.625000 0.187441
vt 0.625000 0.187441
vt 0.312441 0.562559
vt 0.312559 0.562441
vt 0.312559 0.562559
vt 0.437441 0.562559
vt 0.437559 0.562441
vt 0.437559 0.562559
vt 0.500000 0.062559
vt 0.500000 0.062441
vt 0.500000 0.062441
vt 0.437441 0.312559
vt 0.437559 0.312441
vt 0.437559 0.312559
vt 0.437441 0.437559
vt 0.437559 0.437441
vt 0.437559 0.437559
vt 0.562441 1.000000
vt 0.562559 1.000000
vt 0.562559 1.000000
vt 0.437441 0.937559
vt 0.437559 0.937441
vt 0.437559 0.937559
vt 0.812559 0.625000
vt 0.812441 0.625000
vt 0.812441 0.625000
vt 0.187441 0.687559
vt 0.187559 0.687441
vt 0.187559 0.687559
vt 0.312441 0.687559
vt 0.312559 0.687441
vt 0.312559 0.687559
vt 0.437441 0.812559
vt 0.437559 0.812441
vt 0.437559 0.812559
vt 0.562441 0.687559
vt 0.562559 0.687441
vt 0.562559 0.687559
vt 0.562441 0.437559
vt 0.562559 0.437441
vt 0.562559 0.437559
vt 0.187441 0.562559
vt 0.187559 0.562441
vt 0.187559 0.562559
vt 0.562441 0.062559
vt 0.562559 0.062441
vt 0.562559 0.062559
vt 0.562441 0.187559
vt 0.562559 0.187441
vt 0.562559 0.187559
vt 0.750000 0.562559
vt 0.750000 0.562441
vt 0.812441 0.562559
vt 0.812559 0.562441
vt 0.812559 0.562559
vt 0.562559 0.125000
vt 0.562441 0.125000
vt 0.562441 0.125000
vt 0.562441 0.937559
vt 0.562559 0.937441
vt 0.562559 0.937559
vt 0.437441 0.062559
vt 0.437559 0.062441
vt 0.437559 0.062559
vt 0.625000 0.437441
vt 0.562441 0.500000
vt 0.562441 0.437441
vt 0.312441 0.500000
vt 0.375000 0.562559
vt 0.625000 0.812559
vt 0.562441 0.750000
vt 0.375000 0.687441
vt 0.312441 0.750000
vt 0.312441 0.687441
vt 0.562441 0.187441
vt 0.125000 0.562559
vt 0.187559 0.500000
vt 0.562441 1.000000
vt 0.625000 1.000000
vt 0.187559 0.750000
vt 0.125000 0.687441
vt 0.125000 0.625000
vt 0.125000 0.687559
vt 0.187441 0.500000
vt 0.250000 0.562559
vt 0.437441 0.437441
vt 0.500000 0.062559
vt 0.437441 0.000000
vt 0.500000 0.000000
vt 0.437441 0.687441
vt 0.437441 0.187441
vt 0.625000 0.875000
vt 0.625000 0.937559
vt 0.687559 0.562441
vt 0.187441 0.750000
vt 0.250000 0.687441
vt 0.250000 0.750000
vt 0.625000 0.125000
vt 0.562441 0.375000
vt 0.625000 0.375000
vt 0.312441 0.562441
vt 0.625000 0.250000
vt 0.625000 0.187559
vt 0.812559 0.625000
vt 0.562441 0.000000
vt 0.625000 0.062559
vt 0.500000 0.062559
vt 0.625000 0.062441
vt 0.562441 0.062441
vt 0.562559 0.125000
vt 0.562441 0.937441
vt 0.625000 0.937441
vt 0.312559 0.750000
vt 0.625000 0.437559
vt 0.437559 0.000000
vt 0.562441 0.687441
vt 0.625000 0.812441
vt 0.687559 0.562559
vt 0.187441 0.687441
vt 0.812441 0.687441
vt 0.437441 0.312441
vt 0.562441 0.312441
vt 0.437441 0.562441
vt 0.562441 0.562441
vt 0.187441 0.562441
vt 0.437441 0.062441
vt 0.437441 0.812441
vt 0.562441 0.812441
vt 0.687441 0.562559
vt 0.687441 0.562441
vt 0.625000 0.312559
vt 0.812441 0.562441
vt 0.562559 0.000000
vt 0.875000 0.687559
vt 0.687441 0.687441
vt 0.562441 1.000000
vt 0.437441 0.937441
vt 0.187559 0.625000
vt 0.250000 0.500000
vt 0.562441 0.875000
vt 0.125000 0.562441
vt 0.312559 0.500000
s 0
usemtl Material
f 67/1/1 118/2/1 23/3/1
f 68/4/1 52/5/1 100/6/1
f 15/7/2 82/8/2 50/9/2
f 84/10/3 10/11/3 77/12/3
f 8/13/4 99/14/4 47/15/4
f 2/16/3 86/17/3 38/18/3
f 101/19/1 7/20/1 56/21/1
f 92/22/5 18/23/5 28/24/5
f 14/25/2 111/26/2 73/27/2
f 64/28/5 105/29/5 13/30/5
f 6/31/6 90/32/6 34/33/6
f 35/34/3 76/35/3 5/36/3
f 40/37/6 126/38/6 94/39/6
f 51/40/2 32/41/2 19/42/2
f 80/43/2 4/44/2 33/45/2
f 20/46/4 120/47/4 39/48/4
f 97/49/4 25/50/4 61/51/4
f 104/52/4 109/53/4 69/54/4
f 88/55/6 24/56/6 30/57/6
f 78/58/6 63/59/6 87/60/6
f 44/61/4 60/62/4 11/63/4
f 57/64/3 46/65/3 83/66/3
f 71/67/2 37/68/2 79/69/2
f 31/70/6 29/71/6 17/72/6
f 119/73/5 127/74/5 121/75/5
f 65/76/5 49/77/5 91/78/5
f 74/79/3 114/80/3 103/80/3
f 106/81/1 115/82/1 112/83/1
f 95/84/2 124/85/2 66/86/2
f 53/87/4 43/88/4 96/89/4
f 41/90/5 27/91/5 26/92/5
f 1/93/7 2/94/7 3/95/7
f 4/96/8 5/97/8 6/31/8
f 7/98/9 8/13/9 9/99/9
f 10/100/10 11/101/10 12/102/10
f 14/25/11 16/103/11 13/30/11
f 17/72/12 18/104/12 19/105/12
f 21/106/13 23/107/13 20/46/13
f 24/56/14 25/108/14 26/109/14
f 28/110/15 30/57/15 27/111/15
f 32/112/16 34/113/16 31/70/16
f 36/114/17 38/18/17 35/34/17
f 40/115/18 42/116/18 43/117/18
f 45/118/19 47/15/19 44/61/19
f 49/77/11 51/40/11 48/119/11
f 53/87/13 55/120/13 52/121/13
f 57/64/20 59/122/20 56/21/20
f 61/123/21 63/124/21 60/125/21
f 65/86/22 67/126/22 69/126/22
f 71/127/7 73/27/7 74/128/7
f 76/35/23 78/58/23 75/129/23
f 80/43/2 82/8/2 79/69/2
f 84/10/3 86/17/3 83/66/3
f 88/55/6 90/32/6 87/60/6
f 92/22/24 94/39/24 95/84/24
f 97/49/4 99/14/4 96/89/4
f 101/19/25 103/80/25 104/52/25
f 105/29/22 106/30/22 107/130/22
f 108/131/26 109/126/26 110/28/26
f 111/26/7 112/27/7 113/128/7
f 114/80/9 115/82/9 116/132/9
f 117/133/26 118/134/26 119/73/26
f 120/117/14 121/115/14 122/135/14
f 123/136/22 124/86/22 125/137/22
f 126/38/12 127/74/12 128/138/12
f 24/56/27 27/111/27 30/57/27
f 17/72/13 32/112/13 31/70/13
f 5/36/28 36/114/28 35/34/28
f 21/139/2 39/48/2 43/88/2
f 11/63/11 45/118/11 44/61/11
f 19/42/19 48/119/19 51/40/19
f 22/140/16 53/87/16 52/121/16
f 7/20/29 57/64/29 56/21/29
f 12/102/30 60/141/30 63/59/30
f 13/30/3 65/76/3 64/28/3
f 1/93/31 71/67/31 70/142/31
f 6/31/32 76/35/32 75/129/32
f 29/71/20 18/104/20 17/72/20
f 34/33/13 4/96/13 6/31/13
f 38/18/28 3/95/28 2/16/28
f 42/116/17 26/92/17 25/143/17
f 47/15/33 9/144/33 8/13/33
f 50/9/34 16/103/34 15/7/34
f 55/145/16 8/13/16 7/98/16
f 59/122/15 2/16/15 1/146/15
f 62/147/35 25/108/35 24/56/35
f 68/4/6 23/3/6 22/148/6
f 73/27/4 15/7/4 14/25/4
f 78/58/32 10/11/32 12/102/32
f 37/68/4 80/43/4 79/69/4
f 82/8/4 51/40/4 50/9/4
f 33/45/4 81/149/4 80/43/4
f 79/69/4 72/150/4 71/67/4
f 46/65/5 84/10/5 83/66/5
f 86/17/5 35/34/5 38/18/5
f 77/12/5 85/151/5 84/10/5
f 83/66/5 58/152/5 57/64/5
f 63/59/1 88/55/1 87/60/1
f 90/32/1 31/70/1 34/33/1
f 30/57/1 89/153/1 88/55/1
f 87/60/1 75/129/1 78/58/1
f 49/77/3 92/22/3 91/78/3
f 94/39/20 41/90/20 40/37/20
f 28/24/3 93/154/3 92/22/3
f 91/78/34 66/86/34 65/76/34
f 43/88/2 97/49/2 96/89/2
f 99/14/2 44/61/2 47/15/2
f 61/51/2 98/155/2 97/49/2
f 96/89/2 54/156/2 53/87/2
f 52/5/6 101/19/6 100/6/6
f 103/80/15 70/157/15 74/79/15
f 56/21/6 102/158/6 101/19/6
f 100/6/16 69/54/16 68/4/16
f 106/30/23 108/131/23 110/28/23
f 112/27/21 107/159/21 106/25/21
f 115/82/15 113/79/15 112/83/15
f 116/132/16 110/160/16 109/53/16
f 105/29/19 14/25/19 13/30/19
f 74/128/28 111/26/28 113/128/28
f 109/126/17 64/28/17 69/126/17
f 114/80/11 104/52/11 103/80/11
f 117/133/17 121/75/17 120/161/17
f 123/136/23 119/73/23 118/134/23
f 127/74/20 122/135/20 121/75/20
f 128/138/34 125/137/34 124/85/34
f 126/38/13 95/84/13 94/39/13
f 67/126/21 124/85/21 123/126/21
f 120/117/35 40/37/35 39/117/35
f 118/107/16 20/46/16 23/107/16
f 70/157/1 59/122/1 1/146/1
f 67/1/1 123/162/1 118/2/1
f 68/4/1 22/148/1 52/5/1
f 15/7/2 72/150/2 82/8/2
f 84/10/3 45/118/3 10/11/3
f 8/13/4 54/156/4 99/14/4
f 2/16/3 58/152/3 86/17/3
f 101/19/1 55/163/1 7/20/1
f 92/22/5 48/119/5 18/23/5
f 14/25/2 107/159/2 111/26/2
f 64/28/5 108/131/5 105/29/5
f 6/31/6 75/129/6 90/32/6
f 35/34/3 85/151/3 76/35/3
f 40/37/6 122/135/6 126/38/6
f 51/40/2 81/149/2 32/41/2
f 80/43/2 36/114/2 4/44/2
f 20/46/4 117/164/4 120/47/4
f 97/49/4 42/165/4 25/50/4
f 104/52/4 116/132/4 109/53/4
f 88/55/6 62/147/6 24/56/6
f 78/58/6 12/102/6 63/59/6
f 44/61/4 98/155/4 60/62/4
f 57/64/3 9/144/3 46/65/3
f 71/67/2 3/95/2 37/68/2
f 31/70/6 89/153/6 29/71/6
f 119/73/5 125/137/5 127/74/5
f 65/76/5 16/103/5 49/77/5
f 74/79/3 113/79/3 114/80/3
f 106/81/1 110/160/1 115/82/1
f 95/84/2 128/138/2 124/85/2
f 53/87/4 21/139/4 43/88/4
f 41/90/5 93/154/5 27/91/5
f 14/25/11 15/7/11 16/103/11
f 21/106/13 22/107/13 23/107/13
f 28/110/15 29/166/15 30/57/15
f 32/112/16 33/167/16 34/113/16
f 36/114/17 37/68/17 38/18/17
f 43/117/21 39/117/21 40/115/21
f 40/115/14 41/90/14 42/116/14
f 45/118/19 46/65/19 47/15/19
f 49/77/11 50/9/11 51/40/11
f 53/87/13 54/168/13 55/120/13
f 57/64/20 58/152/20 59/122/20
f 61/123/21 62/147/21 63/124/21
f 69/126/28 64/126/28 65/86/28
f 65/86/22 66/86/22 67/126/22
f 67/126/13 68/126/13 69/126/13
f 74/128/7 70/128/7 71/127/7
f 71/127/2 72/150/2 73/27/2
f 76/35/23 77/12/23 78/58/23
f 80/43/2 81/149/2 82/8/2
f 84/10/3 85/151/3 86/17/3
f 88/55/6 89/153/6 90/32/6
f 95/84/11 91/78/11 92/22/11
f 92/22/15 93/154/15 94/39/15
f 97/49/4 98/155/4 99/14/4
f 104/52/13 100/6/13 101/19/13
f 101/19/20 102/158/20 103/80/20
f 24/56/20 26/109/20 27/111/20
f 17/72/13 19/105/13 32/112/13
f 5/36/28 4/44/28 36/114/28
f 21/139/2 20/46/2 39/48/2
f 11/63/33 10/11/33 45/118/33
f 19/42/34 18/23/34 48/119/34
f 22/140/16 21/139/16 53/87/16
f 7/20/15 9/144/15 57/64/15
f 12/102/35 11/101/35 60/141/35
f 13/30/3 16/103/3 65/76/3
f 1/93/21 3/95/21 71/67/21
f 6/31/32 5/36/32 76/35/32
f 29/71/27 28/169/27 18/104/27
f 34/33/13 33/170/13 4/96/13
f 38/18/28 37/68/28 3/95/28
f 42/116/17 41/90/17 26/92/17
f 47/15/11 46/65/11 9/144/11
f 50/9/19 49/77/19 16/103/19
f 55/145/16 54/156/16 8/13/16
f 59/122/29 58/152/29 2/16/29
f 62/147/30 61/123/30 25/108/30
f 68/4/6 67/1/6 23/3/6
f 73/27/4 72/150/4 15/7/4
f 78/58/32 77/12/32 10/11/32
f 37/68/4 36/114/4 80/43/4
f 82/8/4 81/149/4 51/40/4
f 33/45/4 32/41/4 81/149/4
f 79/69/4 82/8/4 72/150/4
f 46/65/5 45/118/5 84/10/5
f 86/17/5 85/151/5 35/34/5
f 77/12/5 76/35/5 85/151/5
f 83/66/5 86/17/5 58/152/5
f 63/59/1 62/147/1 88/55/1
f 90/32/1 89/153/1 31/70/1
f 30/57/1 29/71/1 89/153/1
f 87/60/1 90/32/1 75/129/1
f 49/77/3 48/119/3 92/22/3
f 94/39/27 93/154/27 41/90/27
f 28/24/3 27/91/3 93/154/3
f 91/78/19 95/84/19 66/86/19
f 43/88/2 42/165/2 97/49/2
f 99/14/2 98/155/2 44/61/2
f 61/51/2 60/62/2 98/155/2
f 96/89/2 99/14/2 54/156/2
f 52/5/6 55/163/6 101/19/6
f 103/80/29 102/158/29 70/157/29
f 56/21/6 59/122/6 102/158/6
f 100/6/16 104/52/16 69/54/16
f 106/30/23 105/29/23 108/131/23
f 112/27/31 111/26/31 107/159/31
f 115/82/29 114/80/29 113/79/29
f 116/132/16 115/82/16 110/160/16
f 105/29/19 107/159/19 14/25/19
f 74/128/28 73/27/28 111/26/28
f 109/126/17 108/131/17 64/28/17
f 114/80/11 116/132/11 104/52/11
f 117/133/17 119/73/17 121/75/17
f 123/136/23 125/137/23 119/73/23
f 127/74/27 126/38/27 122/135/27
f 128/138/19 127/74/19 125/137/19
f 126/38/13 128/138/13 95/84/13
f 67/126/21 66/86/21 124/85/21
f 120/117/35 122/135/35 40/37/35
f 118/107/16 117/164/16 20/46/16
f 70/157/1 102/158/1 59/122/1
