# Blender 4.0.2
# www.blender.org
mtllib enemy216.mtl
o Cube
v 0.845691 0.701237 2.230494
v 0.673127 1.020517 1.622859
v 0.254623 1.088411 2.189590
v -0.548946 1.090356 1.595959
v -0.130442 1.022462 1.029229
v -0.762956 0.705131 1.042118
v 1.222043 -0.069714 1.718520
v 1.008033 -0.454939 1.164679
v 1.049478 0.249566 1.110885
v 0.245909 0.251511 0.517254
v 0.204464 -0.452994 0.571049
v -0.386605 -0.065821 0.530144
v 0.559169 -0.253459 3.457492
v 0.600615 0.451046 3.403697
v -0.204464 0.452994 2.808951
v -0.245909 -0.251511 2.862746
v -1.222043 0.069714 1.661480
v -1.049478 -0.249566 2.269115
v -1.008033 0.454939 2.215321
v 0.088997 -1.726967 2.404566
v 0.548946 -1.090356 1.784041
v 0.762956 -0.705131 2.337882
v 0.303007 -1.341741 2.958407
v -0.845691 -0.701237 1.149505
v -0.254623 -1.088411 1.190410
v -0.673127 -1.020517 1.757141
v -0.672773 -1.021241 1.756660
v -1.049832 -0.248842 2.269596
v -1.222396 0.070438 1.661961
v -0.845338 -0.701962 1.149025
v -1.222474 0.069117 1.662062
v -1.008464 0.454343 2.215903
v -0.548515 1.090953 1.595377
v -0.762525 0.705728 1.041536
v -0.131197 1.022464 1.028671
v -0.549701 1.090358 1.595402
v 0.255378 1.088410 2.190147
v 0.673881 1.020515 1.623417
v 0.089752 -1.726969 2.405124
v -0.501317 -1.339795 2.364219
v -0.673881 -1.020515 1.756583
v -0.255378 -1.088410 1.189853
v 0.549701 -1.090358 1.784598
v 0.203709 -0.452993 0.570491
v 0.245155 0.251512 0.516696
v 1.050233 0.249564 1.111442
v 1.008788 -0.454941 1.165237
v -1.050233 -0.249564 2.268558
v -0.245155 -0.251512 2.863304
v -0.203709 0.452993 2.809509
v -1.008788 0.454941 2.214763
v 0.762525 -0.705728 2.338464
v 0.548515 -1.090953 1.784623
v 1.008464 -0.454343 1.164097
v 1.222474 -0.069117 1.717938
v 1.222396 -0.070438 1.718039
v 1.049832 0.248842 1.110404
v 0.672773 1.021241 1.623340
v 0.845338 0.701962 2.230976
v 0.204895 -0.452398 0.570467
v -0.255054 -1.089008 1.190992
v -0.846123 -0.701834 1.150087
v -0.386173 -0.065224 0.529562
v 0.558816 -0.252735 3.457973
v -0.246263 -0.250786 2.863227
v -0.287708 -0.955291 2.917021
v 0.303360 -1.342465 2.957926
v 0.763310 -0.705855 2.337401
v 0.977320 -0.320629 2.891242
v 0.846123 0.701834 2.229913
v 0.255054 1.089008 2.189008
v -0.204895 0.452398 2.809533
v 0.600183 0.450449 3.404279
v 1.018687 0.382555 2.837548
v -0.763310 0.705855 1.042599
v -0.130796 1.023186 1.029709
v 0.246263 0.250786 0.516773
v -0.386251 -0.066545 0.529663
v 0.255809 1.089006 2.189566
v -0.549270 1.090955 1.594820
v -1.009219 0.454344 2.215345
v -0.204140 0.452396 2.810091
v 1.050586 0.248840 1.110961
v 0.245508 0.250788 0.516216
v -0.131551 1.023188 1.029152
v 0.673528 1.021239 1.623898
v -0.385820 -0.065948 0.529081
v -0.845769 -0.702558 1.149606
v -1.222828 0.069841 1.662543
v -0.762878 0.706452 1.042017
v -0.245508 -0.250788 2.863785
v -1.050586 -0.248840 2.269039
v -0.673528 -1.021239 1.756102
v -0.500963 -1.340519 2.363738
v -0.286953 -0.955293 2.917579
v 0.549270 -1.090955 1.785180
v -0.255809 -1.089006 1.190434
v 0.204140 -0.452396 0.569909
v 1.009219 -0.454344 1.164655
v 0.762878 -0.706452 2.337983
v 1.222828 -0.069841 1.717458
v 0.845769 0.702558 2.230394
v 1.018334 0.383279 2.838029
v 0.976888 -0.321226 2.891824
v 0.487623 -0.253286 3.404637
v 1.120136 0.064045 3.391748
v 0.529068 0.451219 3.350843
v 0.487269 -0.252562 3.405118
v 0.905773 -0.320456 2.838387
v 1.119783 0.064769 3.392229
v 0.528637 0.450622 3.351425
v 1.119705 0.063448 3.392329
v 0.947141 0.382728 2.784694
v 0.946787 0.383452 2.785175
v 1.119352 0.064173 3.392810
v 0.905342 -0.321053 2.838969
v 0.117058 -1.688128 2.366709
v 0.331068 -1.302902 2.920550
v -0.301446 -1.620233 2.933439
v 0.117813 -1.688130 2.367266
v -0.300691 -1.620235 2.933997
v -0.473256 -1.300956 2.326361
v 0.331421 -1.303627 2.920069
v -0.259647 -0.916453 2.879164
v -0.301093 -1.620957 2.932959
v -0.472902 -1.301680 2.325881
v -0.300338 -1.620959 2.933516
v -0.258892 -0.916454 2.879722
vn 0.8043 -0.0019 0.5942
vn -0.3767 0.7717 0.5125
vn 0.4595 0.6360 -0.6199
vn 0.3767 -0.7717 -0.5125
vn -0.4595 -0.6360 0.6199
vn -0.8043 0.0019 -0.5942
vn 0.5122 0.8116 0.2810
vn -0.4166 0.8139 -0.4051
vn 0.9472 -0.0794 -0.3107
vn 0.0184 -0.0772 -0.9968
vn -0.5913 0.0959 0.8007
vn -0.9472 0.0794 0.3107
vn 0.8351 -0.5470 0.0578
vn -0.5122 -0.8116 -0.2810
vn -0.8937 -0.4484 0.0182
vn -0.8351 0.5470 -0.0578
vn 0.0586 0.9954 -0.0760
vn 0.1314 -0.9746 -0.1811
vn 0.5913 -0.0959 -0.8007
vn 0.8937 0.4484 -0.0182
vn -0.3024 -0.5443 -0.7825
vn -0.0184 0.0772 0.9968
vn -0.2438 0.4511 -0.8585
vn -0.7717 -0.3420 0.5361
vn 0.9797 -0.0427 0.1960
vn 0.4166 -0.8139 0.4051
vn -0.0585 -0.9954 0.0760
vn -0.5913 0.0960 0.8007
vn 0.5913 -0.0960 -0.8007
vn 0.3024 0.5443 0.7825
vn 0.2438 -0.4511 0.8585
vn 0.8937 0.4483 -0.0182
vn -0.0586 -0.9954 0.0760
vn -0.8937 -0.4483 0.0182
vn 0.0585 0.9954 -0.0760
vt 0.875000 0.687559
vt 0.875000 0.687441
vt 0.875000 0.687441
vt 0.812441 0.687559
vt 0.812559 0.687441
vt 0.812559 0.687559
vt 0.562441 0.312559
vt 0.562559 0.312441
vt 0.562559 0.312559
vt 0.437441 0.687559
vt 0.437559 0.687441
vt 0.437559 0.687559
vt 0.562441 0.812559
vt 0.562559 0.812441
vt 0.562559 0.812559
vt 0.562441 0.562559
vt 0.562559 0.562441
vt 0.562559 0.562559
vt 0.687441 0.687559
vt 0.687559 0.687441
vt 0.687559 0.687559
vt 0.437441 0.187559
vt 0.437559 0.187441
vt 0.437559 0.187559
vt 0.625000 0.312559
vt 0.625000 0.312441
vt 0.625000 0.312441
vt 0.625000 0.187559
vt 0.625000 0.187441
vt 0.625000 0.187441
vt 0.312441 0.562559
vt 0.312559 0.562441
vt 0.312559 0.562559
vt 0.437441 0.562559
vt 0.437559 0.562441
vt 0.437559 0.562559
vt 0.500000 0.062559
vt 0.500000 0.062441
vt 0.500000 0.062441
vt 0.437441 0.312559
vt 0.437559 0.312441
vt 0.437559 0.312559
vt 0.437441 0.437559
vt 0.437559 0.437441
vt 0.437559 0.437559
vt 0.562441 1.000000
vt 0.562559 1.000000
vt 0.562559 1.000000
vt 0.437441 0.937559
vt 0.437559 0.937441
vt 0.437559 0.937559
vt 0.812559 0.625000
vt 0.812441 0.625000
vt 0.812441 0.625000
vt 0.187441 0.687559
vt 0.187559 0.687441
vt 0.187559 0.687559
vt 0.312441 0.687559
vt 0.312559 0.687441
vt 0.312559 0.687559
vt 0.437441 0.812559
vt 0.437559 0.812441
vt 0.437559 0.812559
vt 0.562441 0.687559
vt 0.562559 0.687441
vt 0.562559 0.687559
vt 0.562441 0.437559
vt 0.562559 0.437441
vt 0.562559 0.437559
vt 0.187441 0.562559
vt 0.187559 0.562441
vt 0.187559 0.562559
vt 0.562441 0.062559
vt 0.562559 0.062441
vt 0.562559 0.062559
vt 0.562441 0.187559
vt 0.562559 0.187441
vt 0.562559 0.187559
vt 0.750000 0.562559
vt 0.750000 0.562441
vt 0.812441 0.562559
vt 0.812559 0.562441
vt 0.812559 0.562559
vt 0.562559 0.125000
vt 0.562441 0.125000
vt 0.562441 0.125000
vt 0.562441 0.937559
vt 0.562559 0.937441
vt 0.562559 0.937559
vt 0.437441 0.062559
vt 0.437559 0.062441
vt 0.437559 0.062559
vt 0.625000 0.437441
vt 0.562441 0.500000
vt 0.562441 0.437441
vt 0.312441 0.500000
vt 0.375000 0.562559
vt 0.625000 0.812559
vt 0.562441 0.750000
vt 0.375000 0.687441
vt 0.312441 0.750000
vt 0.312441 0.687441
vt 0.562441 0.187441
vt 0.125000 0.562559
vt 0.187559 0.500000
vt 0.562441 1.000000
vt 0.625000 1.000000
vt 0.187559 0.750000
vt 0.125000 0.687441
vt 0.125000 0.625000
vt 0.125000 0.687559
vt 0.187441 0.500000
vt 0.250000 0.562559
vt 0.437441 0.437441
vt 0.500000 0.062559
vt 0.437441 0.000000
vt 0.500000 0.000000
vt 0.437441 0.687441
vt 0.437441 0.187441
vt 0.625000 0.875000
vt 0.625000 0.937559
vt 0.687559 0.562441
vt 0.187441 0.750000
vt 0.250000 0.687441
vt 0.250000 0.750000
vt 0.625000 0.125000
vt 0.562441 0.375000
vt 0.625000 0.375000
vt 0.312441 0.562441
vt 0.625000 0.250000
vt 0.625000 0.187559
vt 0.812559 0.625000
vt 0.562441 0.000000
vt 0.625000 0.062559
vt 0.500000 0.062559
vt 0.625000 0.062441
vt 0.562441 0.062441
vt 0.562559 0.125000
vt 0.562441 0.937441
vt 0.625000 0.937441
vt 0.312559 0.750000
vt 0.625000 0.437559
vt 0.437559 0.000000
vt 0.562441 0.687441
vt 0.625000 0.812441
vt 0.687559 0.562559
vt 0.187441 0.687441
vt 0.812441 0.687441
vt 0.437441 0.312441
vt 0.562441 0.312441
vt 0.437441 0.562441
vt 0.562441 0.562441
vt 0.187441 0.562441
vt 0.437441 0.062441
vt 0.437441 0.812441
vt 0.562441 0.812441
vt 0.687441 0.562559
vt 0.687441 0.562441
vt 0.625000 0.312559
vt 0.812441 0.562441
vt 0.562559 0.000000
vt 0.875000 0.687559
vt 0.687441 0.687441
vt 0.562441 1.000000
vt 0.437441 0.937441
vt 0.187559 0.625000
vt 0.250000 0.500000
vt 0.562441 0.875000
vt 0.125000 0.562441
vt 0.312559 0.500000
s 0
usemtl Material
f 67/1/1 118/2/1 23/3/1
f 68/4/1 52/5/1 100/6/1
f 15/7/2 82/8/2 50/9/2
f 84/10/3 10/11/3 77/12/3
f 8/13/4 99/14/4 47/15/4
f 2/16/3 86/17/3 38/18/3
f 101/19/1 7/20/1 56/21/1
f 92/22/5 18/23/5 28/24/5
f 14/25/2 111/26/2 73/27/2
f 64/28/5 105/29/5 13/30/5
f 6/31/6 90/32/6 34/33/6
f 35/34/3 76/35/3 5/36/3
f 40/37/6 126/38/6 94/39/6
f 51/40/2 32/41/2 19/42/2
f 80/43/2 4/44/2 33/45/2
f 20/46/4 120/47/4 39/48/4
f 97/49/4 25/50/4 61/51/4
f 104/52/4 109/53/4 69/54/4
f 88/55/6 24/56/6 30/57/6
f 78/58/6 63/59/6 87/60/6
f 44/61/4 60/62/4 11/63/4
f 57/64/3 46/65/3 83/66/3
f 71/67/2 37/68/2 79/69/2
f 31/70/6 29/71/6 17/72/6
f 119/73/5 127/74/5 121/75/5
f 65/76/5 49/77/5 91/78/5
f 74/79/3 114/80/3 103/80/3
f 106/81/1 115/82/1 112/83/1
f 95/84/2 124/85/2 66/86/2
f 53/87/4 43/88/4 96/89/4
f 41/90/5 27/91/5 26/92/5
f 1/93/7 2/94/7 3/95/7
f 4/96/8 5/97/8 6/31/8
f 7/98/9 8/13/9 9/99/9
f 10/100/10 11/101/10 12/102/10
f 14/25/11 16/103/11 13/30/11
f 17/72/12 18/104/12 19/105/12
f 21/106/13 23/107/13 20/46/13
f 24/56/14 25/108/14 26/109/14
f 28/110/15 30/57/15 27/111/15
f 32/112/16 34/113/16 31/70/16
f 36/114/17 38/18/17 35/34/17
f 40/115/18 42/116/18 43/117/18
f 45/118/19 47/15/19 44/61/19
f 49/77/11 51/40/11 48/119/11
f 53/87/13 55/120/13 52/121/13
f 57/64/20 59/122/20 56/21/20
f 61/123/21 63/124/21 60/125/21
f 65/86/22 67/126/22 69/126/22
f 71/127/7 73/27/7 74/128/7
f 76/35/23 78/58/23 75/129/23
f 80/43/2 82/8/2 79/69/2
f 84/10/3 86/17/3 83/66/3
f 88/55/6 90/32/6 87/60/6
f 92/22/24 94/39/24 95/84/24
f 97/49/4 99/14/4 96/89/4
f 101/19/25 103/80/25 104/52/25
f 105/29/22 106/30/22 107/130/22
f 108/131/26 109/126/26 110/28/26
f 111/26/7 112/27/7 113/128/7
f 114/80/9 115/82/9 116/132/9
f 117/133/26 118/134/26 119/73/26
f 120/117/14 121/115/14 122/135/14
f 123/136/22 124/86/22 125/137/22
f 126/38/12 127/74/12 128/138/12
f 24/56/20 27/111/20 30/57/20
f 17/72/13 32/112/13 31/70/13
f 5/36/27 36/114/27 35/34/27
f 21/139/2 39/48/2 43/88/2
f 11/63/28 45/118/28 44/61/28
f 19/42/29 48/119/29 51/40/29
f 22/140/16 53/87/16 52/121/16
f 7/20/15 57/64/15 56/21/15
f 12/102/30 60/141/30 63/59/30
f 13/30/3 65/76/3 64/28/3
f 1/93/21 71/67/21 70/142/21
f 6/31/31 76/35/31 75/129/31
f 29/71/32 18/104/32 17/72/32
f 34/33/13 4/96/13 6/31/13
f 38/18/33 3/95/33 2/16/33
f 42/116/17 26/92/17 25/143/17
f 47/15/11 9/144/11 8/13/11
f 50/9/19 16/103/19 15/7/19
f 55/145/16 8/13/16 7/98/16
f 59/122/34 2/16/34 1/146/34
f 62/147/30 25/108/30 24/56/30
f 68/4/6 23/3/6 22/148/6
f 73/27/4 15/7/4 14/25/4
f 78/58/31 10/11/31 12/102/31
f 37/68/4 80/43/4 79/69/4
f 82/8/4 51/40/4 50/9/4
f 33/45/4 81/149/4 80/43/4
f 79/69/4 72/150/4 71/67/4
f 46/65/5 84/10/5 83/66/5
f 86/17/5 35/34/5 38/18/5
f 77/12/5 85/151/5 84/10/5
f 83/66/5 58/152/5 57/64/5
f 63/59/1 88/55/1 87/60/1
f 90/32/1 31/70/1 34/33/1
f 30/57/1 89/153/1 88/55/1
f 87/60/1 75/129/1 78/58/1
f 49/77/3 92/22/3 91/78/3
f 94/39/32 41/90/32 40/37/32
f 28/24/3 93/154/3 92/22/3
f 91/78/19 66/86/19 65/76/19
f 43/88/2 97/49/2 96/89/2
f 99/14/2 44/61/2 47/15/2
f 61/51/2 98/155/2 97/49/2
f 96/89/2 54/156/2 53/87/2
f 52/5/6 101/19/6 100/6/6
f 103/80/34 70/157/34 74/79/34
f 56/21/6 102/158/6 101/19/6
f 100/6/16 69/54/16 68/4/16
f 106/30/23 108/131/23 110/28/23
f 112/27/21 107/159/21 106/25/21
f 115/82/34 113/79/34 112/83/34
f 116/132/16 110/160/16 109/53/16
f 105/29/19 14/25/19 13/30/19
f 74/128/33 111/26/33 113/128/33
f 109/126/17 64/28/17 69/126/17
f 114/80/11 104/52/11 103/80/11
f 117/133/35 121/75/35 120/161/35
f 123/136/23 119/73/23 118/134/23
f 127/74/32 122/135/32 121/75/32
f 128/138/19 125/137/19 124/85/19
f 126/38/13 95/84/13 94/39/13
f 67/126/21 124/85/21 123/126/21
f 120/117/30 40/37/30 39/117/30
f 118/107/16 20/46/16 23/107/16
f 70/157/1 59/122/1 1/146/1
f 67/1/1 123/162/1 118/2/1
f 68/4/1 22/148/1 52/5/1
f 15/7/2 72/150/2 82/8/2
f 84/10/3 45/118/3 10/11/3
f 8/13/4 54/156/4 99/14/4
f 2/16/3 58/152/3 86/17/3
f 101/19/1 55/163/1 7/20/1
f 92/22/5 48/119/5 18/23/5
f 14/25/2 107/159/2 111/26/2
f 64/28/5 108/131/5 105/29/5
f 6/31/6 75/129/6 90/32/6
f 35/34/3 85/151/3 76/35/3
f 40/37/6 122/135/6 126/38/6
f 51/40/2 81/149/2 32/41/2
f 80/43/2 36/114/2 4/44/2
f 20/46/4 117/164/4 120/47/4
f 97/49/4 42/165/4 25/50/4
f 104/52/4 116/132/4 109/53/4
f 88/55/6 62/147/6 24/56/6
f 78/58/6 12/102/6 63/59/6
f 44/61/4 98/155/4 60/62/4
f 57/64/3 9/144/3 46/65/3
f 71/67/2 3/95/2 37/68/2
f 31/70/6 89/153/6 29/71/6
f 119/73/5 125/137/5 127/74/5
f 65/76/5 16/103/5 49/77/5
f 74/79/3 113/79/3 114/80/3
f 106/81/1 110/160/1 115/82/1
f 95/84/2 128/138/2 124/85/2
f 53/87/4 21/139/4 43/88/4
f 41/90/5 93/154/5 27/91/5
f 14/25/11 15/7/11 16/103/11
f 21/106/13 22/107/13 23/107/13
f 28/110/15 29/166/15 30/57/15
f 32/112/16 33/167/16 34/113/16
f 36/114/17 37/68/17 38/18/17
f 43/117/21 39/117/21 40/115/21
f 40/115/14 41/90/14 42/116/14
f 45/118/19 46/65/19 47/15/19
f 49/77/11 50/9/11 51/40/11
f 53/87/13 54/168/13 55/120/13
f 57/64/20 58/152/20 59/122/20
f 61/123/21 62/147/21 63/124/21
f 69/126/33 64/126/33 65/86/33
f 65/86/22 66/86/22 67/126/22
f 67/126/13 68/126/13 69/126/13
f 74/128/7 70/128/7 71/127/7
f 71/127/2 72/150/2 73/27/2
f 76/35/23 77/12/23 78/58/23
f 80/43/2 81/149/2 82/8/2
f 84/10/3 85/151/3 86/17/3
f 88/55/6 89/153/6 90/32/6
f 95/84/11 91/78/11 92/22/11
f 92/22/15 93/154/15 94/39/15
f 97/49/4 98/155/4 99/14/4
f 104/52/13 100/6/13 101/19/13
f 101/19/20 102/158/20 103/80/20
f 24/56/32 26/109/32 27/111/32
f 17/72/13 19/105/13 32/112/13
f 5/36/33 4/44/33 36/114/33
f 21/139/2 20/46/2 39/48/2
f 11/63/11 10/11/11 45/118/11
f 19/42/19 18/23/19 48/119/19
f 22/140/16 21/139/16 53/87/16
f 7/20/34 9/144/34 57/64/34
f 12/102/30 11/101/30 60/141/30
f 13/30/3 16/103/3 65/76/3
f 1/93/21 3/95/21 71/67/21
f 6/31/31 5/36/31 76/35/31
f 29/71/20 28/169/20 18/104/20
f 34/33/13 33/170/13 4/96/13
f 38/18/27 37/68/27 3/95/27
f 42/116/35 41/90/35 26/92/35
f 47/15/28 46/65/28 9/144/28
f 50/9/29 49/77/29 16/103/29
f 55/145/16 54/156/16 8/13/16
f 59/122/15 58/152/15 2/16/15
f 62/147/30 61/123/30 25/108/30
f 68/4/6 67/1/6 23/3/6
f 73/27/4 72/150/4 15/7/4
f 78/58/31 77/12/31 10/11/31
f 37/68/4 36/114/4 80/43/4
f 82/8/4 81/149/4 51/40/4
f 33/45/4 32/41/4 81/149/4
f 79/69/4 82/8/4 72/150/4
f 46/65/5 45/118/5 84/10/5
f 86/17/5 85/151/5 35/34/5
f 77/12/5 76/35/5 85/151/5
f 83/66/5 86/17/5 58/152/5
f 63/59/1 62/147/1 88/55/1
f 90/32/1 89/153/1 31/70/1
f 30/57/1 29/71/1 89/153/1
f 87/60/1 90/32/1 75/129/1
f 49/77/3 48/119/3 92/22/3
f 94/39/20 93/154/20 41/90/20
f 28/24/3 27/91/3 93/154/3
f 91/78/29 95/84/29 66/86/29
f 43/88/2 42/165/2 97/49/2
f 99/14/2 98/155/2 44/61/2
f 61/51/2 60/62/2 98/155/2
f 96/89/2 99/14/2 54/156/2
f 52/5/6 55/163/6 101/19/6
f 103/80/15 102/158/15 70/157/15
f 56/21/6 59/122/6 102/158/6
f 100/6/16 104/52/16 69/54/16
f 106/30/23 105/29/23 108/131/23
f 112/27/21 111/26/21 107/159/21
f 115/82/15 114/80/15 113/79/15
f 116/132/16 115/82/16 110/160/16
f 105/29/19 107/159/19 14/25/19
f 74/128/33 73/27/33 111/26/33
f 109/126/17 108/131/17 64/28/17
f 114/80/11 116/132/11 104/52/11
f 117/133/17 119/73/17 121/75/17
f 123/136/23 125/137/23 119/73/23
f 127/74/20 126/38/20 122/135/20
f 128/138/29 127/74/29 125/137/29
f 126/38/13 128/138/13 95/84/13
f 67/126/21 66/86/21 124/85/21
f 120/117/30 122/135/30 40/37/30
f 118/107/16 117/164/16 20/46/16
f 70/157/1 102/158/1 59/122/1
