# Blender 4.0.2
# www.blender.org
mtllib enemy219.mtl
o Cube
v 1.017297 0.545447 2.098236
v 0.840649 0.868222 1.493628
v 0.508488 1.037427 2.095274
v -0.341846 1.171254 1.588179
v -0.009686 1.002049 0.986533
v -0.684970 0.813352 1.083093
v 1.182671 -0.302840 1.597054
v 0.839547 -0.660742 1.091968
v 1.006023 0.019935 0.992446
v 0.155688 0.153761 0.485350
v -0.010787 -0.526915 0.584873
v -0.519596 -0.034935 0.581911
v 0.696244 -0.287840 3.402697
v 0.862719 0.392837 3.303175
v 0.010787 0.526915 2.795127
v -0.155688 -0.153761 2.894650
v -1.182671 0.302840 1.782947
v -1.006023 -0.019935 2.387555
v -0.839547 0.660742 2.288032
v -0.156790 -1.682725 2.492990
v 0.341846 -1.171254 1.791821
v 0.684970 -0.813352 2.296907
v 0.186334 -1.324824 2.998075
v -1.017297 -0.545447 1.281764
v -0.508488 -1.037427 1.284726
v -0.840649 -0.868222 1.886372
v -0.840494 -0.869019 1.885901
v -1.006178 -0.019138 2.388025
v -1.182826 0.303637 1.783417
v -1.017141 -0.546244 1.281294
v -1.183138 0.302361 1.783604
v -0.840015 0.660262 2.288690
v -0.341379 1.171733 1.587521
v -0.684502 0.813832 1.082436
v -0.010484 1.002175 0.986057
v -0.342645 1.171380 1.587703
v 0.509287 1.037301 2.095750
v 0.841448 0.868096 1.494104
v -0.155991 -1.682851 2.493466
v -0.664800 -1.190871 2.490504
v -0.841448 -0.868096 1.885896
v -0.509287 -1.037301 1.284250
v 0.342645 -1.171380 1.792298
v -0.011586 -0.526789 0.584396
v 0.154890 0.153887 0.484874
v 1.006822 0.019809 0.992922
v 0.840346 -0.660867 1.092444
v -1.006822 -0.019809 2.387078
v -0.154890 -0.153887 2.895126
v 0.011586 0.526789 2.795604
v -0.840346 0.660867 2.287556
v 0.684502 -0.813832 2.297565
v 0.341379 -1.171733 1.792479
v 0.840015 -0.660262 1.091310
v 1.183138 -0.302361 1.596396
v 1.182826 -0.303637 1.596583
v 1.006178 0.019138 0.991975
v 0.840494 0.869019 1.494099
v 1.017141 0.546244 2.098707
v -0.010320 -0.526435 0.584215
v -0.508956 -1.037907 1.285384
v -1.017764 -0.545927 1.282422
v -0.519128 -0.034456 0.581253
v 0.696088 -0.287043 3.403168
v -0.155844 -0.152965 2.895120
v -0.322319 -0.833641 2.994643
v 0.186489 -1.325621 2.997605
v 0.685125 -0.814149 2.296436
v 1.028249 -0.456248 2.801522
v 1.017764 0.545927 2.097579
v 0.508956 1.037907 2.094617
v 0.010320 0.526435 2.795785
v 0.862252 0.392357 3.303833
v 1.194412 0.223152 2.702187
v -0.685125 0.814149 1.083564
v -0.009841 1.002846 0.987004
v 0.155844 0.152965 0.484880
v -0.519440 -0.035732 0.581440
v 0.509755 1.037781 2.095093
v -0.342178 1.171859 1.587045
v -0.840814 0.660388 2.288213
v 0.011118 0.526310 2.796261
v 1.006977 0.019012 0.992451
v 0.155045 0.153090 0.484403
v -0.010640 1.002971 0.986527
v 0.841292 0.868893 1.494575
v -0.518973 -0.035252 0.580783
v -1.017609 -0.546724 1.281951
v -1.183294 0.303158 1.784075
v -0.684658 0.814629 1.082906
v -0.155045 -0.153090 2.895597
v -1.006977 -0.019012 2.387549
v -0.841292 -0.868893 1.885425
v -0.664644 -1.191668 2.490033
v -0.321521 -0.833767 2.995119
v 0.342178 -1.171859 1.792955
v -0.509755 -1.037781 1.284907
v -0.011118 -0.526310 0.583739
v 0.840814 -0.660388 1.091787
v 0.684658 -0.814629 2.297094
v 1.183294 -0.303158 1.595925
v 1.017609 0.546724 2.098049
v 1.194257 0.223949 2.702657
v 1.027781 -0.456727 2.802179
v 0.620533 -0.275924 3.357548
v 1.295817 -0.087228 3.260987
v 0.787009 0.404752 3.258025
v 0.620378 -0.275128 3.358018
v 0.952538 -0.444332 2.756372
v 1.295662 -0.086431 3.261458
v 0.786541 0.404272 3.258683
v 1.295350 -0.087707 3.261645
v 1.118702 0.235067 2.657037
v 1.118546 0.235864 2.657507
v 1.295195 -0.086911 3.262115
v 0.952071 -0.444812 2.757030
v -0.126369 -1.651521 2.450212
v 0.216755 -1.293620 2.955298
v -0.458529 -1.482316 3.051858
v -0.125570 -1.651647 2.450688
v -0.457730 -1.482442 3.052334
v -0.634378 -1.159667 2.447726
v 0.216910 -1.294416 2.954827
v -0.291898 -0.802437 2.951865
v -0.458374 -1.483113 3.051387
v -0.634223 -1.160464 2.447256
v -0.457575 -1.483238 3.051864
v -0.291099 -0.802562 2.952342
vn 0.8511 -0.1340 0.5076
vn -0.1655 0.8491 0.5017
vn 0.4982 0.5110 -0.7005
vn 0.1655 -0.8491 -0.5017
vn -0.4982 -0.5110 0.7005
vn -0.8511 0.1340 -0.5076
vn 0.6835 0.7079 0.1782
vn -0.2994 0.8626 -0.4079
vn 0.8746 -0.2725 -0.4010
vn -0.1082 -0.1179 -0.9871
vn -0.4693 0.2391 0.8501
vn -0.8746 0.2725 0.4010
vn 0.7189 -0.6951 0.0042
vn -0.6835 -0.7079 -0.1782
vn -0.9541 -0.2666 0.1364
vn -0.7189 0.6951 -0.0042
vn 0.2352 0.9617 -0.1406
vn -0.0747 -0.9880 -0.1354
vn 0.4693 -0.2391 -0.8501
vn 0.9541 0.2666 -0.1364
vn -0.4848 -0.5057 -0.7136
vn 0.1082 0.1179 0.9871
vn -0.2496 0.4560 -0.8542
vn -0.7571 -0.1658 0.6319
vn 0.9700 -0.2231 0.0966
vn 0.2994 -0.8626 0.4079
vn -0.2352 -0.9617 0.1406
vn 0.4848 0.5057 0.7136
vn 0.2496 -0.4561 0.8542
vn 0.2496 -0.4560 0.8542
vn -0.2496 0.4561 -0.8542
vt 0.875000 0.687559
vt 0.875000 0.687441
vt 0.875000 0.687441
vt 0.812441 0.687559
vt 0.812559 0.687441
vt 0.812559 0.687559
vt 0.562441 0.312559
vt 0.562559 0.312441
vt 0.562559 0.312559
vt 0.437441 0.687559
vt 0.437559 0.687441
vt 0.437559 0.687559
vt 0.562441 0.812559
vt 0.562559 0.812441
vt 0.562559 0.812559
vt 0.562441 0.562559
vt 0.562559 0.562441
vt 0.562559 0.562559
vt 0.687441 0.687559
vt 0.687559 0.687441
vt 0.687559 0.687559
vt 0.437441 0.187559
vt 0.437559 0.187441
vt 0.437559 0.187559
vt 0.625000 0.312559
vt 0.625000 0.312441
vt 0.625000 0.312441
vt 0.625000 0.187559
vt 0.625000 0.187441
vt 0.625000 0.187441
vt 0.312441 0.562559
vt 0.312559 0.562441
vt 0.312559 0.562559
vt 0.437441 0.562559
vt 0.437559 0.562441
vt 0.437559 0.562559
vt 0.500000 0.062559
vt 0.500000 0.062441
vt 0.500000 0.062441
vt 0.437441 0.312559
vt 0.437559 0.312441
vt 0.437559 0.312559
vt 0.437441 0.437559
vt 0.437559 0.437441
vt 0.437559 0.437559
vt 0.562441 1.000000
vt 0.562559 1.000000
vt 0.562559 1.000000
vt 0.437441 0.937559
vt 0.437559 0.937441
vt 0.437559 0.937559
vt 0.812559 0.625000
vt 0.812441 0.625000
vt 0.812441 0.625000
vt 0.187441 0.687559
vt 0.187559 0.687441
vt 0.187559 0.687559
vt 0.312441 0.687559
vt 0.312559 0.687441
vt 0.312559 0.687559
vt 0.437441 0.812559
vt 0.437559 0.812441
vt 0.437559 0.812559
vt 0.562441 0.687559
vt 0.562559 0.687441
vt 0.562559 0.687559
vt 0.562441 0.437559
vt 0.562559 0.437441
vt 0.562559 0.437559
vt 0.187441 0.562559
vt 0.187559 0.562441
vt 0.187559 0.562559
vt 0.562441 0.062559
vt 0.562559 0.062441
vt 0.562559 0.062559
vt 0.562441 0.187559
vt 0.562559 0.187441
vt 0.562559 0.187559
vt 0.750000 0.562559
vt 0.750000 0.562441
vt 0.812441 0.562559
vt 0.812559 0.562441
vt 0.812559 0.562559
vt 0.562559 0.125000
vt 0.562441 0.125000
vt 0.562441 0.125000
vt 0.562441 0.937559
vt 0.562559 0.937441
vt 0.562559 0.937559
vt 0.437441 0.062559
vt 0.437559 0.062441
vt 0.437559 0.062559
vt 0.625000 0.437441
vt 0.562441 0.500000
vt 0.562441 0.437441
vt 0.312441 0.500000
vt 0.375000 0.562559
vt 0.625000 0.812559
vt 0.562441 0.750000
vt 0.375000 0.687441
vt 0.312441 0.750000
vt 0.312441 0.687441
vt 0.562441 0.187441
vt 0.125000 0.562559
vt 0.187559 0.500000
vt 0.562441 1.000000
vt 0.625000 1.000000
vt 0.187559 0.750000
vt 0.125000 0.687441
vt 0.125000 0.625000
vt 0.125000 0.687559
vt 0.187441 0.500000
vt 0.250000 0.562559
vt 0.437441 0.437441
vt 0.500000 0.062559
vt 0.437441 0.000000
vt 0.500000 0.000000
vt 0.437441 0.687441
vt 0.437441 0.187441
vt 0.625000 0.875000
vt 0.625000 0.937559
vt 0.687559 0.562441
vt 0.187441 0.750000
vt 0.250000 0.687441
vt 0.250000 0.750000
vt 0.625000 0.125000
vt 0.562441 0.375000
vt 0.625000 0.375000
vt 0.312441 0.562441
vt 0.625000 0.250000
vt 0.625000 0.187559
vt 0.812559 0.625000
vt 0.562441 0.000000
vt 0.625000 0.062559
vt 0.500000 0.062559
vt 0.625000 0.062441
vt 0.562441 0.062441
vt 0.562559 0.125000
vt 0.562441 0.937441
vt 0.625000 0.937441
vt 0.312559 0.750000
vt 0.625000 0.437559
vt 0.437559 0.000000
vt 0.562441 0.687441
vt 0.625000 0.812441
vt 0.687559 0.562559
vt 0.187441 0.687441
vt 0.812441 0.687441
vt 0.437441 0.312441
vt 0.562441 0.312441
vt 0.437441 0.562441
vt 0.562441 0.562441
vt 0.187441 0.562441
vt 0.437441 0.062441
vt 0.437441 0.812441
vt 0.562441 0.812441
vt 0.687441 0.562559
vt 0.687441 0.562441
vt 0.625000 0.312559
vt 0.812441 0.562441
vt 0.562559 0.000000
vt 0.875000 0.687559
vt 0.687441 0.687441
vt 0.562441 1.000000
vt 0.437441 0.937441
vt 0.187559 0.625000
vt 0.250000 0.500000
vt 0.562441 0.875000
vt 0.125000 0.562441
vt 0.312559 0.500000
s 0
usemtl Material
f 67/1/1 118/2/1 23/3/1
f 68/4/1 52/5/1 100/6/1
f 15/7/2 82/8/2 50/9/2
f 84/10/3 10/11/3 77/12/3
f 8/13/4 99/14/4 47/15/4
f 2/16/3 86/17/3 38/18/3
f 101/19/1 7/20/1 56/21/1
f 92/22/5 18/23/5 28/24/5
f 14/25/2 111/26/2 73/27/2
f 64/28/5 105/29/5 13/30/5
f 6/31/6 90/32/6 34/33/6
f 35/34/3 76/35/3 5/36/3
f 40/37/6 126/38/6 94/39/6
f 51/40/2 32/41/2 19/42/2
f 80/43/2 4/44/2 33/45/2
f 20/46/4 120/47/4 39/48/4
f 97/49/4 25/50/4 61/51/4
f 104/52/4 109/53/4 69/54/4
f 88/55/6 24/56/6 30/57/6
f 78/58/6 63/59/6 87/60/6
f 44/61/4 60/62/4 11/63/4
f 57/64/3 46/65/3 83/66/3
f 71/67/2 37/68/2 79/69/2
f 31/70/6 29/71/6 17/72/6
f 119/73/5 127/74/5 121/75/5
f 65/76/5 49/77/5 91/78/5
f 74/79/3 114/80/3 103/80/3
f 106/81/1 115/82/1 112/83/1
f 95/84/2 124/85/2 66/86/2
f 53/87/4 43/88/4 96/89/4
f 41/90/5 27/91/5 26/92/5
f 1/93/7 2/94/7 3/95/7
f 4/96/8 5/97/8 6/31/8
f 7/98/9 8/13/9 9/99/9
f 10/100/10 11/101/10 12/102/10
f 14/25/11 16/103/11 13/30/11
f 17/72/12 18/104/12 19/105/12
f 21/106/13 23/107/13 20/46/13
f 24/56/14 25/108/14 26/109/14
f 28/110/15 30/57/15 27/111/15
f 32/112/16 34/113/16 31/70/16
f 36/114/17 38/18/17 35/34/17
f 40/115/18 42/116/18 43/117/18
f 45/118/19 47/15/19 44/61/19
f 49/77/11 51/40/11 48/119/11
f 53/87/13 55/120/13 52/121/13
f 57/64/20 59/122/20 56/21/20
f 61/123/21 63/124/21 60/125/21
f 65/86/22 67/126/22 69/126/22
f 71/127/7 73/27/7 74/128/7
f 76/35/23 78/58/23 75/129/23
f 80/43/2 82/8/2 79/69/2
f 84/10/3 86/17/3 83/66/3
f 88/55/6 90/32/6 87/60/6
f 92/22/24 94/39/24 95/84/24
f 97/49/4 99/14/4 96/89/4
f 101/19/25 103/80/25 104/52/25
f 105/29/22 106/30/22 107/130/22
f 108/131/26 109/126/26 110/28/26
f 111/26/7 112/27/7 113/128/7
f 114/80/9 115/82/9 116/132/9
f 117/133/26 118/134/26 119/73/26
f 120/117/14 121/115/14 122/135/14
f 123/136/22 124/86/22 125/137/22
f 126/38/12 127/74/12 128/138/12
f 24/56/20 27/111/20 30/57/20
f 17/72/13 32/112/13 31/70/13
f 5/36/27 36/114/27 35/34/27
f 21/139/2 39/48/2 43/88/2
f 11/63/11 45/118/11 44/61/11
f 19/42/19 48/119/19 51/40/19
f 22/140/16 53/87/16 52/121/16
f 7/20/15 57/64/15 56/21/15
f 12/102/28 60/141/28 63/59/28
f 13/30/3 65/76/3 64/28/3
f 1/93/21 71/67/21 70/142/21
f 6/31/29 76/35/29 75/129/29
f 29/71/20 18/104/20 17/72/20
f 34/33/13 4/96/13 6/31/13
f 38/18/27 3/95/27 2/16/27
f 42/116/17 26/92/17 25/143/17
f 47/15/11 9/144/11 8/13/11
f 50/9/19 16/103/19 15/7/19
f 55/145/16 8/13/16 7/98/16
f 59/122/15 2/16/15 1/146/15
f 62/147/28 25/108/28 24/56/28
f 68/4/6 23/3/6 22/148/6
f 73/27/4 15/7/4 14/25/4
f 78/58/30 10/11/30 12/102/30
f 37/68/4 80/43/4 79/69/4
f 82/8/4 51/40/4 50/9/4
f 33/45/4 81/149/4 80/43/4
f 79/69/4 72/150/4 71/67/4
f 46/65/5 84/10/5 83/66/5
f 86/17/5 35/34/5 38/18/5
f 77/12/5 85/151/5 84/10/5
f 83/66/5 58/152/5 57/64/5
f 63/59/1 88/55/1 87/60/1
f 90/32/1 31/70/1 34/33/1
f 30/57/1 89/153/1 88/55/1
f 87/60/1 75/129/1 78/58/1
f 49/77/3 92/22/3 91/78/3
f 94/39/20 41/90/20 40/37/20
f 28/24/3 93/154/3 92/22/3
f 91/78/19 66/86/19 65/76/19
f 43/88/2 97/49/2 96/89/2
f 99/14/2 44/61/2 47/15/2
f 61/51/2 98/155/2 97/49/2
f 96/89/2 54/156/2 53/87/2
f 52/5/6 101/19/6 100/6/6
f 103/80/15 70/157/15 74/79/15
f 56/21/6 102/158/6 101/19/6
f 100/6/16 69/54/16 68/4/16
f 106/30/31 108/131/31 110/28/31
f 112/27/21 107/159/21 106/25/21
f 115/82/15 113/79/15 112/83/15
f 116/132/16 110/160/16 109/53/16
f 105/29/19 14/25/19 13/30/19
f 74/128/27 111/26/27 113/128/27
f 109/126/17 64/28/17 69/126/17
f 114/80/11 104/52/11 103/80/11
f 117/133/17 121/75/17 120/161/17
f 123/136/23 119/73/23 118/134/23
f 127/74/20 122/135/20 121/75/20
f 128/138/19 125/137/19 124/85/19
f 126/38/13 95/84/13 94/39/13
f 67/126/21 124/85/21 123/126/21
f 120/117/28 40/37/28 39/117/28
f 118/107/16 20/46/16 23/107/16
f 70/157/1 59/122/1 1/146/1
f 67/1/1 123/162/1 118/2/1
f 68/4/1 22/148/1 52/5/1
f 15/7/2 72/150/2 82/8/2
f 84/10/3 45/118/3 10/11/3
f 8/13/4 54/156/4 99/14/4
f 2/16/3 58/152/3 86/17/3
f 101/19/1 55/163/1 7/20/1
f 92/22/5 48/119/5 18/23/5
f 14/25/2 107/159/2 111/26/2
f 64/28/5 108/131/5 105/29/5
f 6/31/6 75/129/6 90/32/6
f 35/34/3 85/151/3 76/35/3
f 40/37/6 122/135/6 126/38/6
f 51/40/2 81/149/2 32/41/2
f 80/43/2 36/114/2 4/44/2
f 20/46/4 117/164/4 120/47/4
f 97/49/4 42/165/4 25/50/4
f 104/52/4 116/132/4 109/53/4
f 88/55/6 62/147/6 24/56/6
f 78/58/6 12/102/6 63/59/6
f 44/61/4 98/155/4 60/62/4
f 57/64/3 9/144/3 46/65/3
f 71/67/2 3/95/2 37/68/2
f 31/70/6 89/153/6 29/71/6
f 119/73/5 125/137/5 127/74/5
f 65/76/5 16/103/5 49/77/5
f 74/79/3 113/79/3 114/80/3
f 106/81/1 110/160/1 115/82/1
f 95/84/2 128/138/2 124/85/2
f 53/87/4 21/139/4 43/88/4
f 41/90/5 93/154/5 27/91/5
f 14/25/11 15/7/11 16/103/11
f 21/106/13 22/107/13 23/107/13
f 28/110/15 29/166/15 30/57/15
f 32/112/16 33/167/16 34/113/16
f 36/114/17 37/68/17 38/18/17
f 43/117/21 39/117/21 40/115/21
f 40/115/14 41/90/14 42/116/14
f 45/118/19 46/65/19 47/15/19
f 49/77/11 50/9/11 51/40/11
f 53/87/13 54/168/13 55/120/13
f 57/64/20 58/152/20 59/122/20
f 61/123/21 62/147/21 63/124/21
f 69/126/27 64/126/27 65/86/27
f 65/86/22 66/86/22 67/126/22
f 67/126/13 68/126/13 69/126/13
f 74/128/7 70/128/7 71/127/7
f 71/127/2 72/150/2 73/27/2
f 76/35/23 77/12/23 78/58/23
f 80/43/2 81/149/2 82/8/2
f 84/10/3 85/151/3 86/17/3
f 88/55/6 89/153/6 90/32/6
f 95/84/11 91/78/11 92/22/11
f 92/22/15 93/154/15 94/39/15
f 97/49/4 98/155/4 99/14/4
f 104/52/13 100/6/13 101/19/13
f 101/19/20 102/158/20 103/80/20
f 24/56/20 26/109/20 27/111/20
f 17/72/13 19/105/13 32/112/13
f 5/36/27 4/44/27 36/114/27
f 21/139/2 20/46/2 39/48/2
f 11/63/11 10/11/11 45/118/11
f 19/42/19 18/23/19 48/119/19
f 22/140/16 21/139/16 53/87/16
f 7/20/15 9/144/15 57/64/15
f 12/102/28 11/101/28 60/141/28
f 13/30/3 16/103/3 65/76/3
f 1/93/21 3/95/21 71/67/21
f 6/31/30 5/36/30 76/35/30
f 29/71/20 28/169/20 18/104/20
f 34/33/13 33/170/13 4/96/13
f 38/18/27 37/68/27 3/95/27
f 42/116/17 41/90/17 26/92/17
f 47/15/11 46/65/11 9/144/11
f 50/9/19 49/77/19 16/103/19
f 55/145/16 54/156/16 8/13/16
f 59/122/15 58/152/15 2/16/15
f 62/147/28 61/123/28 25/108/28
f 68/4/6 67/1/6 23/3/6
f 73/27/4 72/150/4 15/7/4
f 78/58/29 77/12/29 10/11/29
f 37/68/4 36/114/4 80/43/4
f 82/8/4 81/149/4 51/40/4
f 33/45/4 32/41/4 81/149/4
f 79/69/4 82/8/4 72/150/4
f 46/65/5 45/118/5 84/10/5
f 86/17/5 85/151/5 35/34/5
f 77/12/5 76/35/5 85/151/5
f 83/66/5 86/17/5 58/152/5
f 63/59/1 62/147/1 88/55/1
f 90/32/1 89/153/1 31/70/1
f 30/57/1 29/71/1 89/153/1
f 87/60/1 90/32/1 75/129/1
f 49/77/3 48/119/3 92/22/3
f 94/39/20 93/154/20 41/90/20
f 28/24/3 27/91/3 93/154/3
f 91/78/19 95/84/19 66/86/19
f 43/88/2 42/165/2 97/49/2
f 99/14/2 98/155/2 44/61/2
f 61/51/2 60/62/2 98/155/2
f 96/89/2 99/14/2 54/156/2
f 52/5/6 55/163/6 101/19/6
f 103/80/15 102/158/15 70/157/15
f 56/21/6 59/122/6 102/158/6
f 100/6/16 104/52/16 69/54/16
f 106/30/23 105/29/23 108/131/23
f 112/27/21 111/26/21 107/159/21
f 115/82/15 114/80/15 113/79/15
f 116/132/16 115/82/16 110/160/16
f 105/29/19 107/159/19 14/25/19
f 74/128/27 73/27/27 111/26/27
f 109/126/17 108/131/17 64/28/17
f 114/80/11 116/132/11 104/52/11
f 117/133/17 119/73/17 121/75/17
f 123/136/31 125/137/31 119/73/31
f 127/74/20 126/38/20 122/135/20
f 128/138/19 127/74/19 125/137/19
f 126/38/13 128/138/13 95/84/13
f 67/126/21 66/86/21 124/85/21
f 120/117/28 122/135/28 40/37/28
f 118/107/16 117/164/16 20/46/16
f 70/157/1 102/158/1 59/122/1
