# Blender 4.0.2
# www.blender.org
mtllib enemy519.mtl
o Cube.001
v 2.595797 0.491273 6.694988
v 2.595797 0.491273 7.745242
v 2.595797 -1.171273 6.694988
v 2.595797 -1.171273 7.745242
v 0.933250 0.491273 6.082695
v 1.359509 0.491273 7.014677
v 0.933250 -1.171273 6.082695
v 1.359510 -1.171273 7.014677
v 2.991256 0.342133 7.480666
v 3.641191 0.491274 9.582608
v 2.991257 -1.320414 7.480666
v 3.641191 -1.171273 9.582608
vn 0.8932 -0.0000 -0.4496
vn -0.0000 -1.0000 -0.0000
vn -0.9094 -0.0000 0.4159
vn -0.0000 1.0000 -0.0000
vn 0.3456 -0.0000 -0.9384
vn -0.5087 -0.0000 0.8609
vn 0.9554 -0.0000 -0.2954
vn -0.2606 -0.9540 0.1483
vn 0.3529 0.9357 -0.0000
vn -0.8692 -0.0000 0.4945
vn -0.3529 -0.9357 -0.0000
vn 0.2606 0.9540 -0.1483
vt 0.125000 0.500000
vt 0.125000 0.750000
vt 0.375000 0.250000
vt 0.625000 0.500000
vt 0.375000 0.500000
vt 0.375000 0.750000
vt 0.625000 0.750000
vt 0.375000 1.000000
vt 0.875000 0.500000
vt 0.375000 0.000000
vt 0.625000 0.250000
vt 0.625000 1.000000
vt 0.875000 0.750000
vt 0.625000 0.000000
s 0
f 3/1/1 9/2/1 11/1/1
f 3/3/2 8/4/2 7/5/2
f 8/4/3 5/6/3 7/5/3
f 6/7/4 1/8/4 5/6/4
f 7/5/5 1/2/5 3/1/5
f 4/9/6 6/7/6 8/4/6
f 9/10/7 12/11/7 11/3/7
f 4/11/8 11/3/8 12/11/8
f 2/12/9 9/8/9 1/8/9
f 4/9/10 10/13/10 2/13/10
f 3/1/1 1/2/1 9/2/1
f 3/3/2 4/11/2 8/4/2
f 8/4/3 6/7/3 5/6/3
f 6/7/4 2/12/4 1/8/4
f 7/5/5 5/6/5 1/2/5
f 4/9/6 2/13/6 6/7/6
f 9/10/7 10/14/7 12/11/7
f 4/11/11 3/3/11 11/3/11
f 2/12/12 10/12/12 9/8/12
f 4/9/10 12/9/10 10/13/10
o Cube.002
v -2.614886 -1.171273 6.722766
v -2.614886 -1.171273 7.773019
v -2.614886 0.491273 6.722766
v -2.614886 0.491273 7.773019
v -0.952339 -1.171273 6.110473
v -1.378599 -1.171273 7.042454
v -0.952339 0.491273 6.110473
v -1.378599 0.491273 7.042454
v -3.010346 -1.022133 7.508444
v -3.660280 -1.171273 9.610386
v -3.010346 0.640414 7.508444
v -3.660280 0.491273 9.610386
vn -0.8932 -0.0000 -0.4496
vn -0.0000 1.0000 -0.0000
vn 0.9094 -0.0000 0.4159
vn -0.0000 -1.0000 -0.0000
vn -0.3456 -0.0000 -0.9384
vn 0.5087 -0.0000 0.8609
vn -0.9554 -0.0000 -0.2954
vn 0.2606 0.9540 0.1483
vn -0.3529 -0.9357 -0.0000
vn 0.8692 -0.0000 0.4945
vn 0.3529 0.9357 -0.0000
vn -0.2606 -0.9540 -0.1483
vt 0.125000 0.500000
vt 0.125000 0.750000
vt 0.375000 0.250000
vt 0.625000 0.500000
vt 0.375000 0.500000
vt 0.375000 0.750000
vt 0.625000 0.750000
vt 0.375000 1.000000
vt 0.875000 0.500000
vt 0.375000 0.000000
vt 0.625000 0.250000
vt 0.625000 1.000000
vt 0.875000 0.750000
vt 0.625000 0.000000
s 0
f 15/15/13 21/16/13 23/15/13
f 15/17/14 20/18/14 19/19/14
f 20/18/15 17/20/15 19/19/15
f 18/21/16 13/22/16 17/20/16
f 19/19/17 13/16/17 15/15/17
f 16/23/18 18/21/18 20/18/18
f 21/24/19 24/25/19 23/17/19
f 16/25/20 23/17/20 24/25/20
f 14/26/21 21/22/21 13/22/21
f 16/23/22 22/27/22 14/27/22
f 15/15/13 13/16/13 21/16/13
f 15/17/14 16/25/14 20/18/14
f 20/18/15 18/21/15 17/20/15
f 18/21/16 14/26/16 13/22/16
f 19/19/17 17/20/17 13/16/17
f 16/23/18 14/27/18 18/21/18
f 21/24/19 22/28/19 24/25/19
f 16/25/23 15/17/23 23/17/23
f 14/26/24 22/26/24 21/22/24
f 16/23/22 24/23/22 22/27/22
o Cube.003
v -0.538377 0.367634 6.258071
v -0.538377 0.367634 6.724339
v -0.538377 1.465345 6.258071
v -0.538377 1.465345 6.724339
v 0.538377 0.367634 6.258071
v 0.538377 0.367634 6.724339
v 0.538377 1.465345 6.258071
v 0.538377 1.465345 6.724339
v -1.000000 -1.000000 5.491205
v -1.000000 -1.000000 7.491205
v -1.000000 1.000000 5.491205
v -1.000000 1.000000 7.491205
v 1.000000 -1.000000 5.491205
v 1.000000 -1.000000 7.491205
v 1.000000 1.000000 5.491205
v 1.000000 1.000000 7.491205
vn -1.0000 -0.0000 -0.0000
vn -0.0000 1.0000 -0.0000
vn 1.0000 -0.0000 -0.0000
vn -0.0000 -1.0000 -0.0000
vn -0.0000 -0.0000 -1.0000
vn -0.0000 -0.0000 1.0000
vt 0.625000 0.000000
vt 0.375000 0.250000
vt 0.375000 0.000000
vt 0.625000 0.250000
vt 0.375000 0.500000
vt 0.625000 0.500000
vt 0.375000 0.750000
vt 0.625000 0.750000
vt 0.375000 1.000000
vt 0.125000 0.750000
vt 0.125000 0.500000
vt 0.875000 0.500000
vt 0.625000 1.000000
vt 0.875000 0.750000
s 0
f 26/29/25 27/30/25 25/31/25
f 28/32/26 31/33/26 27/30/26
f 32/34/27 29/35/27 31/33/27
f 30/36/28 25/37/28 29/35/28
f 31/33/29 25/38/29 27/39/29
f 28/40/30 30/36/30 32/34/30
f 34/29/25 35/30/25 33/31/25
f 36/32/26 39/33/26 35/30/26
f 40/34/27 37/35/27 39/33/27
f 38/36/28 33/37/28 37/35/28
f 39/33/29 33/38/29 35/39/29
f 36/40/30 38/36/30 40/34/30
f 26/29/25 28/32/25 27/30/25
f 28/32/26 32/34/26 31/33/26
f 32/34/27 30/36/27 29/35/27
f 30/36/28 26/41/28 25/37/28
f 31/33/29 29/35/29 25/38/29
f 28/40/30 26/42/30 30/36/30
f 34/29/25 36/32/25 35/30/25
f 36/32/26 40/34/26 39/33/26
f 40/34/27 38/36/27 37/35/27
f 38/36/28 34/41/28 33/37/28
f 39/33/29 37/35/29 33/38/29
f 36/40/30 34/42/30 38/36/30
