# Blender 4.0.2
# www.blender.org
mtllib enemy55.mtl
o Cube.001
v 2.084550 0.491273 3.900879
v 1.904997 0.491273 4.935670
v 2.084551 -1.171273 3.900879
v 1.904997 -1.171273 4.935670
v 0.551159 0.491273 3.013368
v 0.811810 0.491273 4.004503
v 0.551159 -1.171273 3.013368
v 0.811810 -1.171274 4.004503
v 2.339867 0.342133 4.742599
v 2.620881 0.491274 6.924709
v 2.339867 -1.320414 4.742599
v 2.620881 -1.171273 6.924709
vn 0.9569 -0.0000 -0.2903
vn -0.0000 -1.0000 -0.0000
vn -0.9671 -0.0000 0.2543
vn -0.0000 1.0000 -0.0000
vn 0.5009 -0.0000 -0.8655
vn -0.6484 -0.0000 0.7613
vn 0.9918 -0.0000 -0.1277
vn -0.2821 -0.9540 0.1015
vn 0.3477 0.9357 0.0603
vn -0.9409 -0.0000 0.3386
vn -0.3477 -0.9357 -0.0603
vn 0.2821 0.9540 -0.1015
vt 0.125000 0.500000
vt 0.125000 0.750000
vt 0.375000 0.250000
vt 0.625000 0.500000
vt 0.375000 0.500000
vt 0.375000 0.750000
vt 0.625000 0.750000
vt 0.375000 1.000000
vt 0.875000 0.500000
vt 0.375000 0.000000
vt 0.625000 0.250000
vt 0.625000 1.000000
vt 0.875000 0.750000
vt 0.625000 0.000000
s 0
f 3/1/1 9/2/1 11/1/1
f 3/3/2 8/4/2 7/5/2
f 8/4/3 5/6/3 7/5/3
f 6/7/4 1/8/4 5/6/4
f 7/5/5 1/2/5 3/1/5
f 4/9/6 6/7/6 8/4/6
f 9/10/7 12/11/7 11/3/7
f 4/11/8 11/3/8 12/11/8
f 2/12/9 9/8/9 1/8/9
f 4/9/10 10/13/10 2/13/10
f 3/1/1 1/2/1 9/2/1
f 3/3/2 4/11/2 8/4/2
f 8/4/3 6/7/3 5/6/3
f 6/7/4 2/12/4 1/8/4
f 7/5/5 5/6/5 1/2/5
f 4/9/6 2/13/6 6/7/6
f 9/10/7 10/14/7 12/11/7
f 4/11/11 3/3/11 11/3/11
f 2/12/12 10/12/12 9/8/12
f 4/9/10 12/9/10 10/13/10
o Cube.002
v -2.084551 -1.171273 3.900879
v -1.904997 -1.171273 4.935670
v -2.084551 0.491273 3.900879
v -1.904997 0.491273 4.935670
v -0.551159 -1.171273 3.013368
v -0.811810 -1.171273 4.004503
v -0.551159 0.491273 3.013368
v -0.811810 0.491273 4.004503
v -2.339867 -1.022133 4.742599
v -2.620881 -1.171273 6.924709
v -2.339867 0.640414 4.742599
v -2.620881 0.491273 6.924709
vn -0.9569 -0.0000 -0.2903
vn -0.0000 1.0000 -0.0000
vn 0.9671 -0.0000 0.2543
vn -0.0000 -1.0000 -0.0000
vn -0.5009 -0.0000 -0.8655
vn 0.6484 -0.0000 0.7613
vn -0.9918 -0.0000 -0.1277
vn 0.2821 0.9540 0.1015
vn -0.3477 -0.9357 0.0603
vn 0.9409 -0.0000 0.3386
vn 0.3477 0.9357 -0.0603
vn -0.2821 -0.9540 -0.1015
vt 0.125000 0.500000
vt 0.125000 0.750000
vt 0.375000 0.250000
vt 0.625000 0.500000
vt 0.375000 0.500000
vt 0.375000 0.750000
vt 0.625000 0.750000
vt 0.375000 1.000000
vt 0.875000 0.500000
vt 0.375000 0.000000
vt 0.625000 0.250000
vt 0.625000 1.000000
vt 0.875000 0.750000
vt 0.625000 0.000000
s 0
f 15/15/13 21/16/13 23/15/13
f 15/17/14 20/18/14 19/19/14
f 20/18/15 17/20/15 19/19/15
f 18/21/16 13/22/16 17/20/16
f 19/19/17 13/16/17 15/15/17
f 16/23/18 18/21/18 20/18/18
f 21/24/19 24/25/19 23/17/19
f 16/25/20 23/17/20 24/25/20
f 14/26/21 21/22/21 13/22/21
f 16/23/22 22/27/22 14/27/22
f 15/15/13 13/16/13 21/16/13
f 15/17/14 16/25/14 20/18/14
f 20/18/15 18/21/15 17/20/15
f 18/21/16 14/26/16 13/22/16
f 19/19/17 17/20/17 13/16/17
f 16/23/18 14/27/18 18/21/18
f 21/24/19 22/28/19 24/25/19
f 16/25/23 15/17/23 23/17/23
f 14/26/24 22/26/24 21/22/24
f 16/23/22 24/23/22 22/27/22
o Cube.003
v -0.538377 0.367634 3.196235
v -0.538377 0.367634 3.662503
v -0.538377 1.465345 3.196235
v -0.538377 1.465345 3.662503
v 0.538377 0.367634 3.196235
v 0.538377 0.367634 3.662503
v 0.538377 1.465345 3.196235
v 0.538377 1.465345 3.662503
v -1.000000 -1.000000 2.429369
v -1.000000 -1.000000 4.429369
v -1.000000 1.000000 2.429369
v -1.000000 1.000000 4.429369
v 1.000000 -1.000000 2.429369
v 1.000000 -1.000000 4.429369
v 1.000000 1.000000 2.429369
v 1.000000 1.000000 4.429369
vn -1.0000 -0.0000 -0.0000
vn -0.0000 1.0000 -0.0000
vn 1.0000 -0.0000 -0.0000
vn -0.0000 -1.0000 -0.0000
vn -0.0000 -0.0000 -1.0000
vn -0.0000 -0.0000 1.0000
vt 0.625000 0.000000
vt 0.375000 0.250000
vt 0.375000 0.000000
vt 0.625000 0.250000
vt 0.375000 0.500000
vt 0.625000 0.500000
vt 0.375000 0.750000
vt 0.625000 0.750000
vt 0.375000 1.000000
vt 0.125000 0.750000
vt 0.125000 0.500000
vt 0.875000 0.500000
vt 0.625000 1.000000
vt 0.875000 0.750000
s 0
f 26/29/25 27/30/25 25/31/25
f 28/32/26 31/33/26 27/30/26
f 32/34/27 29/35/27 31/33/27
f 30/36/28 25/37/28 29/35/28
f 31/33/29 25/38/29 27/39/29
f 28/40/30 30/36/30 32/34/30
f 34/29/25 35/30/25 33/31/25
f 36/32/26 39/33/26 35/30/26
f 40/34/27 37/35/27 39/33/27
f 38/36/28 33/37/28 37/35/28
f 39/33/29 33/38/29 35/39/29
f 36/40/30 38/36/30 40/34/30
f 26/29/25 28/32/25 27/30/25
f 28/32/26 32/34/26 31/33/26
f 32/34/27 30/36/27 29/35/27
f 30/36/28 26/41/28 25/37/28
f 31/33/29 29/35/29 25/38/29
f 28/40/30 26/42/30 30/36/30
f 34/29/25 36/32/25 35/30/25
f 36/32/26 40/34/26 39/33/26
f 40/34/27 38/36/27 37/35/27
f 38/36/28 34/41/28 33/37/28
f 39/33/29 37/35/29 33/38/29
f 36/40/30 34/42/30 38/36/30
