# Blender 4.0.2
# www.blender.org
mtllib enemy112.mtl
o Cube
v 1.522016 0.703364 1.561619
v 0.889425 0.383958 -0.308624
v 0.904643 -1.126152 2.082890
v 0.272052 -1.445558 0.212646
v -0.272052 1.445558 2.041690
v -0.904643 1.126152 0.171447
v -0.889425 -0.383958 2.562961
v -1.522016 -0.703364 0.692717
v 1.366887 0.925278 2.156746
v 1.369659 0.650167 2.592432
v 1.581257 0.456765 2.164252
v 0.737068 0.330760 0.722189
v 1.724622 -0.178115 1.659094
v 1.479644 -0.754695 1.840425
v 1.188830 -0.706150 2.495593
v 0.977232 -0.512748 2.923773
v 0.749514 -0.904238 2.678017
v 0.056424 -1.272136 2.410186
v -0.514412 -0.992160 2.555449
v 0.344641 -0.832154 1.053530
v 0.226504 1.397047 2.461899
v -0.212811 1.198959 2.644323
v 0.229277 1.121935 2.897584
v 0.585314 1.596161 1.741436
v 1.156149 1.316185 1.596172
v -0.403314 0.802529 1.027341
v -0.605238 0.036044 2.975664
v -0.390868 -0.432469 2.983170
v -0.163150 -0.040979 3.228925
v -0.795741 -0.360385 1.358682
v -1.082884 0.502139 2.492528
v -0.837906 1.078720 2.311197
vn -0.3163 -0.1597 -0.9351
vn 0.3087 0.9148 -0.2606
vn 0.8970 -0.3711 -0.2400
vn 0.3163 0.1597 0.9351
vn -0.8970 0.3711 0.2400
vn -0.3087 -0.9148 0.2606
vn -0.2744 0.9458 0.1735
vn -0.7720 -0.2695 0.5756
vn 0.4177 -0.8735 0.2501
vn 0.8787 0.4061 0.2508
vn 0.4860 -0.4434 -0.7531
vn 0.5223 -0.6502 0.5518
vn -0.4831 -0.7975 -0.3613
vn -0.1571 0.8346 0.5280
vn 0.0922 0.6001 -0.7946
vn -0.5135 -0.2217 0.8290
vn -0.8791 0.2449 -0.4089
vn -0.4360 0.8381 -0.3279
vn 0.7312 0.2515 -0.6341
vn 0.8816 0.3993 -0.2517
vn -0.4034 0.4261 0.8098
vn 0.4399 -0.8936 0.0891
vn -0.3895 0.9191 0.0600
vn 0.0054 -0.5339 0.8455
vn 0.8580 -0.1495 0.4915
vn -0.9346 -0.3542 0.0327
vn -0.4106 0.3753 0.8310
vn 0.4419 0.7598 0.4769
vn 0.2395 -0.9373 -0.2531
vn 0.9309 0.3497 -0.1061
vn -0.4905 0.3879 0.7804
vn -0.0355 -0.6019 0.7978
vn 0.8932 -0.1845 0.4101
vn -0.9123 0.2072 -0.3534
vn 0.0642 0.6467 -0.7600
vn 0.8447 -0.2032 0.4951
vn -0.8137 -0.3651 0.4523
vn -0.0451 -0.5310 0.8462
vn 0.4830 0.7521 0.4484
vn -0.4356 -0.8343 -0.3380
vn 0.5416 -0.3943 -0.7424
vn 0.4395 0.8059 0.3967
vt 0.625000 0.750000
vt 0.875000 0.500000
vt 0.625000 0.500000
vt 0.375000 1.000000
vt 0.375000 0.750000
vt 0.375000 0.250000
vt 0.625000 0.000000
vt 0.375000 0.000000
vt 0.125000 0.750000
vt 0.375000 0.500000
vt 0.125000 0.500000
vt 0.625000 0.250000
vt 0.329455 0.545545
vt 0.170545 0.704455
vt 0.170545 0.545545
vt 0.420545 0.045545
vt 0.579455 0.204455
vt 0.420545 0.204455
vt 0.420545 0.795545
vt 0.579455 0.954455
vt 0.420545 0.954455
vt 0.829455 0.545545
vt 0.670545 0.704455
vt 0.670545 0.545545
vt 0.420545 0.545545
vt 0.579455 0.704455
vt 0.420545 0.704455
vt 0.579455 0.454455
vt 0.625000 0.454455
vt 0.579455 0.500000
vt 0.329455 0.500000
vt 0.375000 0.545545
vt 0.579455 0.750000
vt 0.625000 0.795545
vt 0.579455 0.795545
vt 0.375000 0.704455
vt 0.329455 0.750000
vt 0.329455 0.704455
vt 0.579455 0.250000
vt 0.625000 0.204455
vt 0.125000 0.545545
vt 0.170545 0.500000
vt 0.579455 0.045545
vt 0.579455 0.000000
vt 0.625000 0.045545
vt 0.170545 0.750000
vt 0.125000 0.704455
vt 0.579455 0.545545
vt 0.420545 0.454455
vt 0.420545 0.000000
vt 0.579455 0.295545
vt 0.625000 0.954455
vt 0.625000 0.295545
vt 0.420545 0.295545
vt 0.875000 0.750000
vt 0.625000 1.000000
vt 0.829455 0.704455
s 0
usemtl Material
f 3/1/1 5/2/1 1/3/1
f 8/4/2 3/1/2 4/5/2
f 6/6/3 7/7/3 8/8/3
f 8/9/4 2/10/4 6/11/4
f 4/5/5 1/3/5 2/10/5
f 2/10/6 5/12/6 6/6/6
f 12/13/1 30/14/1 26/15/1
f 32/16/7 22/17/7 24/18/7
f 19/19/8 28/20/8 31/21/8
f 23/22/4 16/23/4 10/24/4
f 14/25/9 15/26/9 18/27/9
f 9/28/10 10/29/10 11/30/10
f 12/13/11 13/31/11 14/32/11
f 15/33/12 16/34/12 17/35/12
f 18/36/13 19/37/13 20/38/13
f 21/39/14 22/17/14 23/40/14
f 24/41/15 25/42/15 26/15/15
f 27/43/16 28/44/16 29/45/16
f 30/14/17 31/46/17 32/47/17
f 26/15/18 32/47/18 24/41/18
f 12/13/19 25/42/19 13/31/19
f 11/48/20 13/49/20 9/28/20
f 31/50/21 27/43/21 32/16/21
f 17/35/22 18/27/22 15/26/22
f 21/51/23 24/18/23 22/17/23
f 29/52/24 17/35/24 16/34/24
f 16/23/25 11/48/25 10/24/25
f 30/14/26 19/37/26 31/46/26
f 23/40/27 27/43/27 29/45/27
f 10/29/28 21/51/28 23/53/28
f 20/38/29 14/25/29 18/27/29
f 25/54/30 9/28/30 13/49/30
f 3/1/1 7/55/1 5/2/1
f 8/4/2 7/56/2 3/1/2
f 6/6/3 5/12/3 7/7/3
f 8/9/4 4/5/4 2/10/4
f 4/5/5 3/1/5 1/3/5
f 2/10/6 1/3/6 5/12/6
f 12/13/1 20/38/1 30/14/1
f 32/16/31 27/43/31 22/17/31
f 19/19/32 17/35/32 28/20/32
f 23/22/4 29/57/4 16/23/4
f 14/25/33 11/48/33 15/26/33
f 26/15/34 30/14/34 32/47/34
f 12/13/35 26/15/35 25/42/35
f 11/48/36 14/25/36 13/49/36
f 31/50/37 28/44/37 27/43/37
f 17/35/38 19/19/38 18/27/38
f 21/51/39 25/54/39 24/18/39
f 29/52/24 28/20/24 17/35/24
f 16/23/25 15/26/25 11/48/25
f 30/14/40 20/38/40 19/37/40
f 23/40/27 22/17/27 27/43/27
f 10/29/28 9/28/28 21/51/28
f 20/38/41 12/13/41 14/25/41
f 25/54/42 21/51/42 9/28/42
