# Blender 4.0.2
# www.blender.org
mtllib enemy143.mtl
o Cube
v 0.995878 1.004105 2.085929
v 0.995878 1.004105 0.085929
v 1.004105 -0.995878 2.085929
v 1.004105 -0.995878 0.085929
v -1.004105 0.995878 2.085929
v -1.004105 0.995878 0.085929
v -0.995878 -1.004105 2.085929
v -0.995878 -1.004105 0.085929
v 0.631521 1.002607 2.628820
v 0.633020 0.638250 2.993179
v 0.997377 0.639749 2.628820
v 0.633020 0.638250 0.993179
v 1.484499 0.236906 2.100389
v 1.437863 -0.413606 2.100389
v 1.002607 -0.631521 2.628820
v 0.638250 -0.633020 2.993179
v 0.639749 -0.997377 2.628820
v 0.220820 -1.479783 2.100389
v -0.430173 -1.440421 2.100389
v 0.638250 -0.633020 0.993179
v -0.639749 0.997377 2.628820
v -1.002607 0.631521 2.628820
v -0.638250 0.633020 2.993179
v -0.220820 1.479783 2.100389
v 0.430173 1.440421 2.100389
v -0.638250 0.633020 0.993179
v -0.997377 -0.639749 2.628820
v -0.631521 -1.002607 2.628820
v -0.633020 -0.638250 2.993179
v -0.633020 -0.638250 0.993179
v -1.484499 -0.236906 2.100389
v -1.437863 0.413606 2.100389
vn -0.0000 -0.0000 -1.0000
vn -0.0041 1.0000 -0.0000
vn 1.0000 0.0041 -0.0000
vn -0.0000 -0.0000 1.0000
vn -1.0000 -0.0041 -0.0000
vn 0.0041 -1.0000 -0.0000
vn -0.6418 0.7326 0.2265
vn -0.7281 -0.6378 0.2510
vn 0.6418 -0.7326 0.2265
vn 0.5750 0.5797 0.5774
vn 0.7815 -0.0560 -0.6213
vn 0.5797 -0.5750 0.5774
vn -0.0474 -0.7847 -0.6180
vn -0.5797 0.5750 0.5774
vn 0.0474 0.7847 -0.6180
vn -0.5750 -0.5797 0.5774
vn -0.7815 0.0560 -0.6213
vn -0.6263 0.7150 -0.3107
vn 0.7122 0.6239 -0.3216
vn 0.7001 0.7059 0.1073
vn -0.7145 0.0512 0.6977
vn 0.7078 -0.7020 0.0797
vn -0.7078 0.7020 0.0797
vn 0.0029 -0.7071 0.7071
vn 0.7071 0.0029 0.7071
vn -0.7122 -0.6239 -0.3216
vn -0.7071 -0.0029 0.7071
vn -0.0029 0.7071 0.7071
vn 0.6263 -0.7150 -0.3107
vn 0.7281 0.6378 0.2510
vn -0.7712 -0.0032 0.6366
vn 0.0032 -0.7694 0.6387
vn 0.7712 0.0032 0.6366
vn -0.8104 -0.0033 -0.5859
vn -0.0033 0.8095 -0.5871
vn 0.7145 -0.0512 0.6977
vn -0.7001 -0.7059 0.1073
vn -0.0436 -0.7204 0.6922
vn 0.0436 0.7204 0.6922
vn 0.0033 -0.8095 -0.5871
vn 0.8104 0.0033 -0.5859
vn -0.0032 0.7694 0.6387
vt 0.625000 0.750000
vt 0.875000 0.500000
vt 0.625000 0.500000
vt 0.375000 1.000000
vt 0.375000 0.750000
vt 0.375000 0.250000
vt 0.625000 0.000000
vt 0.375000 0.000000
vt 0.125000 0.750000
vt 0.375000 0.500000
vt 0.125000 0.500000
vt 0.625000 0.250000
vt 0.329455 0.545545
vt 0.170545 0.704455
vt 0.170545 0.545545
vt 0.420545 0.045545
vt 0.579455 0.204455
vt 0.420545 0.204455
vt 0.420545 0.795545
vt 0.579455 0.954455
vt 0.420545 0.954455
vt 0.829455 0.545545
vt 0.670545 0.704455
vt 0.670545 0.545545
vt 0.420545 0.545545
vt 0.579455 0.704455
vt 0.420545 0.704455
vt 0.579455 0.454455
vt 0.625000 0.454455
vt 0.579455 0.500000
vt 0.329455 0.500000
vt 0.375000 0.545545
vt 0.579455 0.750000
vt 0.625000 0.795545
vt 0.579455 0.795545
vt 0.375000 0.704455
vt 0.329455 0.750000
vt 0.329455 0.704455
vt 0.579455 0.250000
vt 0.625000 0.204455
vt 0.125000 0.545545
vt 0.170545 0.500000
vt 0.579455 0.045545
vt 0.579455 0.000000
vt 0.625000 0.045545
vt 0.170545 0.750000
vt 0.125000 0.704455
vt 0.579455 0.545545
vt 0.420545 0.454455
vt 0.420545 0.000000
vt 0.579455 0.295545
vt 0.625000 0.954455
vt 0.625000 0.295545
vt 0.420545 0.295545
vt 0.875000 0.750000
vt 0.625000 1.000000
vt 0.829455 0.704455
s 0
usemtl Material
f 3/1/1 5/2/1 1/3/1
f 8/4/2 3/1/2 4/5/2
f 6/6/3 7/7/3 8/8/3
f 8/9/4 2/10/4 6/11/4
f 4/5/5 1/3/5 2/10/5
f 2/10/6 5/12/6 6/6/6
f 12/13/1 30/14/1 26/15/1
f 32/16/7 22/17/7 24/18/7
f 19/19/8 28/20/8 31/21/8
f 23/22/4 16/23/4 10/24/4
f 14/25/9 15/26/9 18/27/9
f 9/28/10 10/29/10 11/30/10
f 12/13/11 13/31/11 14/32/11
f 15/33/12 16/34/12 17/35/12
f 18/36/13 19/37/13 20/38/13
f 21/39/14 22/17/14 23/40/14
f 24/41/15 25/42/15 26/15/15
f 27/43/16 28/44/16 29/45/16
f 30/14/17 31/46/17 32/47/17
f 26/15/18 32/47/18 24/41/18
f 12/13/19 25/42/19 13/31/19
f 11/48/20 13/49/20 9/28/20
f 31/50/21 27/43/21 32/16/21
f 17/35/22 18/27/22 15/26/22
f 21/51/23 24/18/23 22/17/23
f 29/52/24 17/35/24 16/34/24
f 16/23/25 11/48/25 10/24/25
f 30/14/26 19/37/26 31/46/26
f 23/40/27 27/43/27 29/45/27
f 10/29/28 21/51/28 23/53/28
f 20/38/29 14/25/29 18/27/29
f 25/54/30 9/28/30 13/49/30
f 3/1/1 7/55/1 5/2/1
f 8/4/2 7/56/2 3/1/2
f 6/6/3 5/12/3 7/7/3
f 8/9/4 4/5/4 2/10/4
f 4/5/5 3/1/5 1/3/5
f 2/10/6 1/3/6 5/12/6
f 12/13/1 20/38/1 30/14/1
f 32/16/31 27/43/31 22/17/31
f 19/19/32 17/35/32 28/20/32
f 23/22/4 29/57/4 16/23/4
f 14/25/33 11/48/33 15/26/33
f 26/15/34 30/14/34 32/47/34
f 12/13/35 26/15/35 25/42/35
f 11/48/36 14/25/36 13/49/36
f 31/50/37 28/44/37 27/43/37
f 17/35/38 19/19/38 18/27/38
f 21/51/39 25/54/39 24/18/39
f 29/52/24 28/20/24 17/35/24
f 16/23/25 15/26/25 11/48/25
f 30/14/40 20/38/40 19/37/40
f 23/40/27 22/17/27 27/43/27
f 10/29/28 9/28/28 21/51/28
f 20/38/41 12/13/41 14/25/41
f 25/54/42 21/51/42 9/28/42
