# Blender 4.0.2
# www.blender.org
mtllib enemy128.mtl
o Cube
v -1.830275 0.303793 2.261462
v -0.413269 1.574788 1.647732
v -0.585714 -0.411205 3.654246
v 0.831293 0.859790 3.040516
v -1.164573 -1.064911 0.963969
v 0.252434 0.206084 0.350239
v 0.079989 -1.779908 2.356752
v 1.496995 -0.508913 1.743022
v -2.093637 -0.290563 2.191679
v -2.125053 -0.652370 2.557226
v -1.988181 -0.171471 2.681793
v -0.708047 0.618625 1.943496
v -1.523446 0.351841 3.116508
v -1.102354 0.085608 3.537390
v -1.197088 -0.625952 3.567103
v -1.333960 -1.106852 3.442535
v -0.849076 -1.005560 3.584463
v -0.035463 -1.129637 3.483982
v 0.155004 -1.560001 3.032485
v 0.083047 0.164143 2.828805
v -1.670490 -1.160566 1.366940
v -1.322479 -1.540174 1.384300
v -1.701906 -1.522374 1.732486
v -1.735312 -0.364857 1.143106
v -1.925780 0.065508 1.594604
v -0.284899 -0.251379 1.118756
v -0.531385 -1.994656 2.269609
v -0.425929 -1.875564 2.759723
v -0.910812 -1.976855 2.617795
v 0.506194 -0.705860 2.004066
v -0.247330 -1.846334 1.510581
v -0.668422 -1.580101 1.089699
vn 0.7085 0.6355 -0.3069
vn -0.6223 0.3575 -0.6964
vn -0.3329 0.6844 0.6487
vn -0.7085 -0.6355 0.3069
vn 0.3329 -0.6844 -0.6487
vn 0.6223 -0.3575 0.6964
vn -0.4054 -0.3183 -0.8569
vn 0.4604 -0.8866 0.0451
vn 0.0844 0.0303 0.9960
vn -0.9605 0.2346 0.1497
vn 0.2170 0.9084 0.3575
vn -0.2420 -0.1782 0.9538
vn 0.9429 0.0776 0.3238
vn -0.5762 -0.5556 -0.5994
vn -0.0672 0.7079 -0.7031
vn 0.1424 -0.9684 0.2047
vn 0.6634 -0.1186 -0.7388
vn -0.0189 0.0273 -0.9994
vn -0.3965 0.9155 -0.0674
vn -0.7475 0.6643 -0.0006
vn -0.2903 -0.9129 -0.2870
vn 0.1475 0.1797 0.9726
vn -0.2605 -0.2810 -0.9237
vn -0.0610 -0.7022 0.7094
vn -0.7363 0.0345 0.6757
vn 0.8522 -0.5068 -0.1299
vn -0.2656 -0.9333 -0.2417
vn -0.9410 -0.1966 -0.2754
vn 0.4591 0.3675 0.8088
vn -0.8161 0.5675 0.1090
vn -0.1943 -0.9323 -0.3050
vn 0.0263 -0.6810 0.7318
vn -0.7077 0.1233 0.6957
vn 0.6849 -0.1822 -0.7055
vn -0.0878 0.6625 -0.7439
vn -0.6984 0.0261 0.7152
vn 0.5955 -0.8006 0.0664
vn -0.0268 -0.7292 0.6838
vn -0.9541 -0.1506 -0.2590
vn 0.9197 0.0837 0.3836
vn 0.1454 0.9269 0.3459
vn -0.9313 -0.1308 -0.3398
vt 0.625000 0.750000
vt 0.875000 0.500000
vt 0.625000 0.500000
vt 0.375000 1.000000
vt 0.375000 0.750000
vt 0.375000 0.250000
vt 0.625000 0.000000
vt 0.375000 0.000000
vt 0.125000 0.750000
vt 0.375000 0.500000
vt 0.125000 0.500000
vt 0.625000 0.250000
vt 0.329455 0.545545
vt 0.170545 0.704455
vt 0.170545 0.545545
vt 0.420545 0.045545
vt 0.579455 0.204455
vt 0.420545 0.204455
vt 0.420545 0.795545
vt 0.579455 0.954455
vt 0.420545 0.954455
vt 0.829455 0.545545
vt 0.670545 0.704455
vt 0.670545 0.545545
vt 0.420545 0.545545
vt 0.579455 0.704455
vt 0.420545 0.704455
vt 0.579455 0.454455
vt 0.625000 0.454455
vt 0.579455 0.500000
vt 0.329455 0.500000
vt 0.375000 0.545545
vt 0.579455 0.750000
vt 0.625000 0.795545
vt 0.579455 0.795545
vt 0.375000 0.704455
vt 0.329455 0.750000
vt 0.329455 0.704455
vt 0.579455 0.250000
vt 0.625000 0.204455
vt 0.125000 0.545545
vt 0.170545 0.500000
vt 0.579455 0.045545
vt 0.579455 0.000000
vt 0.625000 0.045545
vt 0.170545 0.750000
vt 0.125000 0.704455
vt 0.579455 0.545545
vt 0.420545 0.454455
vt 0.420545 0.000000
vt 0.579455 0.295545
vt 0.625000 0.954455
vt 0.625000 0.295545
vt 0.420545 0.295545
vt 0.875000 0.750000
vt 0.625000 1.000000
vt 0.829455 0.704455
s 0
usemtl Material
f 3/1/1 5/2/1 1/3/1
f 8/4/2 3/1/2 4/5/2
f 6/6/3 7/7/3 8/8/3
f 8/9/4 2/10/4 6/11/4
f 4/5/5 1/3/5 2/10/5
f 2/10/6 5/12/6 6/6/6
f 12/13/1 30/14/1 26/15/1
f 32/16/7 22/17/7 24/18/7
f 19/19/8 28/20/8 31/21/8
f 23/22/4 16/23/4 10/24/4
f 14/25/9 15/26/9 18/27/9
f 9/28/10 10/29/10 11/30/10
f 12/13/11 13/31/11 14/32/11
f 15/33/12 16/34/12 17/35/12
f 18/36/13 19/37/13 20/38/13
f 21/39/14 22/17/14 23/40/14
f 24/41/15 25/42/15 26/15/15
f 27/43/16 28/44/16 29/45/16
f 30/14/17 31/46/17 32/47/17
f 26/15/18 32/47/18 24/41/18
f 12/13/19 25/42/19 13/31/19
f 11/48/20 13/49/20 9/28/20
f 31/50/21 27/43/21 32/16/21
f 17/35/22 18/27/22 15/26/22
f 21/51/23 24/18/23 22/17/23
f 29/52/24 17/35/24 16/34/24
f 16/23/25 11/48/25 10/24/25
f 30/14/26 19/37/26 31/46/26
f 23/40/27 27/43/27 29/45/27
f 10/29/28 21/51/28 23/53/28
f 20/38/29 14/25/29 18/27/29
f 25/54/30 9/28/30 13/49/30
f 3/1/1 7/55/1 5/2/1
f 8/4/2 7/56/2 3/1/2
f 6/6/3 5/12/3 7/7/3
f 8/9/4 4/5/4 2/10/4
f 4/5/5 3/1/5 1/3/5
f 2/10/6 1/3/6 5/12/6
f 12/13/1 20/38/1 30/14/1
f 32/16/31 27/43/31 22/17/31
f 19/19/32 17/35/32 28/20/32
f 23/22/4 29/57/4 16/23/4
f 14/25/33 11/48/33 15/26/33
f 26/15/34 30/14/34 32/47/34
f 12/13/35 26/15/35 25/42/35
f 11/48/36 14/25/36 13/49/36
f 31/50/37 28/44/37 27/43/37
f 17/35/38 19/19/38 18/27/38
f 21/51/39 25/54/39 24/18/39
f 29/52/24 28/20/24 17/35/24
f 16/23/25 15/26/25 11/48/25
f 30/14/40 20/38/40 19/37/40
f 23/40/27 22/17/27 27/43/27
f 10/29/28 9/28/28 21/51/28
f 20/38/41 12/13/41 14/25/41
f 25/54/42 21/51/42 9/28/42
