# Blender 4.0.2
# www.blender.org
mtllib enemy131.mtl
o Cube
v -1.746538 0.004310 2.049034
v -0.626737 1.587011 1.558008
v -0.427339 -0.488453 3.469209
v 0.692462 1.094247 2.978184
v -0.743662 -1.114727 0.729187
v 0.376139 0.467973 0.238162
v 0.575537 -1.607490 2.149363
v 1.695338 -0.024791 1.658337
v -1.867799 -0.629172 1.941871
v -1.831473 -1.007279 2.290053
v -1.810171 -0.515078 2.441047
v -0.711672 0.575421 1.799027
v -1.490697 0.074975 2.919152
v -1.037023 -0.112842 3.348391
v -0.971635 -0.828298 3.343769
v -0.992937 -1.320500 3.192775
v -0.548600 -1.121936 3.362047
v 0.275384 -1.057699 3.295866
v 0.574003 -1.411490 2.836519
v 0.126864 0.262200 2.701749
v -1.230330 -1.340477 1.102923
v -0.807295 -1.634115 1.121201
v -1.194004 -1.718585 1.451105
v -1.462577 -0.568366 0.909631
v -1.761196 -0.214575 1.368978
v -0.074203 -0.135885 0.960079
v 0.031241 -1.947336 2.023922
v 0.088868 -1.833241 2.523099
v -0.355468 -2.031806 2.353827
v 0.764333 -0.449105 1.862801
v 0.303504 -1.701040 1.286345
v -0.150170 -1.513223 0.857106
vn 0.5599 0.7913 -0.2455
vn -0.6596 0.2464 -0.7101
vn -0.5014 0.5595 0.6599
vn -0.5599 -0.7914 0.2455
vn 0.5014 -0.5595 -0.6599
vn 0.6596 -0.2464 0.7101
vn -0.2915 -0.3555 -0.8881
vn 0.6446 -0.7639 0.0302
vn 0.0378 -0.0030 0.9993
vn -0.9936 0.0084 0.1128
vn -0.0048 0.9143 0.4051
vn -0.2319 -0.2761 0.9327
vn 0.8889 0.2674 0.3719
vn -0.4146 -0.6377 -0.6492
vn -0.1969 0.7107 -0.6754
vn 0.3471 -0.9222 0.1707
vn 0.7006 0.0691 -0.7102
vn 0.0132 0.0738 -0.9972
vn -0.5880 0.8074 -0.0482
vn -0.8763 0.4817 -0.0089
vn -0.0682 -0.9385 -0.3386
vn 0.0668 0.1576 0.9852
vn -0.1561 -0.2838 -0.9461
vn 0.0705 -0.7338 0.6757
vn -0.7505 -0.1639 0.6402
vn 0.9481 -0.2985 -0.1097
vn -0.0413 -0.9552 -0.2930
vn -0.8623 -0.3854 -0.3285
vn 0.3346 0.4178 0.8446
vn -0.9257 0.3666 0.0931
vn 0.0303 -0.9353 -0.3527
vn 0.1499 -0.6950 0.7032
vn -0.7431 -0.0722 0.6652
vn 0.7344 0.0102 -0.6786
vn -0.2052 0.6640 -0.7190
vn -0.7131 -0.1658 0.6812
vn 0.7562 -0.6514 0.0616
vn 0.1108 -0.7512 0.6507
vn -0.8859 -0.3443 -0.3108
vn 0.8627 0.2651 0.4307
vn -0.0783 0.9171 0.3909
vn -0.8651 -0.3159 -0.3896
vt 0.625000 0.750000
vt 0.875000 0.500000
vt 0.625000 0.500000
vt 0.375000 1.000000
vt 0.375000 0.750000
vt 0.375000 0.250000
vt 0.625000 0.000000
vt 0.375000 0.000000
vt 0.125000 0.750000
vt 0.375000 0.500000
vt 0.125000 0.500000
vt 0.625000 0.250000
vt 0.329455 0.545545
vt 0.170545 0.704455
vt 0.170545 0.545545
vt 0.420545 0.045545
vt 0.579455 0.204455
vt 0.420545 0.204455
vt 0.420545 0.795545
vt 0.579455 0.954455
vt 0.420545 0.954455
vt 0.829455 0.545545
vt 0.670545 0.704455
vt 0.670545 0.545545
vt 0.420545 0.545545
vt 0.579455 0.704455
vt 0.420545 0.704455
vt 0.579455 0.454455
vt 0.625000 0.454455
vt 0.579455 0.500000
vt 0.329455 0.500000
vt 0.375000 0.545545
vt 0.579455 0.750000
vt 0.625000 0.795545
vt 0.579455 0.795545
vt 0.375000 0.704455
vt 0.329455 0.750000
vt 0.329455 0.704455
vt 0.579455 0.250000
vt 0.625000 0.204455
vt 0.125000 0.545545
vt 0.170545 0.500000
vt 0.579455 0.045545
vt 0.579455 0.000000
vt 0.625000 0.045545
vt 0.170545 0.750000
vt 0.125000 0.704455
vt 0.579455 0.545545
vt 0.420545 0.454455
vt 0.420545 0.000000
vt 0.579455 0.295545
vt 0.625000 0.954455
vt 0.625000 0.295545
vt 0.420545 0.295545
vt 0.875000 0.750000
vt 0.625000 1.000000
vt 0.829455 0.704455
s 0
usemtl Material
f 3/1/1 5/2/1 1/3/1
f 8/4/2 3/1/2 4/5/2
f 6/6/3 7/7/3 8/8/3
f 8/9/4 2/10/4 6/11/4
f 4/5/5 1/3/5 2/10/5
f 2/10/6 5/12/6 6/6/6
f 12/13/1 30/14/1 26/15/1
f 32/16/7 22/17/7 24/18/7
f 19/19/8 28/20/8 31/21/8
f 23/22/4 16/23/4 10/24/4
f 14/25/9 15/26/9 18/27/9
f 9/28/10 10/29/10 11/30/10
f 12/13/11 13/31/11 14/32/11
f 15/33/12 16/34/12 17/35/12
f 18/36/13 19/37/13 20/38/13
f 21/39/14 22/17/14 23/40/14
f 24/41/15 25/42/15 26/15/15
f 27/43/16 28/44/16 29/45/16
f 30/14/17 31/46/17 32/47/17
f 26/15/18 32/47/18 24/41/18
f 12/13/19 25/42/19 13/31/19
f 11/48/20 13/49/20 9/28/20
f 31/50/21 27/43/21 32/16/21
f 17/35/22 18/27/22 15/26/22
f 21/51/23 24/18/23 22/17/23
f 29/52/24 17/35/24 16/34/24
f 16/23/25 11/48/25 10/24/25
f 30/14/26 19/37/26 31/46/26
f 23/40/27 27/43/27 29/45/27
f 10/29/28 21/51/28 23/53/28
f 20/38/29 14/25/29 18/27/29
f 25/54/30 9/28/30 13/49/30
f 3/1/1 7/55/1 5/2/1
f 8/4/2 7/56/2 3/1/2
f 6/6/3 5/12/3 7/7/3
f 8/9/4 4/5/4 2/10/4
f 4/5/5 3/1/5 1/3/5
f 2/10/6 1/3/6 5/12/6
f 12/13/1 20/38/1 30/14/1
f 32/16/31 27/43/31 22/17/31
f 19/19/32 17/35/32 28/20/32
f 23/22/4 29/57/4 16/23/4
f 14/25/33 11/48/33 15/26/33
f 26/15/34 30/14/34 32/47/34
f 12/13/35 26/15/35 25/42/35
f 11/48/36 14/25/36 13/49/36
f 31/50/37 28/44/37 27/43/37
f 17/35/38 19/19/38 18/27/38
f 21/51/39 25/54/39 24/18/39
f 29/52/24 28/20/24 17/35/24
f 16/23/25 15/26/25 11/48/25
f 30/14/40 20/38/40 19/37/40
f 23/40/27 22/17/27 27/43/27
f 10/29/28 9/28/28 21/51/28
f 20/38/41 12/13/41 14/25/41
f 25/54/42 21/51/42 9/28/42
