# Blender 4.0.2
# www.blender.org
mtllib enemy130.mtl
o Cube
v -1.777115 -0.057481 2.025171
v -0.677340 1.583604 1.713189
v -0.503026 -0.639958 3.452552
v 0.596749 1.001127 3.140570
v -0.696749 -1.041127 0.659429
v 0.403026 0.599958 0.347448
v 0.577340 -1.623604 2.086811
v 1.677115 0.017481 1.774829
v -1.878824 -0.682147 1.861046
v -1.847067 -1.087234 2.177923
v -1.843531 -0.609062 2.369897
v -0.747292 0.553851 1.865941
v -1.557288 -0.054607 2.907906
v -1.116371 -0.268256 3.338356
v -1.033669 -0.979308 3.277198
v -1.037205 -1.457481 3.085225
v -0.604735 -1.264624 3.288428
v 0.219426 -1.178029 3.261626
v 0.544209 -1.485876 2.787193
v 0.062571 0.183605 2.773243
v -1.192099 -1.307392 0.992926
v -0.763165 -1.592708 1.004155
v -1.160342 -1.712480 1.309803
v -1.435104 -0.526786 0.854867
v -1.759887 -0.218939 1.329300
v -0.060567 -0.071394 0.997821
v 0.046698 -1.962954 1.911457
v 0.081990 -1.889869 2.420307
v -0.350480 -2.082726 2.217104
v 0.749296 -0.441640 1.905122
v 0.341610 -1.650208 1.208586
v -0.099307 -1.436559 0.778137
vn 0.5499 0.8205 -0.1560
vn -0.6370 0.2912 -0.7137
vn -0.5402 0.4918 0.6829
vn -0.5499 -0.8205 0.1560
vn 0.5402 -0.4918 -0.6829
vn 0.6370 -0.2912 0.7137
vn -0.2479 -0.2859 -0.9256
vn 0.6611 -0.7503 -0.0067
vn -0.0012 -0.0858 0.9963
vn -0.9972 -0.0216 0.0723
vn -0.0426 0.8768 0.4789
vn -0.2616 -0.3579 0.8964
vn 0.8670 0.2537 0.4289
vn -0.3734 -0.5895 -0.7162
vn -0.1873 0.7605 -0.6217
vn 0.3622 -0.9258 0.1079
vn 0.7260 0.1428 -0.6727
vn 0.0505 0.1573 -0.9863
vn -0.6049 0.7963 -0.0053
vn -0.8866 0.4625 -0.0049
vn -0.0323 -0.9081 -0.4176
vn 0.0244 0.0760 0.9968
vn -0.1121 -0.2068 -0.9719
vn 0.0616 -0.7861 0.6150
vn -0.7708 -0.2324 0.5932
vn 0.9586 -0.2686 -0.0951
vn -0.0069 -0.9280 -0.3726
vn -0.8393 -0.3743 -0.3944
vn 0.2912 0.3525 0.8893
vn -0.9372 0.3383 0.0851
vn 0.0666 -0.9016 -0.4274
vn 0.1390 -0.7482 0.6488
vn -0.7666 -0.1430 0.6259
vn 0.7599 0.0822 -0.6448
vn -0.1929 0.7175 -0.6693
vn -0.7350 -0.2370 0.6353
vn 0.7686 -0.6385 0.0384
vn 0.1033 -0.8006 0.5902
vn -0.8646 -0.3353 -0.3743
vn 0.8385 0.2460 0.4862
vn -0.1156 0.8793 0.4620
vn -0.8414 -0.3000 -0.4495
vt 0.625000 0.750000
vt 0.875000 0.500000
vt 0.625000 0.500000
vt 0.375000 1.000000
vt 0.375000 0.750000
vt 0.375000 0.250000
vt 0.625000 0.000000
vt 0.375000 0.000000
vt 0.125000 0.750000
vt 0.375000 0.500000
vt 0.125000 0.500000
vt 0.625000 0.250000
vt 0.329455 0.545545
vt 0.170545 0.704455
vt 0.170545 0.545545
vt 0.420545 0.045545
vt 0.579455 0.204455
vt 0.420545 0.204455
vt 0.420545 0.795545
vt 0.579455 0.954455
vt 0.420545 0.954455
vt 0.829455 0.545545
vt 0.670545 0.704455
vt 0.670545 0.545545
vt 0.420545 0.545545
vt 0.579455 0.704455
vt 0.420545 0.704455
vt 0.579455 0.454455
vt 0.625000 0.454455
vt 0.579455 0.500000
vt 0.329455 0.500000
vt 0.375000 0.545545
vt 0.579455 0.750000
vt 0.625000 0.795545
vt 0.579455 0.795545
vt 0.375000 0.704455
vt 0.329455 0.750000
vt 0.329455 0.704455
vt 0.579455 0.250000
vt 0.625000 0.204455
vt 0.125000 0.545545
vt 0.170545 0.500000
vt 0.579455 0.045545
vt 0.579455 0.000000
vt 0.625000 0.045545
vt 0.170545 0.750000
vt 0.125000 0.704455
vt 0.579455 0.545545
vt 0.420545 0.454455
vt 0.420545 0.000000
vt 0.579455 0.295545
vt 0.625000 0.954455
vt 0.625000 0.295545
vt 0.420545 0.295545
vt 0.875000 0.750000
vt 0.625000 1.000000
vt 0.829455 0.704455
s 0
usemtl Material
f 3/1/1 5/2/1 1/3/1
f 8/4/2 3/1/2 4/5/2
f 6/6/3 7/7/3 8/8/3
f 8/9/4 2/10/4 6/11/4
f 4/5/5 1/3/5 2/10/5
f 2/10/6 5/12/6 6/6/6
f 12/13/1 30/14/1 26/15/1
f 32/16/7 22/17/7 24/18/7
f 19/19/8 28/20/8 31/21/8
f 23/22/4 16/23/4 10/24/4
f 14/25/9 15/26/9 18/27/9
f 9/28/10 10/29/10 11/30/10
f 12/13/11 13/31/11 14/32/11
f 15/33/12 16/34/12 17/35/12
f 18/36/13 19/37/13 20/38/13
f 21/39/14 22/17/14 23/40/14
f 24/41/15 25/42/15 26/15/15
f 27/43/16 28/44/16 29/45/16
f 30/14/17 31/46/17 32/47/17
f 26/15/18 32/47/18 24/41/18
f 12/13/19 25/42/19 13/31/19
f 11/48/20 13/49/20 9/28/20
f 31/50/21 27/43/21 32/16/21
f 17/35/22 18/27/22 15/26/22
f 21/51/23 24/18/23 22/17/23
f 29/52/24 17/35/24 16/34/24
f 16/23/25 11/48/25 10/24/25
f 30/14/26 19/37/26 31/46/26
f 23/40/27 27/43/27 29/45/27
f 10/29/28 21/51/28 23/53/28
f 20/38/29 14/25/29 18/27/29
f 25/54/30 9/28/30 13/49/30
f 3/1/1 7/55/1 5/2/1
f 8/4/2 7/56/2 3/1/2
f 6/6/3 5/12/3 7/7/3
f 8/9/4 4/5/4 2/10/4
f 4/5/5 3/1/5 1/3/5
f 2/10/6 1/3/6 5/12/6
f 12/13/1 20/38/1 30/14/1
f 32/16/31 27/43/31 22/17/31
f 19/19/32 17/35/32 28/20/32
f 23/22/4 29/57/4 16/23/4
f 14/25/33 11/48/33 15/26/33
f 26/15/34 30/14/34 32/47/34
f 12/13/35 26/15/35 25/42/35
f 11/48/36 14/25/36 13/49/36
f 31/50/37 28/44/37 27/43/37
f 17/35/38 19/19/38 18/27/38
f 21/51/39 25/54/39 24/18/39
f 29/52/24 28/20/24 17/35/24
f 16/23/25 15/26/25 11/48/25
f 30/14/40 20/38/40 19/37/40
f 23/40/27 22/17/27 27/43/27
f 10/29/28 9/28/28 21/51/28
f 20/38/41 12/13/41 14/25/41
f 25/54/42 21/51/42 9/28/42
