# Blender 4.0.2
# www.blender.org
mtllib enemy13.mtl
o Cube
v 0.817056 1.000000 2.154305
v 1.154305 1.000000 0.182944
v 0.817056 -1.000000 2.154305
v 1.154305 -1.000000 0.182944
v -1.154305 1.000000 1.817056
v -0.817056 1.000000 -0.154305
v -1.154305 -1.000000 1.817056
v -0.817056 -1.000000 -0.154305
v 0.366370 1.000000 2.627981
v 0.304930 0.635641 2.987123
v 0.725512 0.635641 2.689421
v 0.642178 0.635641 1.015762
v 1.293127 0.230797 2.250417
v 1.244521 -0.419517 2.242102
v 0.725512 -0.635641 2.689421
v 0.304930 -0.635641 2.987123
v 0.366370 -1.000000 2.627981
v 0.040593 -1.480679 2.036142
v -0.600913 -1.438639 1.926397
v 0.642178 -0.635641 1.015762
v -0.886707 1.000000 2.413613
v -1.245849 0.635641 2.352173
v -0.948147 0.635641 2.772755
v -0.382717 1.480679 1.963724
v 0.258788 1.438639 2.073469
v -0.610899 0.635641 0.801394
v -1.245849 -0.635641 2.352173
v -0.886707 -1.000000 2.413613
v -0.948147 -0.635641 2.772755
v -0.610899 -0.635641 0.801394
v -1.635252 -0.230797 1.749449
v -1.586646 0.419517 1.757764
vn 0.1686 -0.0000 -0.9857
vn -0.0000 1.0000 -0.0000
vn 0.9857 -0.0000 0.1686
vn -0.1686 -0.0000 0.9857
vn -0.9857 -0.0000 -0.1686
vn -0.0000 -1.0000 -0.0000
vn -0.6678 0.7353 0.1156
vn -0.7626 -0.6348 0.1242
vn 0.5915 -0.7353 0.3310
vn 0.4717 0.5774 0.6664
vn 0.8749 -0.0592 -0.4807
vn 0.4717 -0.5774 0.6664
vn 0.0543 -0.7845 -0.6177
vn -0.6664 0.5774 0.4717
vn 0.1542 0.7845 -0.6006
vn -0.6664 -0.5774 0.4717
vn -0.6653 0.0592 -0.7442
vn -0.5621 0.7175 -0.4113
vn 0.7588 0.6210 -0.1964
vn 0.6749 0.7030 0.2243
vn -0.8217 0.0542 0.5673
vn 0.6813 -0.7049 0.1974
vn -0.7082 0.7049 -0.0403
vn -0.1192 -0.7071 0.6970
vn 0.5777 -0.0000 0.8162
vn -0.6503 -0.6210 -0.4375
vn -0.8162 -0.0000 0.5777
vn -0.1192 0.7071 0.6970
vn 0.6669 -0.7175 -0.2011
vn 0.6779 0.6348 0.3707
vn -0.8675 -0.0000 0.4974
vn -0.1077 -0.7695 0.6296
vn 0.6529 -0.0000 0.7575
vn -0.7000 -0.0000 -0.7142
vn 0.0990 0.8095 -0.5787
vn 0.5864 -0.0542 0.8082
vn -0.7110 -0.7030 -0.0128
vn -0.1626 -0.7202 0.6744
vn -0.0709 0.7202 0.6901
vn 0.0990 -0.8095 -0.5787
vn 0.8976 -0.0000 -0.4409
vn -0.1077 0.7695 0.6296
vt 0.625000 0.750000
vt 0.875000 0.500000
vt 0.625000 0.500000
vt 0.375000 1.000000
vt 0.375000 0.750000
vt 0.375000 0.250000
vt 0.625000 0.000000
vt 0.375000 0.000000
vt 0.125000 0.750000
vt 0.375000 0.500000
vt 0.125000 0.500000
vt 0.625000 0.250000
vt 0.329455 0.545545
vt 0.170545 0.704455
vt 0.170545 0.545545
vt 0.420545 0.045545
vt 0.579455 0.204455
vt 0.420545 0.204455
vt 0.420545 0.795545
vt 0.579455 0.954455
vt 0.420545 0.954455
vt 0.829455 0.545545
vt 0.670545 0.704455
vt 0.670545 0.545545
vt 0.420545 0.545545
vt 0.579455 0.704455
vt 0.420545 0.704455
vt 0.579455 0.454455
vt 0.625000 0.454455
vt 0.579455 0.500000
vt 0.329455 0.500000
vt 0.375000 0.545545
vt 0.579455 0.750000
vt 0.625000 0.795545
vt 0.579455 0.795545
vt 0.375000 0.704455
vt 0.329455 0.750000
vt 0.329455 0.704455
vt 0.579455 0.250000
vt 0.625000 0.204455
vt 0.125000 0.545545
vt 0.170545 0.500000
vt 0.579455 0.045545
vt 0.579455 0.000000
vt 0.625000 0.045545
vt 0.170545 0.750000
vt 0.125000 0.704455
vt 0.579455 0.545545
vt 0.420545 0.454455
vt 0.420545 0.000000
vt 0.579455 0.295545
vt 0.625000 0.954455
vt 0.625000 0.295545
vt 0.420545 0.295545
vt 0.875000 0.750000
vt 0.625000 1.000000
vt 0.829455 0.704455
s 0
usemtl Material
f 3/1/1 5/2/1 1/3/1
f 8/4/2 3/1/2 4/5/2
f 6/6/3 7/7/3 8/8/3
f 8/9/4 2/10/4 6/11/4
f 4/5/5 1/3/5 2/10/5
f 2/10/6 5/12/6 6/6/6
f 12/13/1 30/14/1 26/15/1
f 32/16/7 22/17/7 24/18/7
f 19/19/8 28/20/8 31/21/8
f 23/22/4 16/23/4 10/24/4
f 14/25/9 15/26/9 18/27/9
f 9/28/10 10/29/10 11/30/10
f 12/13/11 13/31/11 14/32/11
f 15/33/12 16/34/12 17/35/12
f 18/36/13 19/37/13 20/38/13
f 21/39/14 22/17/14 23/40/14
f 24/41/15 25/42/15 26/15/15
f 27/43/16 28/44/16 29/45/16
f 30/14/17 31/46/17 32/47/17
f 26/15/18 32/47/18 24/41/18
f 12/13/19 25/42/19 13/31/19
f 11/48/20 13/49/20 9/28/20
f 31/50/21 27/43/21 32/16/21
f 17/35/22 18/27/22 15/26/22
f 21/51/23 24/18/23 22/17/23
f 29/52/24 17/35/24 16/34/24
f 16/23/25 11/48/25 10/24/25
f 30/14/26 19/37/26 31/46/26
f 23/40/27 27/43/27 29/45/27
f 10/29/28 21/51/28 23/53/28
f 20/38/29 14/25/29 18/27/29
f 25/54/30 9/28/30 13/49/30
f 3/1/1 7/55/1 5/2/1
f 8/4/2 7/56/2 3/1/2
f 6/6/3 5/12/3 7/7/3
f 8/9/4 4/5/4 2/10/4
f 4/5/5 3/1/5 1/3/5
f 2/10/6 1/3/6 5/12/6
f 12/13/1 20/38/1 30/14/1
f 32/16/31 27/43/31 22/17/31
f 19/19/32 17/35/32 28/20/32
f 23/22/4 29/57/4 16/23/4
f 14/25/33 11/48/33 15/26/33
f 26/15/34 30/14/34 32/47/34
f 12/13/35 26/15/35 25/42/35
f 11/48/36 14/25/36 13/49/36
f 31/50/37 28/44/37 27/43/37
f 17/35/38 19/19/38 18/27/38
f 21/51/39 25/54/39 24/18/39
f 29/52/24 28/20/24 17/35/24
f 16/23/25 15/26/25 11/48/25
f 30/14/40 20/38/40 19/37/40
f 23/40/27 22/17/27 27/43/27
f 10/29/28 9/28/28 21/51/28
f 20/38/41 12/13/41 14/25/41
f 25/54/42 21/51/42 9/28/42
