# Blender 4.0.2
# www.blender.org
mtllib enemy110.mtl
o Cube
v 1.490579 0.538500 1.698707
v 0.947119 0.802548 -0.207842
v 0.877314 -1.363096 1.610155
v 0.333854 -1.099047 -0.296394
v -0.333854 1.099047 2.296394
v -0.877314 1.363096 0.389845
v -0.947119 -0.802548 2.207842
v -1.490579 -0.538500 0.301293
v 1.305724 0.568945 2.325118
v 1.293007 0.174409 2.656320
v 1.526375 0.120393 2.200099
v 0.749547 0.438458 0.749771
v 1.701491 -0.330828 1.533357
v 1.457101 -0.935324 1.519301
v 1.136559 -1.088338 2.143811
v 0.903191 -1.034322 2.600032
v 0.692459 -1.332650 2.236566
v 0.017515 -1.601942 1.837329
v -0.563287 -1.379562 2.033685
v 0.359731 -0.770274 0.693483
v 0.146040 0.925252 2.705031
v -0.298059 0.680940 2.797785
v 0.133323 0.530716 3.036233
v 0.533803 1.334076 2.096788
v 1.114606 1.111695 1.900432
v -0.410137 0.794764 1.129684
v -0.687875 -0.527791 2.741498
v -0.467225 -0.976343 2.616479
v -0.256493 -0.678016 2.979946
v -0.799953 -0.413967 1.073397
v -1.150173 0.062961 2.400760
v -0.905782 0.667458 2.414816
vn -0.2717 0.1320 -0.9533
vn 0.3066 0.9508 0.0443
vn 0.9122 -0.2803 -0.2988
vn 0.2717 -0.1320 0.9533
vn -0.9122 0.2803 0.2988
vn -0.3066 -0.9508 -0.0443
vn -0.2957 0.8482 0.4394
vn -0.7930 -0.4320 0.4296
vn 0.4188 -0.9080 -0.0075
vn 0.8606 0.3109 0.4034
vn 0.5257 -0.1933 -0.8284
vn 0.5065 -0.7870 0.3523
vn -0.4547 -0.6501 -0.6087
vn -0.1928 0.6345 0.7485
vn 0.1189 0.8133 -0.5696
vn -0.5468 -0.4634 0.6973
vn -0.8634 0.3573 -0.3562
vn -0.4331 0.8980 -0.0781
vn 0.7551 0.4326 -0.4927
vn 0.8860 0.4572 -0.0767
vn -0.4454 0.1596 0.8810
vn 0.4485 -0.8783 -0.1659
vn -0.4052 0.8572 0.3178
vn -0.0247 -0.7657 0.6428
vn 0.8372 -0.2915 0.4628
vn -0.9299 -0.3477 -0.1204
vn -0.4529 0.1048 0.8854
vn 0.4090 0.5790 0.7054
vn 0.2642 -0.8159 -0.5142
vn 0.9295 0.3657 0.0490
vn -0.5306 0.1321 0.8373
vn -0.0624 -0.8159 0.5748
vn 0.8765 -0.3002 0.3763
vn -0.8985 0.3045 -0.3163
vn 0.0887 0.8472 -0.5238
vn 0.8246 -0.3438 0.4493
vn -0.8277 -0.4856 0.2812
vn -0.0752 -0.7631 0.6419
vn 0.4514 0.5804 0.6778
vn -0.4078 -0.6922 -0.5955
vn 0.5800 -0.1498 -0.8007
vn 0.4095 0.6473 0.6429
vt 0.625000 0.750000
vt 0.875000 0.500000
vt 0.625000 0.500000
vt 0.375000 1.000000
vt 0.375000 0.750000
vt 0.375000 0.250000
vt 0.625000 0.000000
vt 0.375000 0.000000
vt 0.125000 0.750000
vt 0.375000 0.500000
vt 0.125000 0.500000
vt 0.625000 0.250000
vt 0.329455 0.545545
vt 0.170545 0.704455
vt 0.170545 0.545545
vt 0.420545 0.045545
vt 0.579455 0.204455
vt 0.420545 0.204455
vt 0.420545 0.795545
vt 0.579455 0.954455
vt 0.420545 0.954455
vt 0.829455 0.545545
vt 0.670545 0.704455
vt 0.670545 0.545545
vt 0.420545 0.545545
vt 0.579455 0.704455
vt 0.420545 0.704455
vt 0.579455 0.454455
vt 0.625000 0.454455
vt 0.579455 0.500000
vt 0.329455 0.500000
vt 0.375000 0.545545
vt 0.579455 0.750000
vt 0.625000 0.795545
vt 0.579455 0.795545
vt 0.375000 0.704455
vt 0.329455 0.750000
vt 0.329455 0.704455
vt 0.579455 0.250000
vt 0.625000 0.204455
vt 0.125000 0.545545
vt 0.170545 0.500000
vt 0.579455 0.045545
vt 0.579455 0.000000
vt 0.625000 0.045545
vt 0.170545 0.750000
vt 0.125000 0.704455
vt 0.579455 0.545545
vt 0.420545 0.454455
vt 0.420545 0.000000
vt 0.579455 0.295545
vt 0.625000 0.954455
vt 0.625000 0.295545
vt 0.420545 0.295545
vt 0.875000 0.750000
vt 0.625000 1.000000
vt 0.829455 0.704455
s 0
usemtl Material
f 3/1/1 5/2/1 1/3/1
f 8/4/2 3/1/2 4/5/2
f 6/6/3 7/7/3 8/8/3
f 8/9/4 2/10/4 6/11/4
f 4/5/5 1/3/5 2/10/5
f 2/10/6 5/12/6 6/6/6
f 12/13/1 30/14/1 26/15/1
f 32/16/7 22/17/7 24/18/7
f 19/19/8 28/20/8 31/21/8
f 23/22/4 16/23/4 10/24/4
f 14/25/9 15/26/9 18/27/9
f 9/28/10 10/29/10 11/30/10
f 12/13/11 13/31/11 14/32/11
f 15/33/12 16/34/12 17/35/12
f 18/36/13 19/37/13 20/38/13
f 21/39/14 22/17/14 23/40/14
f 24/41/15 25/42/15 26/15/15
f 27/43/16 28/44/16 29/45/16
f 30/14/17 31/46/17 32/47/17
f 26/15/18 32/47/18 24/41/18
f 12/13/19 25/42/19 13/31/19
f 11/48/20 13/49/20 9/28/20
f 31/50/21 27/43/21 32/16/21
f 17/35/22 18/27/22 15/26/22
f 21/51/23 24/18/23 22/17/23
f 29/52/24 17/35/24 16/34/24
f 16/23/25 11/48/25 10/24/25
f 30/14/26 19/37/26 31/46/26
f 23/40/27 27/43/27 29/45/27
f 10/29/28 21/51/28 23/53/28
f 20/38/29 14/25/29 18/27/29
f 25/54/30 9/28/30 13/49/30
f 3/1/1 7/55/1 5/2/1
f 8/4/2 7/56/2 3/1/2
f 6/6/3 5/12/3 7/7/3
f 8/9/4 4/5/4 2/10/4
f 4/5/5 3/1/5 1/3/5
f 2/10/6 1/3/6 5/12/6
f 12/13/1 20/38/1 30/14/1
f 32/16/31 27/43/31 22/17/31
f 19/19/32 17/35/32 28/20/32
f 23/22/4 29/57/4 16/23/4
f 14/25/33 11/48/33 15/26/33
f 26/15/34 30/14/34 32/47/34
f 12/13/35 26/15/35 25/42/35
f 11/48/36 14/25/36 13/49/36
f 31/50/37 28/44/37 27/43/37
f 17/35/38 19/19/38 18/27/38
f 21/51/39 25/54/39 24/18/39
f 29/52/24 28/20/24 17/35/24
f 16/23/25 15/26/25 11/48/25
f 30/14/40 20/38/40 19/37/40
f 23/40/27 22/17/27 27/43/27
f 10/29/28 9/28/28 21/51/28
f 20/38/41 12/13/41 14/25/41
f 25/54/42 21/51/42 9/28/42
