# Blender 4.0.2
# www.blender.org
mtllib enemy119.mtl
o Cube
v 1.237289 1.550480 2.227761
v 1.531408 -0.046711 1.060509
v 0.053756 0.462820 3.417822
v 0.347874 -1.134371 2.250570
v -0.347874 2.066211 1.122646
v -0.053756 0.469020 -0.044606
v -1.531408 0.978551 2.312707
v -1.237289 -0.618640 1.145455
v 0.868667 2.077985 2.343276
v 0.599469 2.170811 2.772731
v 0.941836 1.785880 2.761411
v 0.893588 0.573621 1.605479
v 1.164741 1.018528 2.962144
v 0.740823 0.677583 3.321853
v 0.189534 1.094519 3.517862
v -0.152833 1.479451 3.529182
v -0.314866 0.990326 3.533337
v -0.855211 0.415454 3.278373
v -1.346165 0.606142 2.893739
v 0.141286 -0.117740 2.361930
v -0.138927 2.405805 1.640821
v -0.643327 2.301611 1.656296
v -0.408125 2.498631 2.070275
v 0.556840 2.136671 1.278973
v 1.047794 1.945983 1.663606
v -0.114006 0.901440 0.903023
v -1.395629 1.610251 2.412747
v -1.322460 1.318145 2.830881
v -1.160427 1.807271 2.826726
v -0.866308 0.210080 1.659474
v -1.463113 1.533598 1.595202
v -1.039194 1.874542 1.235492
vn 0.1471 -0.7986 -0.5836
vn 0.5918 0.5438 -0.5950
vn 0.7926 -0.2579 0.5526
vn -0.1471 0.7986 0.5836
vn -0.7926 0.2579 -0.5526
vn -0.5918 -0.5438 0.5950
vn -0.1045 0.7455 -0.6583
vn -0.9918 0.0437 0.1205
vn 0.0379 -0.3837 0.9227
vn 0.7143 0.6262 0.3124
vn 0.6756 -0.7299 0.1043
vn 0.0310 -0.0018 0.9995
vn -0.4135 -0.9071 0.0781
vn -0.2008 0.9239 -0.3256
vn 0.5953 -0.0800 -0.7995
vn -0.8842 0.2960 0.3615
vn -0.4928 -0.2625 -0.8296
vn -0.0238 0.3029 -0.9527
vn 0.9813 -0.1034 -0.1622
vn 0.9575 0.2867 0.0327
vn -0.6367 0.7709 -0.0197
vn 0.1298 -0.5014 0.8554
vn -0.1533 0.6287 -0.7624
vn -0.5224 0.1801 0.8334
vn 0.4565 0.3824 0.8034
vn -0.8867 -0.4102 -0.2131
vn -0.6644 0.7470 0.0220
vn 0.3145 0.9492 -0.0081
vn 0.1152 -0.7991 0.5901
vn 0.9179 0.3573 0.1725
vn -0.7049 0.7072 -0.0546
vn -0.5493 0.0916 0.8306
vn 0.5177 0.3095 0.7977
vn -0.5561 -0.2589 -0.7897
vn 0.5654 -0.0286 -0.8243
vn 0.4315 0.3435 0.8341
vn -0.9890 -0.1154 0.0925
vn -0.5649 0.1731 0.8068
vn 0.3613 0.9325 0.0011
vn -0.3927 -0.9091 0.1390
vn 0.7285 -0.6769 0.1058
vn 0.3614 0.9285 -0.0851
vt 0.625000 0.750000
vt 0.875000 0.500000
vt 0.625000 0.500000
vt 0.375000 1.000000
vt 0.375000 0.750000
vt 0.375000 0.250000
vt 0.625000 0.000000
vt 0.375000 0.000000
vt 0.125000 0.750000
vt 0.375000 0.500000
vt 0.125000 0.500000
vt 0.625000 0.250000
vt 0.329455 0.545545
vt 0.170545 0.704455
vt 0.170545 0.545545
vt 0.420545 0.045545
vt 0.579455 0.204455
vt 0.420545 0.204455
vt 0.420545 0.795545
vt 0.579455 0.954455
vt 0.420545 0.954455
vt 0.829455 0.545545
vt 0.670545 0.704455
vt 0.670545 0.545545
vt 0.420545 0.545545
vt 0.579455 0.704455
vt 0.420545 0.704455
vt 0.579455 0.454455
vt 0.625000 0.454455
vt 0.579455 0.500000
vt 0.329455 0.500000
vt 0.375000 0.545545
vt 0.579455 0.750000
vt 0.625000 0.795545
vt 0.579455 0.795545
vt 0.375000 0.704455
vt 0.329455 0.750000
vt 0.329455 0.704455
vt 0.579455 0.250000
vt 0.625000 0.204455
vt 0.125000 0.545545
vt 0.170545 0.500000
vt 0.579455 0.045545
vt 0.579455 0.000000
vt 0.625000 0.045545
vt 0.170545 0.750000
vt 0.125000 0.704455
vt 0.579455 0.545545
vt 0.420545 0.454455
vt 0.420545 0.000000
vt 0.579455 0.295545
vt 0.625000 0.954455
vt 0.625000 0.295545
vt 0.420545 0.295545
vt 0.875000 0.750000
vt 0.625000 1.000000
vt 0.829455 0.704455
s 0
usemtl Material
f 3/1/1 5/2/1 1/3/1
f 8/4/2 3/1/2 4/5/2
f 6/6/3 7/7/3 8/8/3
f 8/9/4 2/10/4 6/11/4
f 4/5/5 1/3/5 2/10/5
f 2/10/6 5/12/6 6/6/6
f 12/13/1 30/14/1 26/15/1
f 32/16/7 22/17/7 24/18/7
f 19/19/8 28/20/8 31/21/8
f 23/22/4 16/23/4 10/24/4
f 14/25/9 15/26/9 18/27/9
f 9/28/10 10/29/10 11/30/10
f 12/13/11 13/31/11 14/32/11
f 15/33/12 16/34/12 17/35/12
f 18/36/13 19/37/13 20/38/13
f 21/39/14 22/17/14 23/40/14
f 24/41/15 25/42/15 26/15/15
f 27/43/16 28/44/16 29/45/16
f 30/14/17 31/46/17 32/47/17
f 26/15/18 32/47/18 24/41/18
f 12/13/19 25/42/19 13/31/19
f 11/48/20 13/49/20 9/28/20
f 31/50/21 27/43/21 32/16/21
f 17/35/22 18/27/22 15/26/22
f 21/51/23 24/18/23 22/17/23
f 29/52/24 17/35/24 16/34/24
f 16/23/25 11/48/25 10/24/25
f 30/14/26 19/37/26 31/46/26
f 23/40/27 27/43/27 29/45/27
f 10/29/28 21/51/28 23/53/28
f 20/38/29 14/25/29 18/27/29
f 25/54/30 9/28/30 13/49/30
f 3/1/1 7/55/1 5/2/1
f 8/4/2 7/56/2 3/1/2
f 6/6/3 5/12/3 7/7/3
f 8/9/4 4/5/4 2/10/4
f 4/5/5 3/1/5 1/3/5
f 2/10/6 1/3/6 5/12/6
f 12/13/1 20/38/1 30/14/1
f 32/16/31 27/43/31 22/17/31
f 19/19/32 17/35/32 28/20/32
f 23/22/4 29/57/4 16/23/4
f 14/25/33 11/48/33 15/26/33
f 26/15/34 30/14/34 32/47/34
f 12/13/35 26/15/35 25/42/35
f 11/48/36 14/25/36 13/49/36
f 31/50/37 28/44/37 27/43/37
f 17/35/38 19/19/38 18/27/38
f 21/51/39 25/54/39 24/18/39
f 29/52/24 28/20/24 17/35/24
f 16/23/25 15/26/25 11/48/25
f 30/14/40 20/38/40 19/37/40
f 23/40/27 22/17/27 27/43/27
f 10/29/28 9/28/28 21/51/28
f 20/38/41 12/13/41 14/25/41
f 25/54/42 21/51/42 9/28/42
