# Blender 4.0.2
# www.blender.org
mtllib enemy134.mtl
o Cube
v -1.000341 0.990112 2.741030
v -0.235692 1.541163 0.977042
v 0.768885 0.220226 3.267446
v 1.533535 0.771277 1.503458
v -1.534335 -0.771597 1.959216
v -0.769685 -0.220546 0.195228
v 0.234892 -1.541483 2.485632
v 0.999541 -0.990432 0.721644
v -1.305184 0.519584 3.077425
v -1.122171 0.278936 3.494691
v -0.885585 0.700274 3.315758
v -0.357521 0.829987 1.730703
v -0.195806 1.117649 3.146013
v 0.366305 0.823878 3.297905
v 0.239008 0.210903 3.650370
v 0.002421 -0.210435 3.829302
v 0.464042 -0.250302 3.603841
v 0.978907 -0.660500 3.099750
v 0.767950 -1.217600 2.834273
v 0.767071 0.340617 2.065314
v -1.644612 -0.600230 2.580473
v -1.419578 -1.061435 2.533945
v -1.461599 -0.840878 2.997738
v -1.755413 0.101161 2.152418
v -1.544456 0.658261 2.417896
v -0.696950 -0.289827 1.233750
v -0.294986 -1.550806 2.868556
v 0.124614 -1.370116 3.106889
v -0.337007 -1.330248 3.332350
v 0.427643 -0.779197 1.568362
v -0.580700 -1.676988 2.106155
v -1.142811 -1.383217 1.954264
vn 0.3823 0.2755 -0.8820
vn -0.8846 0.3849 -0.2632
vn 0.2670 0.8809 0.3909
vn -0.3823 -0.2755 0.8820
vn -0.2670 -0.8809 -0.3909
vn 0.8846 -0.3849 0.2632
vn -0.9076 -0.3421 -0.2434
vn 0.2705 -0.9572 0.1029
vn 0.7344 0.2172 0.6430
vn -0.5773 0.5717 0.5829
vn 0.4986 0.8366 -0.2270
vn 0.4441 0.1272 0.8869
vn 0.9168 -0.1764 -0.3584
vn -0.8856 -0.4454 0.1316
vn -0.4442 0.5169 -0.7318
vn 0.1358 -0.8899 0.4355
vn -0.0235 -0.4942 -0.8690
vn -0.6824 -0.1873 -0.7065
vn -0.2356 0.9573 -0.1677
vn -0.4752 0.8603 0.1844
vn -0.5054 -0.8006 0.3219
vn 0.7812 0.3276 0.5314
vn -0.8422 -0.3715 -0.3907
vn 0.3552 -0.4670 0.8098
vn -0.0815 0.4280 0.9001
vn 0.4814 -0.7801 -0.3996
vn -0.4591 -0.8177 0.3473
vn -0.8959 0.0774 0.4375
vn 0.9200 0.3585 0.1586
vn -0.4625 0.8189 0.3400
vn -0.4493 -0.8547 0.2600
vn 0.4365 -0.4722 0.7659
vn -0.0375 0.5040 0.8629
vn 0.0076 -0.5524 -0.8335
vn -0.4916 0.4734 -0.7309
vn -0.0281 0.4161 0.9089
vn 0.3932 -0.9194 0.0048
vn 0.3601 -0.5089 0.7819
vn -0.8893 0.1275 0.4391
vn 0.9406 -0.1499 -0.3047
vn 0.4404 0.8753 -0.2000
vn -0.9249 0.1202 0.3608
vt 0.625000 0.750000
vt 0.875000 0.500000
vt 0.625000 0.500000
vt 0.375000 1.000000
vt 0.375000 0.750000
vt 0.375000 0.250000
vt 0.625000 0.000000
vt 0.375000 0.000000
vt 0.125000 0.750000
vt 0.375000 0.500000
vt 0.125000 0.500000
vt 0.625000 0.250000
vt 0.329455 0.545545
vt 0.170545 0.704455
vt 0.170545 0.545545
vt 0.420545 0.045545
vt 0.579455 0.204455
vt 0.420545 0.204455
vt 0.420545 0.795545
vt 0.579455 0.954455
vt 0.420545 0.954455
vt 0.829455 0.545545
vt 0.670545 0.704455
vt 0.670545 0.545545
vt 0.420545 0.545545
vt 0.579455 0.704455
vt 0.420545 0.704455
vt 0.579455 0.454455
vt 0.625000 0.454455
vt 0.579455 0.500000
vt 0.329455 0.500000
vt 0.375000 0.545545
vt 0.579455 0.750000
vt 0.625000 0.795545
vt 0.579455 0.795545
vt 0.375000 0.704455
vt 0.329455 0.750000
vt 0.329455 0.704455
vt 0.579455 0.250000
vt 0.625000 0.204455
vt 0.125000 0.545545
vt 0.170545 0.500000
vt 0.579455 0.045545
vt 0.579455 0.000000
vt 0.625000 0.045545
vt 0.170545 0.750000
vt 0.125000 0.704455
vt 0.579455 0.545545
vt 0.420545 0.454455
vt 0.420545 0.000000
vt 0.579455 0.295545
vt 0.625000 0.954455
vt 0.625000 0.295545
vt 0.420545 0.295545
vt 0.875000 0.750000
vt 0.625000 1.000000
vt 0.829455 0.704455
s 0
usemtl Material
f 3/1/1 5/2/1 1/3/1
f 8/4/2 3/1/2 4/5/2
f 6/6/3 7/7/3 8/8/3
f 8/9/4 2/10/4 6/11/4
f 4/5/5 1/3/5 2/10/5
f 2/10/6 5/12/6 6/6/6
f 12/13/1 30/14/1 26/15/1
f 32/16/7 22/17/7 24/18/7
f 19/19/8 28/20/8 31/21/8
f 23/22/4 16/23/4 10/24/4
f 14/25/9 15/26/9 18/27/9
f 9/28/10 10/29/10 11/30/10
f 12/13/11 13/31/11 14/32/11
f 15/33/12 16/34/12 17/35/12
f 18/36/13 19/37/13 20/38/13
f 21/39/14 22/17/14 23/40/14
f 24/41/15 25/42/15 26/15/15
f 27/43/16 28/44/16 29/45/16
f 30/14/17 31/46/17 32/47/17
f 26/15/18 32/47/18 24/41/18
f 12/13/19 25/42/19 13/31/19
f 11/48/20 13/49/20 9/28/20
f 31/50/21 27/43/21 32/16/21
f 17/35/22 18/27/22 15/26/22
f 21/51/23 24/18/23 22/17/23
f 29/52/24 17/35/24 16/34/24
f 16/23/25 11/48/25 10/24/25
f 30/14/26 19/37/26 31/46/26
f 23/40/27 27/43/27 29/45/27
f 10/29/28 21/51/28 23/53/28
f 20/38/29 14/25/29 18/27/29
f 25/54/30 9/28/30 13/49/30
f 3/1/1 7/55/1 5/2/1
f 8/4/2 7/56/2 3/1/2
f 6/6/3 5/12/3 7/7/3
f 8/9/4 4/5/4 2/10/4
f 4/5/5 3/1/5 1/3/5
f 2/10/6 1/3/6 5/12/6
f 12/13/1 20/38/1 30/14/1
f 32/16/31 27/43/31 22/17/31
f 19/19/32 17/35/32 28/20/32
f 23/22/4 29/57/4 16/23/4
f 14/25/33 11/48/33 15/26/33
f 26/15/34 30/14/34 32/47/34
f 12/13/35 26/15/35 25/42/35
f 11/48/36 14/25/36 13/49/36
f 31/50/37 28/44/37 27/43/37
f 17/35/38 19/19/38 18/27/38
f 21/51/39 25/54/39 24/18/39
f 29/52/24 28/20/24 17/35/24
f 16/23/25 15/26/25 11/48/25
f 30/14/40 20/38/40 19/37/40
f 23/40/27 22/17/27 27/43/27
f 10/29/28 9/28/28 21/51/28
f 20/38/41 12/13/41 14/25/41
f 25/54/42 21/51/42 9/28/42
