# Blender 4.0.2
# www.blender.org
mtllib enemy132.mtl
o Cube
v -1.680571 0.208836 2.219513
v -0.537209 1.561269 1.290186
v -0.207567 -0.137877 3.527201
v 0.935795 1.214556 2.597874
v -0.957395 -1.223196 1.025234
v 0.185967 0.129237 0.095907
v 0.515609 -1.569909 2.332922
v 1.658971 -0.217476 1.403595
v -1.859183 -0.419162 2.254201
v -1.799129 -0.728712 2.661740
v -1.722580 -0.221439 2.710009
v -0.655767 0.623720 1.732413
v -1.297854 0.413310 3.019058
v -0.801066 0.265265 3.414817
v -0.786278 -0.441824 3.541229
v -0.862828 -0.949097 3.492960
v -0.386179 -0.765876 3.561890
v 0.422132 -0.793250 3.379293
v 0.626500 -1.251963 2.963172
v 0.280534 0.403335 2.563632
v -1.399504 -1.329420 1.495069
v -0.999404 -1.653471 1.515730
v -1.339450 -1.638970 1.902608
v -1.603626 -0.587379 1.186579
v -1.807994 -0.128665 1.602700
v -0.196087 -0.286537 0.973281
v -0.063103 -1.873856 2.346950
v 0.073500 -1.676134 2.802757
v -0.403148 -1.859355 2.733828
v 0.740214 -0.506922 1.804500
v 0.116359 -1.793938 1.546815
v -0.380429 -1.645894 1.151056
vn 0.5717 0.6762 -0.4647
vn -0.7365 0.1734 -0.6538
vn -0.3616 0.7160 0.5971
vn -0.5717 -0.6762 0.4647
vn 0.3616 -0.7160 -0.5971
vn 0.7365 -0.1734 0.6538
vn -0.4400 -0.4831 -0.7569
vn 0.5883 -0.8030 0.0954
vn 0.1810 0.1767 0.9675
vn -0.9640 0.1231 0.2355
vn 0.1163 0.9693 0.2166
vn -0.1136 -0.0771 0.9905
vn 0.9494 0.2456 0.1955
vn -0.5465 -0.7037 -0.4540
vn -0.2428 0.5902 -0.7699
vn 0.3039 -0.9039 0.3010
vn 0.5941 -0.1290 -0.7940
vn -0.1255 -0.1119 -0.9858
vn -0.5320 0.8369 -0.1286
vn -0.8333 0.5527 0.0100
vn -0.1805 -0.9739 -0.1378
vn 0.2187 0.3286 0.9188
vn -0.3098 -0.4364 -0.8447
vn 0.1165 -0.6007 0.7909
vn -0.6599 0.0281 0.7508
vn 0.8997 -0.4020 -0.1702
vn -0.1486 -0.9845 -0.0937
vn -0.9250 -0.3556 -0.1338
vn 0.4807 0.5320 0.6971
vn -0.8753 0.4635 0.1379
vn -0.0850 -0.9827 -0.1648
vn 0.2016 -0.5653 0.7999
vn -0.6428 0.1218 0.7563
vn 0.6280 -0.1840 -0.7562
vn -0.2606 0.5373 -0.8021
vn -0.6173 0.0303 0.7862
vn 0.7107 -0.6978 0.0897
vn 0.1516 -0.6262 0.7648
vn -0.9430 -0.3099 -0.1215
vn 0.9318 0.2567 0.2565
vn 0.0419 0.9764 0.2117
vn -0.9318 -0.2985 -0.2063
vt 0.625000 0.750000
vt 0.875000 0.500000
vt 0.625000 0.500000
vt 0.375000 1.000000
vt 0.375000 0.750000
vt 0.375000 0.250000
vt 0.625000 0.000000
vt 0.375000 0.000000
vt 0.125000 0.750000
vt 0.375000 0.500000
vt 0.125000 0.500000
vt 0.625000 0.250000
vt 0.329455 0.545545
vt 0.170545 0.704455
vt 0.170545 0.545545
vt 0.420545 0.045545
vt 0.579455 0.204455
vt 0.420545 0.204455
vt 0.420545 0.795545
vt 0.579455 0.954455
vt 0.420545 0.954455
vt 0.829455 0.545545
vt 0.670545 0.704455
vt 0.670545 0.545545
vt 0.420545 0.545545
vt 0.579455 0.704455
vt 0.420545 0.704455
vt 0.579455 0.454455
vt 0.625000 0.454455
vt 0.579455 0.500000
vt 0.329455 0.500000
vt 0.375000 0.545545
vt 0.579455 0.750000
vt 0.625000 0.795545
vt 0.579455 0.795545
vt 0.375000 0.704455
vt 0.329455 0.750000
vt 0.329455 0.704455
vt 0.579455 0.250000
vt 0.625000 0.204455
vt 0.125000 0.545545
vt 0.170545 0.500000
vt 0.579455 0.045545
vt 0.579455 0.000000
vt 0.625000 0.045545
vt 0.170545 0.750000
vt 0.125000 0.704455
vt 0.579455 0.545545
vt 0.420545 0.454455
vt 0.420545 0.000000
vt 0.579455 0.295545
vt 0.625000 0.954455
vt 0.625000 0.295545
vt 0.420545 0.295545
vt 0.875000 0.750000
vt 0.625000 1.000000
vt 0.829455 0.704455
s 0
usemtl Material
f 3/1/1 5/2/1 1/3/1
f 8/4/2 3/1/2 4/5/2
f 6/6/3 7/7/3 8/8/3
f 8/9/4 2/10/4 6/11/4
f 4/5/5 1/3/5 2/10/5
f 2/10/6 5/12/6 6/6/6
f 12/13/1 30/14/1 26/15/1
f 32/16/7 22/17/7 24/18/7
f 19/19/8 28/20/8 31/21/8
f 23/22/4 16/23/4 10/24/4
f 14/25/9 15/26/9 18/27/9
f 9/28/10 10/29/10 11/30/10
f 12/13/11 13/31/11 14/32/11
f 15/33/12 16/34/12 17/35/12
f 18/36/13 19/37/13 20/38/13
f 21/39/14 22/17/14 23/40/14
f 24/41/15 25/42/15 26/15/15
f 27/43/16 28/44/16 29/45/16
f 30/14/17 31/46/17 32/47/17
f 26/15/18 32/47/18 24/41/18
f 12/13/19 25/42/19 13/31/19
f 11/48/20 13/49/20 9/28/20
f 31/50/21 27/43/21 32/16/21
f 17/35/22 18/27/22 15/26/22
f 21/51/23 24/18/23 22/17/23
f 29/52/24 17/35/24 16/34/24
f 16/23/25 11/48/25 10/24/25
f 30/14/26 19/37/26 31/46/26
f 23/40/27 27/43/27 29/45/27
f 10/29/28 21/51/28 23/53/28
f 20/38/29 14/25/29 18/27/29
f 25/54/30 9/28/30 13/49/30
f 3/1/1 7/55/1 5/2/1
f 8/4/2 7/56/2 3/1/2
f 6/6/3 5/12/3 7/7/3
f 8/9/4 4/5/4 2/10/4
f 4/5/5 3/1/5 1/3/5
f 2/10/6 1/3/6 5/12/6
f 12/13/1 20/38/1 30/14/1
f 32/16/31 27/43/31 22/17/31
f 19/19/32 17/35/32 28/20/32
f 23/22/4 29/57/4 16/23/4
f 14/25/33 11/48/33 15/26/33
f 26/15/34 30/14/34 32/47/34
f 12/13/35 26/15/35 25/42/35
f 11/48/36 14/25/36 13/49/36
f 31/50/37 28/44/37 27/43/37
f 17/35/38 19/19/38 18/27/38
f 21/51/39 25/54/39 24/18/39
f 29/52/24 28/20/24 17/35/24
f 16/23/25 15/26/25 11/48/25
f 30/14/40 20/38/40 19/37/40
f 23/40/27 22/17/27 27/43/27
f 10/29/28 9/28/28 21/51/28
f 20/38/41 12/13/41 14/25/41
f 25/54/42 21/51/42 9/28/42
