# Blender 4.0.2
# www.blender.org
mtllib enemy17.mtl
o Cube
v 0.615238 0.972915 2.294187
v 1.317461 0.964200 0.421539
v 0.554212 -1.026108 2.280606
v 1.256435 -1.034823 0.407959
v -1.256435 1.034823 1.592041
v -0.554212 1.026108 -0.280606
v -1.317461 -0.964200 1.578461
v -0.615238 -0.972915 -0.294187
v 0.083642 0.986559 2.674591
v -0.055406 0.623965 3.013275
v 0.413505 0.611099 2.800034
v 0.646816 0.615250 1.140628
v 1.041002 0.189124 2.472934
v 0.975012 -0.459347 2.451206
v 0.374715 -0.659561 2.791401
v -0.094197 -0.646695 3.004643
v 0.022616 -1.012464 2.661011
v -0.200416 -1.482181 2.015194
v -0.808199 -1.420016 1.786993
v 0.608026 -0.655410 1.131996
v -1.106069 1.025910 2.228279
v -1.458168 0.673007 2.097888
v -1.245117 0.663317 2.566963
v -0.511961 1.491023 1.884531
v 0.095822 1.428858 2.112732
v -0.542895 0.654601 0.694316
v -1.496958 -0.597653 2.089256
v -1.167095 -0.973112 2.214699
v -1.283908 -0.607343 2.558331
v -0.581685 -0.616058 0.685684
v -1.753379 -0.180283 1.426791
v -1.687388 0.468188 1.448519
vn 0.3511 -0.0044 -0.9363
vn 0.0305 0.9995 0.0068
vn 0.9358 -0.0310 0.3511
vn -0.3511 0.0044 0.9363
vn -0.9358 0.0310 -0.3511
vn -0.0305 -0.9995 -0.0068
vn -0.6549 0.7557 -0.0072
vn -0.7913 -0.6108 -0.0258
vn 0.4958 -0.7537 0.4314
vn 0.3552 0.5617 0.7472
vn 0.9475 -0.0861 -0.3079
vn 0.3200 -0.5924 0.7394
vn 0.1456 -0.7853 -0.6018
vn -0.7254 0.5975 0.3418
vn 0.2884 0.7799 -0.5556
vn -0.7606 -0.5567 0.3340
vn -0.5112 0.0807 -0.8557
vn -0.4524 0.7351 -0.5049
vn 0.8008 0.5972 -0.0459
vn 0.6417 0.6814 0.3520
vn -0.9118 0.0793 0.4029
vn 0.6101 -0.7260 0.3173
vn -0.6661 0.7267 -0.1680
vn -0.2698 -0.7037 0.6573
vn 0.4135 -0.0188 0.9103
vn -0.5750 -0.6000 -0.5563
vn -0.9100 0.0250 0.4138
vn -0.2267 0.7098 0.6669
vn 0.6706 -0.7378 -0.0769
vn 0.6151 0.6130 0.4959
vn -0.9452 0.0266 0.3253
vn -0.2477 -0.7663 0.5928
vn 0.4982 -0.0211 0.8668
vn -0.5527 0.0225 -0.8331
vn 0.2308 0.8066 -0.5442
vn 0.4218 -0.0732 0.9037
vn -0.7170 -0.6805 -0.1512
vn -0.3085 -0.7154 0.6269
vn -0.1775 0.7214 0.6693
vn 0.1814 -0.8117 -0.5552
vn 0.9641 -0.0276 -0.2641
vn -0.2008 0.7719 0.6033
vt 0.625000 0.750000
vt 0.875000 0.500000
vt 0.625000 0.500000
vt 0.375000 1.000000
vt 0.375000 0.750000
vt 0.375000 0.250000
vt 0.625000 0.000000
vt 0.375000 0.000000
vt 0.125000 0.750000
vt 0.375000 0.500000
vt 0.125000 0.500000
vt 0.625000 0.250000
vt 0.329455 0.545545
vt 0.170545 0.704455
vt 0.170545 0.545545
vt 0.420545 0.045545
vt 0.579455 0.204455
vt 0.420545 0.204455
vt 0.420545 0.795545
vt 0.579455 0.954455
vt 0.420545 0.954455
vt 0.829455 0.545545
vt 0.670545 0.704455
vt 0.670545 0.545545
vt 0.420545 0.545545
vt 0.579455 0.704455
vt 0.420545 0.704455
vt 0.579455 0.454455
vt 0.625000 0.454455
vt 0.579455 0.500000
vt 0.329455 0.500000
vt 0.375000 0.545545
vt 0.579455 0.750000
vt 0.625000 0.795545
vt 0.579455 0.795545
vt 0.375000 0.704455
vt 0.329455 0.750000
vt 0.329455 0.704455
vt 0.579455 0.250000
vt 0.625000 0.204455
vt 0.125000 0.545545
vt 0.170545 0.500000
vt 0.579455 0.045545
vt 0.579455 0.000000
vt 0.625000 0.045545
vt 0.170545 0.750000
vt 0.125000 0.704455
vt 0.579455 0.545545
vt 0.420545 0.454455
vt 0.420545 0.000000
vt 0.579455 0.295545
vt 0.625000 0.954455
vt 0.625000 0.295545
vt 0.420545 0.295545
vt 0.875000 0.750000
vt 0.625000 1.000000
vt 0.829455 0.704455
s 0
usemtl Material
f 3/1/1 5/2/1 1/3/1
f 8/4/2 3/1/2 4/5/2
f 6/6/3 7/7/3 8/8/3
f 8/9/4 2/10/4 6/11/4
f 4/5/5 1/3/5 2/10/5
f 2/10/6 5/12/6 6/6/6
f 12/13/1 30/14/1 26/15/1
f 32/16/7 22/17/7 24/18/7
f 19/19/8 28/20/8 31/21/8
f 23/22/4 16/23/4 10/24/4
f 14/25/9 15/26/9 18/27/9
f 9/28/10 10/29/10 11/30/10
f 12/13/11 13/31/11 14/32/11
f 15/33/12 16/34/12 17/35/12
f 18/36/13 19/37/13 20/38/13
f 21/39/14 22/17/14 23/40/14
f 24/41/15 25/42/15 26/15/15
f 27/43/16 28/44/16 29/45/16
f 30/14/17 31/46/17 32/47/17
f 26/15/18 32/47/18 24/41/18
f 12/13/19 25/42/19 13/31/19
f 11/48/20 13/49/20 9/28/20
f 31/50/21 27/43/21 32/16/21
f 17/35/22 18/27/22 15/26/22
f 21/51/23 24/18/23 22/17/23
f 29/52/24 17/35/24 16/34/24
f 16/23/25 11/48/25 10/24/25
f 30/14/26 19/37/26 31/46/26
f 23/40/27 27/43/27 29/45/27
f 10/29/28 21/51/28 23/53/28
f 20/38/29 14/25/29 18/27/29
f 25/54/30 9/28/30 13/49/30
f 3/1/1 7/55/1 5/2/1
f 8/4/2 7/56/2 3/1/2
f 6/6/3 5/12/3 7/7/3
f 8/9/4 4/5/4 2/10/4
f 4/5/5 3/1/5 1/3/5
f 2/10/6 1/3/6 5/12/6
f 12/13/1 20/38/1 30/14/1
f 32/16/31 27/43/31 22/17/31
f 19/19/32 17/35/32 28/20/32
f 23/22/4 29/57/4 16/23/4
f 14/25/33 11/48/33 15/26/33
f 26/15/34 30/14/34 32/47/34
f 12/13/35 26/15/35 25/42/35
f 11/48/36 14/25/36 13/49/36
f 31/50/37 28/44/37 27/43/37
f 17/35/38 19/19/38 18/27/38
f 21/51/39 25/54/39 24/18/39
f 29/52/24 28/20/24 17/35/24
f 16/23/25 15/26/25 11/48/25
f 30/14/40 20/38/40 19/37/40
f 23/40/27 22/17/27 27/43/27
f 10/29/28 9/28/28 21/51/28
f 20/38/41 12/13/41 14/25/41
f 25/54/42 21/51/42 9/28/42
