# Blender 4.0.2
# www.blender.org
mtllib enemy114.mtl
o Cube
v 1.486991 0.887426 1.342117
v 0.837736 -0.337673 -0.099271
v 0.986552 -0.470967 2.722091
v 0.337298 -1.696066 1.280703
v -0.337298 1.696066 1.476545
v -0.986552 0.470967 0.035157
v -0.837736 0.337673 2.856519
v -1.486991 -0.887426 1.415131
v 1.330880 1.367291 1.757865
v 1.357991 1.343008 2.271860
v 1.572058 0.972502 1.984778
v 0.708736 0.117909 0.830472
v 1.742026 0.177561 1.850648
v 1.534325 -0.244192 2.302671
v 1.253959 0.109052 2.861946
v 1.039892 0.479558 3.149028
v 0.830441 0.008898 3.137839
v 0.154692 -0.471085 3.116956
v -0.428436 -0.179390 3.131693
v 0.390637 -0.745541 1.707639
v 0.171288 1.881296 1.843313
v -0.252230 1.781142 2.119207
v 0.198399 1.857013 2.357308
v 0.503951 1.713899 1.102523
v 1.087078 1.422204 1.087785
v -0.450856 0.631913 0.915920
v -0.570329 0.917692 2.996374
v -0.329151 0.522903 3.223288
v -0.119700 0.993562 3.234476
v -0.768955 -0.231537 1.793088
v -1.083383 1.065252 2.368830
v -0.875682 1.487006 1.916807
vn -0.3246 -0.6125 -0.7207
vn 0.2502 0.6792 -0.6900
vn 0.9121 -0.4043 -0.0672
vn 0.3246 0.6125 0.7207
vn -0.9121 0.4043 0.0672
vn -0.2502 -0.6792 0.6900
vn -0.3252 0.8964 -0.3011
vn -0.7439 0.0180 0.6681
vn 0.4722 -0.6189 0.6276
vn 0.8585 0.5124 -0.0211
vn 0.4961 -0.7367 -0.4594
vn 0.5696 -0.2719 0.7757
vn -0.4432 -0.8909 0.0993
vn -0.1947 0.9792 0.0565
vn 0.0419 0.1338 -0.9901
vn -0.4837 0.1950 0.8533
vn -0.8995 -0.0245 -0.4362
vn -0.4899 0.5491 -0.6771
vn 0.7030 -0.0642 -0.7083
vn 0.8520 0.2589 -0.4550
vn -0.4115 0.7530 0.5135
vn 0.4924 -0.7149 0.4964
vn -0.4407 0.8126 -0.3815
vn 0.0526 -0.0471 0.9975
vn 0.8745 0.1472 0.4621
vn -0.9118 -0.3298 0.2448
vn -0.4154 0.7190 0.5571
vn 0.4065 0.9134 0.0217
vn 0.2882 -0.9297 0.2293
vn 0.9069 0.2895 -0.3062
vn -0.4968 0.7017 0.5106
vn 0.0148 -0.1314 0.9912
vn 0.9101 0.0781 0.4069
vn -0.9294 -0.0312 -0.3678
vn 0.0120 0.1902 -0.9817
vn 0.8645 0.1018 0.4922
vn -0.7824 -0.1275 0.6096
vn 0.0021 -0.0464 0.9989
vn 0.4474 0.8944 -0.0012
vn -0.3931 -0.9094 0.1354
vn 0.5490 -0.6865 -0.4767
vn 0.3999 0.9138 -0.0706
vt 0.625000 0.750000
vt 0.875000 0.500000
vt 0.625000 0.500000
vt 0.375000 1.000000
vt 0.375000 0.750000
vt 0.375000 0.250000
vt 0.625000 0.000000
vt 0.375000 0.000000
vt 0.125000 0.750000
vt 0.375000 0.500000
vt 0.125000 0.500000
vt 0.625000 0.250000
vt 0.329455 0.545545
vt 0.170545 0.704455
vt 0.170545 0.545545
vt 0.420545 0.045545
vt 0.579455 0.204455
vt 0.420545 0.204455
vt 0.420545 0.795545
vt 0.579455 0.954455
vt 0.420545 0.954455
vt 0.829455 0.545545
vt 0.670545 0.704455
vt 0.670545 0.545545
vt 0.420545 0.545545
vt 0.579455 0.704455
vt 0.420545 0.704455
vt 0.579455 0.454455
vt 0.625000 0.454455
vt 0.579455 0.500000
vt 0.329455 0.500000
vt 0.375000 0.545545
vt 0.579455 0.750000
vt 0.625000 0.795545
vt 0.579455 0.795545
vt 0.375000 0.704455
vt 0.329455 0.750000
vt 0.329455 0.704455
vt 0.579455 0.250000
vt 0.625000 0.204455
vt 0.125000 0.545545
vt 0.170545 0.500000
vt 0.579455 0.045545
vt 0.579455 0.000000
vt 0.625000 0.045545
vt 0.170545 0.750000
vt 0.125000 0.704455
vt 0.579455 0.545545
vt 0.420545 0.454455
vt 0.420545 0.000000
vt 0.579455 0.295545
vt 0.625000 0.954455
vt 0.625000 0.295545
vt 0.420545 0.295545
vt 0.875000 0.750000
vt 0.625000 1.000000
vt 0.829455 0.704455
s 0
usemtl Material
f 3/1/1 5/2/1 1/3/1
f 8/4/2 3/1/2 4/5/2
f 6/6/3 7/7/3 8/8/3
f 8/9/4 2/10/4 6/11/4
f 4/5/5 1/3/5 2/10/5
f 2/10/6 5/12/6 6/6/6
f 12/13/1 30/14/1 26/15/1
f 32/16/7 22/17/7 24/18/7
f 19/19/8 28/20/8 31/21/8
f 23/22/4 16/23/4 10/24/4
f 14/25/9 15/26/9 18/27/9
f 9/28/10 10/29/10 11/30/10
f 12/13/11 13/31/11 14/32/11
f 15/33/12 16/34/12 17/35/12
f 18/36/13 19/37/13 20/38/13
f 21/39/14 22/17/14 23/40/14
f 24/41/15 25/42/15 26/15/15
f 27/43/16 28/44/16 29/45/16
f 30/14/17 31/46/17 32/47/17
f 26/15/18 32/47/18 24/41/18
f 12/13/19 25/42/19 13/31/19
f 11/48/20 13/49/20 9/28/20
f 31/50/21 27/43/21 32/16/21
f 17/35/22 18/27/22 15/26/22
f 21/51/23 24/18/23 22/17/23
f 29/52/24 17/35/24 16/34/24
f 16/23/25 11/48/25 10/24/25
f 30/14/26 19/37/26 31/46/26
f 23/40/27 27/43/27 29/45/27
f 10/29/28 21/51/28 23/53/28
f 20/38/29 14/25/29 18/27/29
f 25/54/30 9/28/30 13/49/30
f 3/1/1 7/55/1 5/2/1
f 8/4/2 7/56/2 3/1/2
f 6/6/3 5/12/3 7/7/3
f 8/9/4 4/5/4 2/10/4
f 4/5/5 3/1/5 1/3/5
f 2/10/6 1/3/6 5/12/6
f 12/13/1 20/38/1 30/14/1
f 32/16/31 27/43/31 22/17/31
f 19/19/32 17/35/32 28/20/32
f 23/22/4 29/57/4 16/23/4
f 14/25/33 11/48/33 15/26/33
f 26/15/34 30/14/34 32/47/34
f 12/13/35 26/15/35 25/42/35
f 11/48/36 14/25/36 13/49/36
f 31/50/37 28/44/37 27/43/37
f 17/35/38 19/19/38 18/27/38
f 21/51/39 25/54/39 24/18/39
f 29/52/24 28/20/24 17/35/24
f 16/23/25 15/26/25 11/48/25
f 30/14/40 20/38/40 19/37/40
f 23/40/27 22/17/27 27/43/27
f 10/29/28 9/28/28 21/51/28
f 20/38/41 12/13/41 14/25/41
f 25/54/42 21/51/42 9/28/42
