# Blender 4.0.2
# www.blender.org
mtllib enemy115.mtl
o Cube
v 1.490579 0.881109 1.447325
v 0.947119 -0.532642 0.141201
v 0.877314 -0.278161 2.957292
v 0.333854 -1.691912 1.651168
v -0.333854 1.691912 1.328832
v -0.877314 0.278161 0.022708
v -0.947119 0.532642 2.838799
v -1.490579 -0.881109 1.532675
v 1.305724 1.412577 1.780279
v 1.293007 1.458938 2.293314
v 1.526374 1.053670 2.076952
v 0.749547 0.045187 0.987190
v 1.701491 0.248667 2.066266
v 1.457101 -0.108287 2.554321
v 1.136559 0.316791 3.036748
v 0.903191 0.722059 3.253110
v 0.692459 0.253307 3.290246
v 0.017515 -0.228208 3.283115
v -0.563287 0.060005 3.212816
v 0.359731 -0.691692 1.946986
v 0.146040 1.927956 1.704960
v -0.298059 1.864473 1.958458
v 0.133323 1.974317 2.217995
v 0.533803 1.662402 1.021895
v 1.114606 1.374188 1.092194
v -0.410137 0.560566 0.911871
v -0.687875 1.127594 2.918255
v -0.467225 0.768686 3.214927
v -0.256493 1.237438 3.177791
v -0.799953 -0.176312 1.871667
v -1.150173 1.185527 2.238744
v -0.905782 1.542481 1.750689
vn -0.2717 -0.7069 -0.6531
vn 0.3066 0.5796 -0.7550
vn 0.9122 -0.4054 0.0592
vn 0.2717 0.7069 0.6531
vn -0.9122 0.4054 -0.0592
vn -0.3066 -0.5796 0.7550
vn -0.2957 0.8453 -0.4450
vn -0.7930 0.1057 0.5999
vn 0.4188 -0.5250 0.7409
vn 0.8606 0.5087 -0.0246
vn 0.5257 -0.7903 -0.3148
vn 0.5065 -0.1606 0.8471
vn -0.4547 -0.8711 0.1857
vn -0.1928 0.9768 -0.0931
vn 0.1189 -0.0027 -0.9929
vn -0.5468 0.3075 0.7787
vn -0.8634 -0.0881 -0.4968
vn -0.4331 0.4490 -0.7815
vn 0.7551 -0.1571 -0.6365
vn 0.8860 0.1983 -0.4191
vn -0.4454 0.8142 0.3724
vn 0.4485 -0.6380 0.6260
vn -0.4052 0.7507 -0.5219
vn -0.0247 0.0900 0.9956
vn 0.8372 0.2132 0.5037
vn -0.9299 -0.2975 0.2165
vn -0.4529 0.7865 0.4199
vn 0.4090 0.9097 -0.0721
vn 0.2642 -0.8882 0.3758
vn 0.9295 0.2492 -0.2721
vn -0.5306 0.7626 0.3700
vn -0.0624 0.0055 0.9980
vn 0.8765 0.1373 0.4614
vn -0.8985 -0.0856 -0.4306
vn 0.0887 0.0542 -0.9946
vn 0.8246 0.1722 0.5389
vn -0.8277 -0.0467 0.5592
vn -0.0752 0.0907 0.9930
vn 0.4514 0.8879 -0.0890
vn -0.4078 -0.8842 0.2278
vn 0.5800 -0.7427 -0.3346
vn 0.4095 0.8975 -0.1638
vt 0.625000 0.750000
vt 0.875000 0.500000
vt 0.625000 0.500000
vt 0.375000 1.000000
vt 0.375000 0.750000
vt 0.375000 0.250000
vt 0.625000 0.000000
vt 0.375000 0.000000
vt 0.125000 0.750000
vt 0.375000 0.500000
vt 0.125000 0.500000
vt 0.625000 0.250000
vt 0.329455 0.545545
vt 0.170545 0.704455
vt 0.170545 0.545545
vt 0.420545 0.045545
vt 0.579455 0.204455
vt 0.420545 0.204455
vt 0.420545 0.795545
vt 0.579455 0.954455
vt 0.420545 0.954455
vt 0.829455 0.545545
vt 0.670545 0.704455
vt 0.670545 0.545545
vt 0.420545 0.545545
vt 0.579455 0.704455
vt 0.420545 0.704455
vt 0.579455 0.454455
vt 0.625000 0.454455
vt 0.579455 0.500000
vt 0.329455 0.500000
vt 0.375000 0.545545
vt 0.579455 0.750000
vt 0.625000 0.795545
vt 0.579455 0.795545
vt 0.375000 0.704455
vt 0.329455 0.750000
vt 0.329455 0.704455
vt 0.579455 0.250000
vt 0.625000 0.204455
vt 0.125000 0.545545
vt 0.170545 0.500000
vt 0.579455 0.045545
vt 0.579455 0.000000
vt 0.625000 0.045545
vt 0.170545 0.750000
vt 0.125000 0.704455
vt 0.579455 0.545545
vt 0.420545 0.454455
vt 0.420545 0.000000
vt 0.579455 0.295545
vt 0.625000 0.954455
vt 0.625000 0.295545
vt 0.420545 0.295545
vt 0.875000 0.750000
vt 0.625000 1.000000
vt 0.829455 0.704455
s 0
usemtl Material
f 3/1/1 5/2/1 1/3/1
f 8/4/2 3/1/2 4/5/2
f 6/6/3 7/7/3 8/8/3
f 8/9/4 2/10/4 6/11/4
f 4/5/5 1/3/5 2/10/5
f 2/10/6 5/12/6 6/6/6
f 12/13/1 30/14/1 26/15/1
f 32/16/7 22/17/7 24/18/7
f 19/19/8 28/20/8 31/21/8
f 23/22/4 16/23/4 10/24/4
f 14/25/9 15/26/9 18/27/9
f 9/28/10 10/29/10 11/30/10
f 12/13/11 13/31/11 14/32/11
f 15/33/12 16/34/12 17/35/12
f 18/36/13 19/37/13 20/38/13
f 21/39/14 22/17/14 23/40/14
f 24/41/15 25/42/15 26/15/15
f 27/43/16 28/44/16 29/45/16
f 30/14/17 31/46/17 32/47/17
f 26/15/18 32/47/18 24/41/18
f 12/13/19 25/42/19 13/31/19
f 11/48/20 13/49/20 9/28/20
f 31/50/21 27/43/21 32/16/21
f 17/35/22 18/27/22 15/26/22
f 21/51/23 24/18/23 22/17/23
f 29/52/24 17/35/24 16/34/24
f 16/23/25 11/48/25 10/24/25
f 30/14/26 19/37/26 31/46/26
f 23/40/27 27/43/27 29/45/27
f 10/29/28 21/51/28 23/53/28
f 20/38/29 14/25/29 18/27/29
f 25/54/30 9/28/30 13/49/30
f 3/1/1 7/55/1 5/2/1
f 8/4/2 7/56/2 3/1/2
f 6/6/3 5/12/3 7/7/3
f 8/9/4 4/5/4 2/10/4
f 4/5/5 3/1/5 1/3/5
f 2/10/6 1/3/6 5/12/6
f 12/13/1 20/38/1 30/14/1
f 32/16/31 27/43/31 22/17/31
f 19/19/32 17/35/32 28/20/32
f 23/22/4 29/57/4 16/23/4
f 14/25/33 11/48/33 15/26/33
f 26/15/34 30/14/34 32/47/34
f 12/13/35 26/15/35 25/42/35
f 11/48/36 14/25/36 13/49/36
f 31/50/37 28/44/37 27/43/37
f 17/35/38 19/19/38 18/27/38
f 21/51/39 25/54/39 24/18/39
f 29/52/24 28/20/24 17/35/24
f 16/23/25 15/26/25 11/48/25
f 30/14/40 20/38/40 19/37/40
f 23/40/27 22/17/27 27/43/27
f 10/29/28 9/28/28 21/51/28
f 20/38/41 12/13/41 14/25/41
f 25/54/42 21/51/42 9/28/42
