# Blender 4.0.2
# www.blender.org
mtllib enemy121.mtl
o Cube
v 0.955738 1.740398 2.398556
v 1.589409 0.229341 1.251748
v -0.043558 0.446764 3.550910
v 0.590112 -1.064293 2.404101
v -0.656672 1.948292 1.233691
v -0.023002 0.437236 0.086882
v -1.655969 0.654659 2.386045
v -1.022298 -0.856398 1.239236
v 0.489983 2.188441 2.497638
v 0.192490 2.228051 2.916498
v 0.601680 1.914893 2.919788
v 0.826160 0.716995 1.769689
v 0.958207 1.203326 3.132793
v 0.593523 0.787818 3.478768
v -0.033513 1.092607 3.652270
v -0.442704 1.405765 3.648981
v -0.509313 0.894807 3.649991
v -0.921398 0.228404 3.378790
v -1.425092 0.323248 2.975506
v 0.190967 -0.105292 2.502172
v -0.534931 2.320587 1.757202
v -1.010731 2.122788 1.754922
v -0.832424 2.360198 2.176063
v 0.212005 2.188502 1.422393
v 0.715699 2.093658 1.825678
v -0.198754 0.849141 1.029254
v -1.645924 1.300502 2.487405
v -1.534227 1.026954 2.909555
v -1.467618 1.537911 2.908545
v -0.833947 0.026855 1.761736
v -1.667600 1.213579 1.668391
v -1.302916 1.629088 1.322416
vn 0.3168 -0.7555 -0.5734
vn 0.4996 0.6468 -0.5762
vn 0.8062 -0.1039 0.5824
vn -0.3168 0.7555 0.5734
vn -0.8062 0.1039 -0.5824
vn -0.4996 -0.6468 0.5762
vn -0.2194 0.7131 -0.6658
vn -0.9858 -0.1450 0.0841
vn 0.0759 -0.3708 0.9256
vn 0.5710 0.7496 0.3347
vn 0.7971 -0.5890 0.1329
vn -0.0059 0.0028 1.0000
vn -0.2370 -0.9691 0.0681
vn -0.3599 0.8697 -0.3379
vn 0.6287 0.0352 -0.7769
vn -0.9369 0.1228 0.3274
vn -0.4034 -0.3499 -0.8455
vn -0.0456 0.2942 -0.9546
vn 0.9884 0.0844 -0.1259
vn 0.8841 0.4627 0.0659
vn -0.7699 0.6364 -0.0472
vn 0.1908 -0.4689 0.8624
vn -0.2413 0.5894 -0.7709
vn -0.5773 0.0769 0.8129
vn 0.3460 0.4607 0.8173
vn -0.7847 -0.5703 -0.2429
vn -0.7941 0.6077 -0.0064
vn 0.1293 0.9916 -0.0020
vn 0.2425 -0.7636 0.5984
vn 0.8268 0.5243 0.2038
vn -0.8235 0.5611 -0.0842
vn -0.5868 -0.0151 0.8096
vn 0.4201 0.4008 0.8142
vn -0.4677 -0.3584 -0.8080
vn 0.5905 0.0800 -0.8031
vn 0.3278 0.4179 0.8473
vn -0.9520 -0.3006 0.0571
vn -0.6167 0.0620 0.7848
vn 0.1781 0.9840 0.0090
vn -0.2185 -0.9672 0.1298
vn 0.8390 -0.5269 0.1360
vn 0.1821 0.9803 -0.0771
vt 0.625000 0.750000
vt 0.875000 0.500000
vt 0.625000 0.500000
vt 0.375000 1.000000
vt 0.375000 0.750000
vt 0.375000 0.250000
vt 0.625000 0.000000
vt 0.375000 0.000000
vt 0.125000 0.750000
vt 0.375000 0.500000
vt 0.125000 0.500000
vt 0.625000 0.250000
vt 0.329455 0.545545
vt 0.170545 0.704455
vt 0.170545 0.545545
vt 0.420545 0.045545
vt 0.579455 0.204455
vt 0.420545 0.204455
vt 0.420545 0.795545
vt 0.579455 0.954455
vt 0.420545 0.954455
vt 0.829455 0.545545
vt 0.670545 0.704455
vt 0.670545 0.545545
vt 0.420545 0.545545
vt 0.579455 0.704455
vt 0.420545 0.704455
vt 0.579455 0.454455
vt 0.625000 0.454455
vt 0.579455 0.500000
vt 0.329455 0.500000
vt 0.375000 0.545545
vt 0.579455 0.750000
vt 0.625000 0.795545
vt 0.579455 0.795545
vt 0.375000 0.704455
vt 0.329455 0.750000
vt 0.329455 0.704455
vt 0.579455 0.250000
vt 0.625000 0.204455
vt 0.125000 0.545545
vt 0.170545 0.500000
vt 0.579455 0.045545
vt 0.579455 0.000000
vt 0.625000 0.045545
vt 0.170545 0.750000
vt 0.125000 0.704455
vt 0.579455 0.545545
vt 0.420545 0.454455
vt 0.420545 0.000000
vt 0.579455 0.295545
vt 0.625000 0.954455
vt 0.625000 0.295545
vt 0.420545 0.295545
vt 0.875000 0.750000
vt 0.625000 1.000000
vt 0.829455 0.704455
s 0
usemtl Material
f 3/1/1 5/2/1 1/3/1
f 8/4/2 3/1/2 4/5/2
f 6/6/3 7/7/3 8/8/3
f 8/9/4 2/10/4 6/11/4
f 4/5/5 1/3/5 2/10/5
f 2/10/6 5/12/6 6/6/6
f 12/13/1 30/14/1 26/15/1
f 32/16/7 22/17/7 24/18/7
f 19/19/8 28/20/8 31/21/8
f 23/22/4 16/23/4 10/24/4
f 14/25/9 15/26/9 18/27/9
f 9/28/10 10/29/10 11/30/10
f 12/13/11 13/31/11 14/32/11
f 15/33/12 16/34/12 17/35/12
f 18/36/13 19/37/13 20/38/13
f 21/39/14 22/17/14 23/40/14
f 24/41/15 25/42/15 26/15/15
f 27/43/16 28/44/16 29/45/16
f 30/14/17 31/46/17 32/47/17
f 26/15/18 32/47/18 24/41/18
f 12/13/19 25/42/19 13/31/19
f 11/48/20 13/49/20 9/28/20
f 31/50/21 27/43/21 32/16/21
f 17/35/22 18/27/22 15/26/22
f 21/51/23 24/18/23 22/17/23
f 29/52/24 17/35/24 16/34/24
f 16/23/25 11/48/25 10/24/25
f 30/14/26 19/37/26 31/46/26
f 23/40/27 27/43/27 29/45/27
f 10/29/28 21/51/28 23/53/28
f 20/38/29 14/25/29 18/27/29
f 25/54/30 9/28/30 13/49/30
f 3/1/1 7/55/1 5/2/1
f 8/4/2 7/56/2 3/1/2
f 6/6/3 5/12/3 7/7/3
f 8/9/4 4/5/4 2/10/4
f 4/5/5 3/1/5 1/3/5
f 2/10/6 1/3/6 5/12/6
f 12/13/1 20/38/1 30/14/1
f 32/16/31 27/43/31 22/17/31
f 19/19/32 17/35/32 28/20/32
f 23/22/4 29/57/4 16/23/4
f 14/25/33 11/48/33 15/26/33
f 26/15/34 30/14/34 32/47/34
f 12/13/35 26/15/35 25/42/35
f 11/48/36 14/25/36 13/49/36
f 31/50/37 28/44/37 27/43/37
f 17/35/38 19/19/38 18/27/38
f 21/51/39 25/54/39 24/18/39
f 29/52/24 28/20/24 17/35/24
f 16/23/25 15/26/25 11/48/25
f 30/14/40 20/38/40 19/37/40
f 23/40/27 22/17/27 27/43/27
f 10/29/28 9/28/28 21/51/28
f 20/38/41 12/13/41 14/25/41
f 25/54/42 21/51/42 9/28/42
