# Blender 4.0.2
# www.blender.org
mtllib enemy18.mtl
o Cube
v 1.009546 0.868216 2.107708
v 1.191230 0.894303 0.116148
v 0.788158 -1.118955 2.061483
v 0.969842 -1.092869 0.069923
v -0.969842 1.092869 1.930077
v -0.788158 1.118955 -0.061483
v -1.191230 -0.894303 1.883852
v -1.009546 -0.868216 -0.107708
v 0.599624 0.902062 2.615947
v 0.526193 0.535288 2.970347
v 0.919896 0.499113 2.639886
v 0.707877 0.561374 0.978788
v 1.403544 0.049229 2.147445
v 1.282755 -0.591376 2.128035
v 0.779173 -0.764014 2.610504
v 0.385470 -0.727839 2.940965
v 0.378237 -1.085109 2.569722
v -0.043540 -1.508533 1.995028
v -0.683005 -1.393658 1.938196
v 0.567154 -0.701753 0.949405
v -0.658555 1.044861 2.503037
v -1.059492 0.723766 2.462255
v -0.731987 0.678086 2.857438
v -0.140771 1.482069 2.025330
v 0.498694 1.367195 2.082161
v -0.550303 0.704172 0.865878
v -1.200215 -0.539361 2.432873
v -0.879943 -0.942311 2.456812
v -0.872710 -0.585041 2.828055
v -0.691026 -0.558955 0.836495
v -1.587855 -0.075692 1.872912
v -1.467066 0.564912 1.892323
vn 0.0908 0.0130 -0.9958
vn 0.1107 0.9936 0.0231
vn 0.9897 -0.1123 0.0888
vn -0.0908 -0.0130 0.9958
vn -0.9897 0.1123 -0.0888
vn -0.1107 -0.9936 -0.0231
vn -0.5714 0.7994 0.1858
vn -0.8163 -0.5520 0.1704
vn 0.5302 -0.8053 0.2653
vn 0.5829 0.5013 0.6395
vn 0.8231 -0.1385 -0.5507
vn 0.4550 -0.6460 0.6128
vn -0.0809 -0.7657 -0.6380
vn -0.5599 0.6310 0.5370
vn 0.1931 0.7819 -0.5928
vn -0.6878 -0.5163 0.5103
vn -0.7102 0.1547 -0.6867
vn -0.5093 0.7870 -0.3481
vn 0.8054 0.5409 -0.2424
vn 0.7639 0.6182 0.1855
vn -0.7643 0.1250 0.6326
vn 0.6123 -0.7805 0.1257
vn -0.6268 0.7785 0.0331
vn -0.1425 -0.7118 0.6878
vn 0.6356 -0.0886 0.7669
vn -0.7470 -0.5325 -0.3980
vn -0.7641 0.0702 0.6413
vn 0.0140 0.6933 0.7205
vn 0.5658 -0.7789 -0.2706
vn 0.7707 0.5454 0.3296
vn -0.8211 0.0783 0.5654
vn -0.1432 -0.7728 0.6182
vn 0.7055 -0.0949 0.7024
vn -0.7488 0.0987 -0.6554
vn 0.1429 0.8120 -0.5659
vn 0.6376 -0.1432 0.7570
vn -0.7833 -0.6209 0.0281
vn -0.1886 -0.7194 0.6685
vn 0.0629 0.7013 0.7100
vn -0.0363 -0.7967 -0.6033
vn 0.8553 -0.0834 -0.5115
vn 0.0272 0.7562 0.6538
vt 0.625000 0.750000
vt 0.875000 0.500000
vt 0.625000 0.500000
vt 0.375000 1.000000
vt 0.375000 0.750000
vt 0.375000 0.250000
vt 0.625000 0.000000
vt 0.375000 0.000000
vt 0.125000 0.750000
vt 0.375000 0.500000
vt 0.125000 0.500000
vt 0.625000 0.250000
vt 0.329455 0.545545
vt 0.170545 0.704455
vt 0.170545 0.545545
vt 0.420545 0.045545
vt 0.579455 0.204455
vt 0.420545 0.204455
vt 0.420545 0.795545
vt 0.579455 0.954455
vt 0.420545 0.954455
vt 0.829455 0.545545
vt 0.670545 0.704455
vt 0.670545 0.545545
vt 0.420545 0.545545
vt 0.579455 0.704455
vt 0.420545 0.704455
vt 0.579455 0.454455
vt 0.625000 0.454455
vt 0.579455 0.500000
vt 0.329455 0.500000
vt 0.375000 0.545545
vt 0.579455 0.750000
vt 0.625000 0.795545
vt 0.579455 0.795545
vt 0.375000 0.704455
vt 0.329455 0.750000
vt 0.329455 0.704455
vt 0.579455 0.250000
vt 0.625000 0.204455
vt 0.125000 0.545545
vt 0.170545 0.500000
vt 0.579455 0.045545
vt 0.579455 0.000000
vt 0.625000 0.045545
vt 0.170545 0.750000
vt 0.125000 0.704455
vt 0.579455 0.545545
vt 0.420545 0.454455
vt 0.420545 0.000000
vt 0.579455 0.295545
vt 0.625000 0.954455
vt 0.625000 0.295545
vt 0.420545 0.295545
vt 0.875000 0.750000
vt 0.625000 1.000000
vt 0.829455 0.704455
s 0
usemtl Material
f 3/1/1 5/2/1 1/3/1
f 8/4/2 3/1/2 4/5/2
f 6/6/3 7/7/3 8/8/3
f 8/9/4 2/10/4 6/11/4
f 4/5/5 1/3/5 2/10/5
f 2/10/6 5/12/6 6/6/6
f 12/13/1 30/14/1 26/15/1
f 32/16/7 22/17/7 24/18/7
f 19/19/8 28/20/8 31/21/8
f 23/22/4 16/23/4 10/24/4
f 14/25/9 15/26/9 18/27/9
f 9/28/10 10/29/10 11/30/10
f 12/13/11 13/31/11 14/32/11
f 15/33/12 16/34/12 17/35/12
f 18/36/13 19/37/13 20/38/13
f 21/39/14 22/17/14 23/40/14
f 24/41/15 25/42/15 26/15/15
f 27/43/16 28/44/16 29/45/16
f 30/14/17 31/46/17 32/47/17
f 26/15/18 32/47/18 24/41/18
f 12/13/19 25/42/19 13/31/19
f 11/48/20 13/49/20 9/28/20
f 31/50/21 27/43/21 32/16/21
f 17/35/22 18/27/22 15/26/22
f 21/51/23 24/18/23 22/17/23
f 29/52/24 17/35/24 16/34/24
f 16/23/25 11/48/25 10/24/25
f 30/14/26 19/37/26 31/46/26
f 23/40/27 27/43/27 29/45/27
f 10/29/28 21/51/28 23/53/28
f 20/38/29 14/25/29 18/27/29
f 25/54/30 9/28/30 13/49/30
f 3/1/1 7/55/1 5/2/1
f 8/4/2 7/56/2 3/1/2
f 6/6/3 5/12/3 7/7/3
f 8/9/4 4/5/4 2/10/4
f 4/5/5 3/1/5 1/3/5
f 2/10/6 1/3/6 5/12/6
f 12/13/1 20/38/1 30/14/1
f 32/16/31 27/43/31 22/17/31
f 19/19/32 17/35/32 28/20/32
f 23/22/4 29/57/4 16/23/4
f 14/25/33 11/48/33 15/26/33
f 26/15/34 30/14/34 32/47/34
f 12/13/35 26/15/35 25/42/35
f 11/48/36 14/25/36 13/49/36
f 31/50/37 28/44/37 27/43/37
f 17/35/38 19/19/38 18/27/38
f 21/51/39 25/54/39 24/18/39
f 29/52/24 28/20/24 17/35/24
f 16/23/25 15/26/25 11/48/25
f 30/14/40 20/38/40 19/37/40
f 23/40/27 22/17/27 27/43/27
f 10/29/28 9/28/28 21/51/28
f 20/38/41 12/13/41 14/25/41
f 25/54/42 21/51/42 9/28/42
