# Blender 4.0.2
# www.blender.org
mtllib enemy138.mtl
o Cube
v 0.708107 1.193755 2.563681
v 0.798353 1.198955 0.565725
v 1.150106 -0.756736 2.578568
v 1.240352 -0.751536 0.580612
v -1.240352 0.751536 2.474519
v -1.150106 0.756736 0.476563
v -0.798353 -1.198955 2.489407
v -0.708107 -1.193755 0.491451
v 0.328640 1.111780 3.089773
v 0.392722 0.755492 3.456472
v 0.764133 0.837003 3.108729
v 0.482969 0.760693 1.458516
v 1.350398 0.550895 2.605494
v 1.446076 -0.094224 2.608136
v 1.045086 -0.402808 3.118192
v 0.673675 -0.484319 3.465935
v 0.770639 -0.838711 3.104661
v 0.490650 -1.399184 2.561583
v -0.152694 -1.502089 2.532256
v 0.763921 -0.479118 1.467980
v -0.909880 0.830687 3.033098
v -1.184326 0.394784 3.019567
v -0.845797 0.474400 3.399797
v -0.582201 1.393908 2.520394
v 0.061142 1.496813 2.549721
v -0.755551 0.479601 1.401841
v -0.903373 -0.845027 3.029030
v -0.467880 -1.119804 3.047986
v -0.564845 -0.765411 3.409261
v -0.474598 -0.760211 1.411305
v -1.441949 -0.556171 2.476483
v -1.537628 0.088948 2.473841
vn 0.0451 0.0026 -0.9990
vn -0.2210 0.9752 -0.0074
vn 0.9742 0.2211 0.0446
vn -0.0451 -0.0026 0.9990
vn -0.9742 -0.2211 -0.0446
vn 0.2210 -0.9752 0.0074
vn -0.7951 0.5752 0.1923
vn -0.5829 -0.7814 0.2229
vn 0.7746 -0.5764 0.2602
vn 0.4088 0.6892 0.5982
vn 0.8023 0.1166 -0.5854
vn 0.6640 -0.4369 0.6068
vn 0.1519 -0.7747 -0.6138
vn -0.7161 0.4339 0.5467
vn -0.0961 0.7779 -0.6210
vn -0.4609 -0.6922 0.5553
vn -0.7462 -0.1134 -0.6560
vn -0.7519 0.5628 -0.3435
vn 0.5736 0.7645 -0.2940
vn 0.5247 0.8408 0.1333
vn -0.7394 -0.1069 0.6648
vn 0.8389 -0.5318 0.1163
vn -0.8461 0.5313 0.0430
vn 0.1244 -0.6914 0.7116
vn 0.6570 0.1545 0.7379
vn -0.5446 -0.7629 -0.3485
vn -0.7208 -0.1582 0.6749
vn -0.1882 0.6878 0.7011
vn 0.7799 -0.5611 -0.2772
vn 0.5603 0.7800 0.2786
vn -0.7801 -0.1722 0.6015
vn 0.1412 -0.7521 0.6438
vn 0.7226 0.1689 0.6703
vn -0.7631 -0.1777 -0.6214
vn -0.1524 0.7910 -0.5925
vn 0.6764 0.1033 0.7293
vn -0.5344 -0.8414 0.0810
vn 0.0826 -0.7145 0.6948
vn -0.1451 0.7109 0.6882
vn 0.2054 -0.7880 -0.5805
vn 0.8159 0.1807 -0.5492
vn -0.1989 0.7487 0.6323
vt 0.625000 0.750000
vt 0.875000 0.500000
vt 0.625000 0.500000
vt 0.375000 1.000000
vt 0.375000 0.750000
vt 0.375000 0.250000
vt 0.625000 0.000000
vt 0.375000 0.000000
vt 0.125000 0.750000
vt 0.375000 0.500000
vt 0.125000 0.500000
vt 0.625000 0.250000
vt 0.329455 0.545545
vt 0.170545 0.704455
vt 0.170545 0.545545
vt 0.420545 0.045545
vt 0.579455 0.204455
vt 0.420545 0.204455
vt 0.420545 0.795545
vt 0.579455 0.954455
vt 0.420545 0.954455
vt 0.829455 0.545545
vt 0.670545 0.704455
vt 0.670545 0.545545
vt 0.420545 0.545545
vt 0.579455 0.704455
vt 0.420545 0.704455
vt 0.579455 0.454455
vt 0.625000 0.454455
vt 0.579455 0.500000
vt 0.329455 0.500000
vt 0.375000 0.545545
vt 0.579455 0.750000
vt 0.625000 0.795545
vt 0.579455 0.795545
vt 0.375000 0.704455
vt 0.329455 0.750000
vt 0.329455 0.704455
vt 0.579455 0.250000
vt 0.625000 0.204455
vt 0.125000 0.545545
vt 0.170545 0.500000
vt 0.579455 0.045545
vt 0.579455 0.000000
vt 0.625000 0.045545
vt 0.170545 0.750000
vt 0.125000 0.704455
vt 0.579455 0.545545
vt 0.420545 0.454455
vt 0.420545 0.000000
vt 0.579455 0.295545
vt 0.625000 0.954455
vt 0.625000 0.295545
vt 0.420545 0.295545
vt 0.875000 0.750000
vt 0.625000 1.000000
vt 0.829455 0.704455
s 0
usemtl Material
f 3/1/1 5/2/1 1/3/1
f 8/4/2 3/1/2 4/5/2
f 6/6/3 7/7/3 8/8/3
f 8/9/4 2/10/4 6/11/4
f 4/5/5 1/3/5 2/10/5
f 2/10/6 5/12/6 6/6/6
f 12/13/1 30/14/1 26/15/1
f 32/16/7 22/17/7 24/18/7
f 19/19/8 28/20/8 31/21/8
f 23/22/4 16/23/4 10/24/4
f 14/25/9 15/26/9 18/27/9
f 9/28/10 10/29/10 11/30/10
f 12/13/11 13/31/11 14/32/11
f 15/33/12 16/34/12 17/35/12
f 18/36/13 19/37/13 20/38/13
f 21/39/14 22/17/14 23/40/14
f 24/41/15 25/42/15 26/15/15
f 27/43/16 28/44/16 29/45/16
f 30/14/17 31/46/17 32/47/17
f 26/15/18 32/47/18 24/41/18
f 12/13/19 25/42/19 13/31/19
f 11/48/20 13/49/20 9/28/20
f 31/50/21 27/43/21 32/16/21
f 17/35/22 18/27/22 15/26/22
f 21/51/23 24/18/23 22/17/23
f 29/52/24 17/35/24 16/34/24
f 16/23/25 11/48/25 10/24/25
f 30/14/26 19/37/26 31/46/26
f 23/40/27 27/43/27 29/45/27
f 10/29/28 21/51/28 23/53/28
f 20/38/29 14/25/29 18/27/29
f 25/54/30 9/28/30 13/49/30
f 3/1/1 7/55/1 5/2/1
f 8/4/2 7/56/2 3/1/2
f 6/6/3 5/12/3 7/7/3
f 8/9/4 4/5/4 2/10/4
f 4/5/5 3/1/5 1/3/5
f 2/10/6 1/3/6 5/12/6
f 12/13/1 20/38/1 30/14/1
f 32/16/31 27/43/31 22/17/31
f 19/19/32 17/35/32 28/20/32
f 23/22/4 29/57/4 16/23/4
f 14/25/33 11/48/33 15/26/33
f 26/15/34 30/14/34 32/47/34
f 12/13/35 26/15/35 25/42/35
f 11/48/36 14/25/36 13/49/36
f 31/50/37 28/44/37 27/43/37
f 17/35/38 19/19/38 18/27/38
f 21/51/39 25/54/39 24/18/39
f 29/52/24 28/20/24 17/35/24
f 16/23/25 15/26/25 11/48/25
f 30/14/40 20/38/40 19/37/40
f 23/40/27 22/17/27 27/43/27
f 10/29/28 9/28/28 21/51/28
f 20/38/41 12/13/41 14/25/41
f 25/54/42 21/51/42 9/28/42
